<svg xmlns="http://www.w3.org/2000/svg" xmlns:xlink="http://www.w3.org/1999/xlink" width="1280" zoomAndPan="magnify" viewBox="0 0 960 540.000001" height="720" preserveAspectRatio="xMidYMid meet" version="1.0"><defs><g/><clipPath id="02367110ae"><path d="M 0.886719 0 L 959.113281 0 L 959.113281 539 L 0.886719 539 Z M 0.886719 0 " clip-rule="nonzero"/></clipPath></defs><g clip-path="url(#02367110ae)"><path fill="#ffffff" d="M 0.886719 0 L 959.113281 0 L 959.113281 539 L 0.886719 539 Z M 0.886719 0 " fill-opacity="1" fill-rule="nonzero"/><path fill="#e8e3e3" d="M 0.886719 0 L 959.113281 0 L 959.113281 539 L 0.886719 539 Z M 0.886719 0 " fill-opacity="1" fill-rule="nonzero"/></g><g fill="#000000" fill-opacity="1"><g transform="translate(133.614109, 310.300377)"><g><path d="M 2.359375 -0.140625 L 2.90625 -2.5625 C 2.90625 -3.53125 2.601562 -4.242188 2 -4.703125 L 2 -5.1875 C 2 -6.113281 2.273438 -6.957031 2.828125 -7.71875 C 3.390625 -8.476562 4.128906 -8.859375 5.046875 -8.859375 C 5.648438 -8.859375 6.179688 -8.554688 6.640625 -7.953125 C 9.691406 -8.140625 11.21875 -9.066406 11.21875 -10.734375 L 10.796875 -13.84375 C 11.535156 -15 11.90625 -15.96875 11.90625 -16.75 C 11.90625 -17.070312 11.8125 -17.367188 11.625 -17.640625 C 11.4375 -17.921875 11.238281 -18.164062 11.03125 -18.375 C 10.832031 -18.582031 10.640625 -18.789062 10.453125 -19 C 10.265625 -19.207031 10.171875 -19.425781 10.171875 -19.65625 C 10.171875 -20.164062 10.492188 -20.671875 11.140625 -21.171875 L 10.65625 -25.8125 C 9.6875 -27.519531 9.203125 -28.765625 9.203125 -29.546875 C 9.203125 -29.867188 9.28125 -30.097656 9.4375 -30.234375 C 9.601562 -30.378906 9.789062 -30.519531 10 -30.65625 C 10.207031 -30.789062 10.390625 -30.960938 10.546875 -31.171875 C 10.710938 -31.378906 10.796875 -31.691406 10.796875 -32.109375 L 10.59375 -33.5625 C 11.375 -33.789062 11.765625 -34.160156 11.765625 -34.671875 C 11.765625 -35.085938 11.441406 -35.617188 10.796875 -36.265625 L 11.703125 -38.125 L 9.828125 -38.96875 C 9.921875 -41 10.382812 -42.148438 11.21875 -42.421875 L 11.21875 -43.734375 L 9.765625 -43.46875 L 10.25 -48.515625 C 9.550781 -49.109375 9.203125 -50.332031 9.203125 -52.1875 L 9.765625 -57.09375 L 11.078125 -56.953125 C 9.691406 -57.691406 9 -58.773438 9 -60.203125 C 9 -61.222656 9.414062 -62.425781 10.25 -63.8125 C 9.601562 -64.59375 9.28125 -65.445312 9.28125 -66.375 C 9.28125 -67.25 9.554688 -68.285156 10.109375 -69.484375 L 10.109375 -71.5625 C 8.398438 -71.601562 7.546875 -72.222656 7.546875 -73.421875 L 7.6875 -74.46875 C 6.800781 -74.28125 6.359375 -73.84375 6.359375 -73.15625 L 6.359375 -73.015625 C 4.097656 -73.847656 2.96875 -75.597656 2.96875 -78.265625 C 2.96875 -78.960938 3.164062 -79.5625 3.5625 -80.0625 C 3.957031 -80.570312 4.394531 -81 4.875 -81.34375 C 5.363281 -81.695312 5.835938 -81.953125 6.296875 -82.109375 C 6.753906 -82.273438 7.03125 -82.359375 7.125 -82.359375 L 7.953125 -82.140625 L 10.3125 -83.59375 L 13.015625 -83.59375 C 13.609375 -83.039062 14.226562 -82.765625 14.875 -82.765625 C 15.425781 -82.765625 16.023438 -83.039062 16.671875 -83.59375 L 25.1875 -83.59375 L 24.84375 -81.390625 L 27.609375 -83.53125 L 29 -83.53125 C 30.007812 -82.695312 30.863281 -82.28125 31.5625 -82.28125 C 32.0625 -82.28125 32.507812 -82.5 32.90625 -82.9375 C 33.300781 -83.375 33.679688 -83.59375 34.046875 -83.59375 C 34.421875 -83.59375 34.867188 -83.363281 35.390625 -82.90625 C 35.921875 -82.445312 36.488281 -82.191406 37.09375 -82.140625 L 38.265625 -81.171875 L 42.078125 -81.734375 L 44.078125 -81.53125 L 44.078125 -81.171875 C 44.078125 -80.671875 44.285156 -80.421875 44.703125 -80.421875 L 46.4375 -81.046875 C 47.957031 -79.285156 49.429688 -78.40625 50.859375 -78.40625 L 52.25 -78.6875 L 53.640625 -77.375 L 53.015625 -75.09375 L 53.90625 -73.84375 L 56.125 -75.15625 L 54.734375 -72.671875 L 58.140625 -68.234375 L 57.65625 -62.984375 C 57.65625 -62.148438 57.847656 -61.457031 58.234375 -60.90625 C 58.628906 -60.351562 58.828125 -59.820312 58.828125 -59.3125 C 58.828125 -58.800781 58.503906 -58.363281 57.859375 -58 L 59.171875 -55.359375 L 56.265625 -47.40625 C 55.578125 -47.175781 55.234375 -46.945312 55.234375 -46.71875 L 55.78125 -46.09375 L 53.84375 -43.46875 L 55.234375 -42.421875 C 53.015625 -41.222656 51.488281 -39.628906 50.65625 -37.640625 C 48.90625 -37.085938 48.03125 -36.328125 48.03125 -35.359375 L 48.171875 -34.53125 L 46.15625 -34.46875 C 44.769531 -35.15625 43.710938 -35.5 42.984375 -35.5 C 42.191406 -35.5 41.796875 -35.082031 41.796875 -34.25 L 37.921875 -33.15625 L 40.765625 -31.828125 C 40.765625 -30.398438 41.800781 -29.617188 43.875 -29.484375 L 43.046875 -27.546875 C 45.628906 -27.316406 46.921875 -26.320312 46.921875 -24.5625 C 46.921875 -23.738281 46.757812 -23.023438 46.4375 -22.421875 L 48.65625 -22.21875 L 48.234375 -20.28125 C 48.234375 -19.082031 48.878906 -18.320312 50.171875 -18 C 49.753906 -17.351562 49.546875 -16.679688 49.546875 -15.984375 C 49.546875 -14.597656 50.398438 -13.191406 52.109375 -11.765625 L 53.5625 -12.875 L 54.609375 -11.421875 L 56.609375 -11.5625 C 59.328125 -11.5625 60.6875 -10.679688 60.6875 -8.921875 L 60.140625 -6.578125 L 61.390625 -6.640625 L 60.484375 -0.546875 L 57.78125 -1.65625 L 57.78125 0.0625 L 55.578125 0.625 C 54.691406 0.164062 53.765625 -0.0625 52.796875 -0.0625 C 51.648438 -0.0625 50.566406 0.234375 49.546875 0.828125 C 48.953125 -0.328125 48.257812 -0.90625 47.46875 -0.90625 C 46.914062 -0.90625 46.410156 -0.671875 45.953125 -0.203125 L 43.390625 -2.078125 L 43.734375 -3.671875 C 43.734375 -4.867188 43.066406 -5.882812 41.734375 -6.71875 L 41.796875 -7.8125 C 41.796875 -9.476562 41.128906 -10.425781 39.796875 -10.65625 L 38.609375 -12.390625 L 39.796875 -15.015625 C 37.671875 -15.015625 36.609375 -15.800781 36.609375 -17.375 L 36.75 -18.40625 L 34.25 -17.859375 L 33.984375 -22.421875 L 32.453125 -21.171875 C 31.859375 -24.640625 30.429688 -26.535156 28.171875 -26.859375 L 28.09375 -29.828125 L 25.890625 -29.890625 L 25.40625 -31.90625 L 23.59375 -32.390625 L 23.1875 -31.484375 L 21.734375 -32.1875 C 21.128906 -31.03125 20.828125 -29.503906 20.828125 -27.609375 L 21.390625 -24.078125 C 21.390625 -23.429688 21.257812 -22.890625 21 -22.453125 C 20.75 -22.015625 20.625 -21.5 20.625 -20.90625 C 20.625 -20.164062 20.832031 -19.285156 21.25 -18.265625 C 20.695312 -17.578125 20.421875 -16.722656 20.421875 -15.703125 C 20.421875 -14.503906 20.785156 -13.191406 21.515625 -11.765625 L 21.3125 -9.96875 C 21.3125 -8.945312 21.632812 -8.4375 22.28125 -8.4375 C 22.695312 -8.4375 23.296875 -8.691406 24.078125 -9.203125 L 24.4375 -8.234375 L 26.5 -8.234375 L 28.65625 -6.984375 C 29.15625 -6.984375 29.40625 -5.945312 29.40625 -3.875 L 29.40625 -2.96875 L 28.65625 -3.1875 L 28.796875 -0.140625 C 27.316406 -0.554688 26 -0.765625 24.84375 -0.765625 C 23.914062 -0.765625 23.082031 -0.613281 22.34375 -0.3125 C 21.613281 -0.0078125 20.898438 0.140625 20.203125 0.140625 C 19.097656 0.140625 18.109375 -0.207031 17.234375 -0.90625 L 16.671875 0 L 15.015625 0 L 15.09375 -0.765625 L 13.078125 -0.625 L 13.359375 0 L 10.109375 0 L 10.03125 -0.828125 C 9.570312 -0.503906 9.085938 -0.34375 8.578125 -0.34375 C 8.210938 -0.34375 7.925781 -0.46875 7.71875 -0.71875 C 7.507812 -0.976562 7.21875 -1.109375 6.84375 -1.109375 C 6.382812 -1.109375 5.695312 -0.851562 4.78125 -0.34375 Z M 32.390625 -43.59375 C 32.984375 -43.269531 34.019531 -43.109375 35.5 -43.109375 C 36.601562 -43.109375 37.15625 -43.429688 37.15625 -44.078125 L 39.375 -44.78125 L 41.109375 -44.15625 L 42.140625 -45.671875 L 43.671875 -45.265625 C 45.054688 -46.140625 45.75 -46.832031 45.75 -47.34375 L 45.1875 -47.953125 C 46.570312 -48.648438 47.679688 -50.222656 48.515625 -52.671875 L 46.921875 -52.453125 L 49.484375 -56.125 L 49.203125 -57.921875 L 48.3125 -57.4375 L 48.234375 -59.109375 C 48.878906 -59.660156 49.203125 -60.210938 49.203125 -60.765625 C 49.203125 -61.679688 48.347656 -62.507812 46.640625 -63.25 L 46.375 -66.578125 L 45.328125 -66.296875 L 44.921875 -68.234375 L 45.1875 -69.28125 C 45.1875 -69.601562 45.023438 -69.765625 44.703125 -69.765625 C 44.242188 -69.765625 43.347656 -69.367188 42.015625 -68.578125 C 39.703125 -70.335938 37.71875 -71.21875 36.0625 -71.21875 C 35.320312 -71.21875 34.628906 -71.03125 33.984375 -70.65625 C 33.890625 -72.039062 33.613281 -72.734375 33.15625 -72.734375 C 32.78125 -72.734375 32.25 -72.34375 31.5625 -71.5625 L 27.609375 -72.328125 C 27.609375 -73.109375 27.265625 -73.5 26.578125 -73.5 C 25.742188 -73.5 24.40625 -72.945312 22.5625 -71.84375 L 22.625 -72.734375 C 22.625 -73.285156 22.460938 -73.5625 22.140625 -73.5625 L 21.453125 -73.296875 L 21.734375 -69.765625 C 20.859375 -69.578125 20.421875 -69.019531 20.421875 -68.09375 L 20.421875 -67.6875 C 21.203125 -67.40625 21.59375 -66.78125 21.59375 -65.8125 L 20.625 -61.59375 C 20.625 -61.082031 20.804688 -60.828125 21.171875 -60.828125 L 21.453125 -60.90625 L 22 -55.921875 L 21.03125 -56.125 C 20.4375 -54.96875 20.140625 -53.125 20.140625 -50.59375 C 20.140625 -48.46875 20.578125 -46.617188 21.453125 -45.046875 L 23.328125 -46.234375 L 22.84375 -44.15625 L 24.640625 -44.21875 C 27.265625 -44.21875 29.570312 -43.710938 31.5625 -42.703125 Z M 32.390625 -43.59375 "/></g></g></g><g fill="#000000" fill-opacity="1"><g transform="translate(196.591449, 310.300377)"><g><path d="M 14.25 -6.578125 C 14.164062 -7.398438 13.945312 -8.019531 13.59375 -8.4375 C 13.25 -8.851562 12.859375 -9.210938 12.421875 -9.515625 C 11.984375 -9.816406 11.554688 -10.128906 11.140625 -10.453125 C 10.722656 -10.773438 10.398438 -11.257812 10.171875 -11.90625 C 9.941406 -12.457031 9.628906 -12.960938 9.234375 -13.421875 C 8.847656 -13.890625 8.457031 -14.304688 8.0625 -14.671875 C 7.664062 -15.035156 7.316406 -15.359375 7.015625 -15.640625 C 6.722656 -15.921875 6.578125 -16.148438 6.578125 -16.328125 L 6.359375 -18.890625 L 6.71875 -20.96875 L 6.15625 -24.015625 L 6.359375 -24.4375 L 7.953125 -24.5625 L 6.359375 -24.78125 C 6.679688 -25.789062 7.050781 -26.296875 7.46875 -26.296875 C 7.238281 -26.710938 6.984375 -27.070312 6.703125 -27.375 C 6.429688 -27.675781 6.164062 -28 5.90625 -28.34375 C 5.65625 -28.6875 5.4375 -29.085938 5.25 -29.546875 C 5.070312 -30.015625 4.984375 -30.59375 4.984375 -31.28125 L 5.390625 -33.703125 C 5.992188 -33.703125 6.296875 -33.882812 6.296875 -34.25 C 6.296875 -34.53125 6.125 -34.957031 5.78125 -35.53125 C 5.4375 -36.113281 5.265625 -36.613281 5.265625 -37.03125 C 5.265625 -37.582031 5.484375 -38.003906 5.921875 -38.296875 C 6.359375 -38.597656 6.578125 -39.003906 6.578125 -39.515625 L 6.359375 -40.34375 C 6.679688 -41.632812 7.070312 -42.9375 7.53125 -44.25 C 8 -45.570312 8.535156 -46.898438 9.140625 -48.234375 L 9.546875 -47.75 L 9.765625 -48.171875 L 9.40625 -49.28125 C 10.613281 -49.6875 11.628906 -50.5625 12.453125 -51.90625 L 13.359375 -51.90625 L 13.765625 -52.796875 L 13.5625 -53.015625 L 12.734375 -52.734375 C 13.929688 -53.929688 14.71875 -55.0625 15.09375 -56.125 L 16.953125 -56.125 L 17.375 -57.234375 C 17.46875 -57.597656 17.71875 -57.78125 18.125 -57.78125 L 18.890625 -57.65625 L 18.6875 -58.40625 C 20.164062 -58.59375 21.363281 -59.21875 22.28125 -60.28125 L 23.25 -59.9375 L 23.453125 -60.6875 L 27.609375 -60.6875 L 28.375 -61.796875 L 28.921875 -61.453125 L 29.484375 -62.21875 L 31.765625 -62.5625 L 31.765625 -63.328125 L 32.53125 -63.390625 C 33.03125 -62.742188 33.628906 -62.421875 34.328125 -62.421875 L 35.359375 -62.5625 L 35.78125 -61.453125 L 36.890625 -61.59375 L 37.296875 -60.828125 L 38.6875 -61.046875 L 40.6875 -60.6875 L 41.25 -61.046875 L 41.3125 -59.171875 L 41.875 -61.046875 C 42.375 -60.535156 42.992188 -60.164062 43.734375 -59.9375 C 44.148438 -58.96875 44.910156 -58.457031 46.015625 -58.40625 C 46.523438 -57.582031 47.289062 -57.078125 48.3125 -56.890625 C 49 -55.734375 50.007812 -54.972656 51.34375 -54.609375 L 52.734375 -52.875 C 53.191406 -52.738281 53.421875 -52.507812 53.421875 -52.1875 L 53.21875 -51.5625 L 54.734375 -51 L 54.671875 -50.59375 C 54.671875 -50.3125 54.785156 -50.171875 55.015625 -50.171875 L 55.921875 -50.453125 L 55.5 -49.828125 L 57.78125 -45.890625 L 57.4375 -45.125 L 58 -44.703125 C 58.226562 -43.960938 58.664062 -43.203125 59.3125 -42.421875 L 59.03125 -41.046875 L 59.3125 -39.453125 L 58.96875 -39.234375 L 59.234375 -38.609375 L 58.96875 -38.0625 L 59.3125 -35.640625 L 58.96875 -32.796875 L 58.203125 -32.390625 L 58.40625 -28.71875 L 57.78125 -30.515625 L 56.6875 -29.34375 C 54.695312 -29.300781 53.171875 -28.351562 52.109375 -26.5 C 51.554688 -27.382812 51.140625 -27.828125 50.859375 -27.828125 C 50.628906 -27.828125 50.515625 -27.476562 50.515625 -26.78125 L 50.515625 -26.15625 L 49.546875 -25.75 L 49.546875 -25.953125 C 49.546875 -26.410156 49.222656 -26.640625 48.578125 -26.640625 C 47.929688 -26.640625 47.265625 -26.269531 46.578125 -25.53125 C 46.347656 -26.09375 45.957031 -26.375 45.40625 -26.375 L 45.046875 -26.296875 C 44.867188 -26.898438 44.570312 -27.203125 44.15625 -27.203125 L 43.53125 -27.0625 C 42.976562 -27.800781 42.332031 -28.171875 41.59375 -28.171875 L 40.34375 -27.828125 L 38.265625 -27.828125 L 37.03125 -28.171875 L 35.578125 -27.828125 L 34.734375 -27.953125 C 34.003906 -27.953125 33.269531 -27.65625 32.53125 -27.0625 L 31.96875 -27.0625 C 31.09375 -27.65625 30.265625 -27.953125 29.484375 -27.953125 L 28.71875 -27.828125 C 28.351562 -28.472656 27.9375 -28.796875 27.46875 -28.796875 L 26.015625 -28.234375 C 25.191406 -28.234375 24.523438 -27.84375 24.015625 -27.0625 L 22.28125 -27.0625 C 21.539062 -27.65625 20.710938 -27.953125 19.796875 -27.953125 C 18.921875 -27.953125 18.039062 -27.65625 17.15625 -27.0625 L 17.578125 -26.15625 C 17.253906 -25.695312 17.09375 -25.238281 17.09375 -24.78125 C 17.09375 -24.226562 17.253906 -23.71875 17.578125 -23.25 L 17.375 -22.078125 C 17.375 -20.691406 18.203125 -19.628906 19.859375 -18.890625 L 19.453125 -18.75 C 19.816406 -18.101562 20.101562 -17.515625 20.3125 -16.984375 C 20.519531 -16.453125 20.75 -15.941406 21 -15.453125 C 21.257812 -14.972656 21.582031 -14.523438 21.96875 -14.109375 C 22.363281 -13.703125 22.90625 -13.289062 23.59375 -12.875 L 23.25 -11.5625 C 23.25 -10.914062 23.644531 -10.59375 24.4375 -10.59375 L 24.78125 -10.59375 L 24.703125 -9.96875 C 24.703125 -9.507812 24.84375 -9.28125 25.125 -9.28125 L 25.53125 -9.40625 L 25.75 -8.65625 L 25.75 -10.375 C 26.34375 -11.257812 27.332031 -11.703125 28.71875 -11.703125 L 28.375 -12.109375 C 28.925781 -12.203125 29.363281 -12.457031 29.6875 -12.875 L 31.96875 -10.375 C 31.09375 -9.78125 30.585938 -9.207031 30.453125 -8.65625 L 31.90625 -8.375 L 33.5 -8.65625 C 34.050781 -7.957031 34.765625 -7.609375 35.640625 -7.609375 L 37.09375 -7.890625 L 35.5 -8.578125 C 37.394531 -8.722656 38.34375 -9.320312 38.34375 -10.375 L 38.265625 -10.9375 L 39.09375 -10.796875 C 39.75 -10.796875 40.351562 -11.097656 40.90625 -11.703125 C 41.5 -11.234375 42.050781 -11 42.5625 -11 C 43.488281 -11 44.226562 -11.785156 44.78125 -13.359375 C 45.84375 -13.722656 46.375 -14.140625 46.375 -14.609375 L 46.296875 -14.875 C 46.847656 -14.925781 47.125 -15.160156 47.125 -15.578125 L 47.0625 -15.984375 C 47.75 -16.398438 48.367188 -17.046875 48.921875 -17.921875 L 49.28125 -17.921875 C 50.332031 -17.921875 50.859375 -18.546875 50.859375 -19.796875 L 53.015625 -18.40625 L 52.53125 -19.375 L 54.46875 -20.203125 L 54.125 -17.71875 L 54.609375 -17.78125 C 54.691406 -17.78125 54.90625 -17.734375 55.25 -17.640625 C 55.601562 -17.554688 55.960938 -17.421875 56.328125 -17.234375 C 56.703125 -17.046875 57.035156 -16.835938 57.328125 -16.609375 C 57.628906 -16.378906 57.78125 -16.101562 57.78125 -15.78125 C 57.78125 -15.40625 57.640625 -15.078125 57.359375 -14.796875 C 57.085938 -14.523438 56.953125 -14.207031 56.953125 -13.84375 L 57.09375 -13.15625 L 55.578125 -12.390625 L 55.234375 -10.515625 C 54.859375 -10.421875 54.40625 -10.222656 53.875 -9.921875 C 53.34375 -9.628906 53.078125 -9.226562 53.078125 -8.71875 L 53.28125 -7.890625 C 52.550781 -7.753906 52.1875 -7.335938 52.1875 -6.640625 L 52.109375 -5.8125 C 50.910156 -5.394531 49.894531 -4.519531 49.0625 -3.1875 C 48.238281 -3.09375 47.59375 -2.695312 47.125 -2 L 46.578125 -2 C 45.972656 -3.019531 45.023438 -3.53125 43.734375 -3.53125 C 43.554688 -3.34375 43.375 -3.097656 43.1875 -2.796875 C 43 -2.503906 42.800781 -2.207031 42.59375 -1.90625 C 42.382812 -1.601562 42.175781 -1.347656 41.96875 -1.140625 C 41.757812 -0.929688 41.566406 -0.828125 41.390625 -0.828125 L 40.484375 -0.90625 C 39.972656 -0.90625 39.472656 -0.695312 38.984375 -0.28125 C 38.503906 0.132812 37.875 0.34375 37.09375 0.34375 L 35.984375 0.28125 L 34.046875 -0.484375 C 33.304688 0.117188 32.40625 0.421875 31.34375 0.421875 L 29.140625 0 L 28.71875 0.625 L 26.78125 -0.6875 C 26.6875 -1.101562 26.550781 -1.3125 26.375 -1.3125 L 26.09375 -1.25 C 25.632812 -1.84375 25.007812 -2.140625 24.21875 -2.140625 L 23.25 -2 C 21.539062 -2.375 20.085938 -3.019531 18.890625 -3.9375 C 18.660156 -4.726562 18.269531 -5.125 17.71875 -5.125 L 17.375 -5.046875 L 16.953125 -6.984375 L 15.4375 -7.328125 C 14.882812 -7.328125 14.488281 -7.078125 14.25 -6.578125 Z M 27.609375 -38.203125 L 28.4375 -38.40625 L 30.453125 -38.0625 C 31.515625 -37.414062 32.53125 -37.09375 33.5 -37.09375 C 35.25 -37.09375 37.023438 -37.992188 38.828125 -39.796875 L 39.515625 -37.09375 L 39.9375 -37.4375 L 40.140625 -39.796875 C 40.367188 -38.867188 40.597656 -38.40625 40.828125 -38.40625 C 41.109375 -38.40625 41.382812 -38.867188 41.65625 -39.796875 C 42.351562 -39.003906 43.140625 -38.609375 44.015625 -38.609375 L 44.703125 -38.6875 L 45.46875 -38.0625 C 46.300781 -38.476562 46.71875 -39.007812 46.71875 -39.65625 C 46.71875 -40.164062 46.554688 -40.648438 46.234375 -41.109375 L 45.46875 -40.90625 L 45.953125 -41.734375 L 45.40625 -41.9375 C 45.351562 -42.675781 45.269531 -43.207031 45.15625 -43.53125 C 45.039062 -43.851562 44.890625 -44.070312 44.703125 -44.1875 C 44.523438 -44.300781 44.296875 -44.378906 44.015625 -44.421875 C 43.734375 -44.472656 43.390625 -44.640625 42.984375 -44.921875 C 42.515625 -44.679688 42.257812 -44.3125 42.21875 -43.8125 C 41.894531 -43.988281 41.296875 -44.101562 40.421875 -44.15625 L 40.078125 -43.875 L 39.9375 -44.78125 C 39.613281 -45.007812 39.4375 -45.269531 39.40625 -45.5625 C 39.382812 -45.863281 39.222656 -46.253906 38.921875 -46.734375 C 38.628906 -47.222656 38.296875 -47.707031 37.921875 -48.1875 C 37.554688 -48.675781 37.164062 -49.109375 36.75 -49.484375 L 35.015625 -49.828125 L 35.78125 -48.796875 L 34.25 -49.484375 L 33.90625 -48.71875 C 33.351562 -48.71875 33.007812 -48.441406 32.875 -47.890625 L 32.453125 -48.171875 C 32.222656 -48.171875 32.109375 -47.800781 32.109375 -47.0625 C 31.921875 -47.65625 31.738281 -47.953125 31.5625 -47.953125 C 31.375 -47.953125 31.257812 -47.816406 31.21875 -47.546875 L 29.140625 -47.953125 L 29.484375 -49.0625 C 29.484375 -49.53125 29.179688 -49.851562 28.578125 -50.03125 L 28.578125 -49.0625 C 27.566406 -48.882812 27.0625 -48.472656 27.0625 -47.828125 L 27.0625 -47.546875 C 26.226562 -47.410156 25.8125 -46.972656 25.8125 -46.234375 L 26.09375 -45.53125 C 25.71875 -45.445312 25.53125 -45.125 25.53125 -44.5625 C 23.09375 -43.78125 21.875 -42.929688 21.875 -42.015625 C 21.875 -41.597656 22.078125 -41.226562 22.484375 -40.90625 L 22.84375 -41.453125 C 23.8125 -40.117188 24.914062 -39.289062 26.15625 -38.96875 L 26.578125 -37.921875 Z M 20 -40.5625 L 21.25 -40.96875 L 20.421875 -41.53125 Z M 56.8125 -28.796875 L 57.4375 -28.09375 C 56.882812 -27.445312 56.285156 -27.125 55.640625 -27.125 C 55.179688 -27.125 54.695312 -27.3125 54.1875 -27.6875 C 54.644531 -28.238281 55.519531 -28.609375 56.8125 -28.796875 Z M 40.5625 -27.265625 C 41.019531 -27.585938 41.457031 -27.75 41.875 -27.75 C 42.425781 -27.75 42.882812 -27.359375 43.25 -26.578125 Z M 4.90625 -23.046875 L 5.53125 -23.453125 C 5.71875 -23.453125 5.878906 -23.085938 6.015625 -22.359375 C 6.066406 -22.035156 6.09375 -21.753906 6.09375 -21.515625 C 6.09375 -21.148438 6 -20.851562 5.8125 -20.625 C 5.625 -20.625 5.414062 -21.269531 5.1875 -22.5625 Z M 24.5625 -13.21875 L 24.921875 -12.453125 L 24.21875 -12.25 Z M 35.4375 -10.3125 L 36.75 -10.3125 C 36.75 -10.082031 36.054688 -9.664062 34.671875 -9.0625 C 34.023438 -9.289062 33.703125 -9.546875 33.703125 -9.828125 C 33.703125 -10.109375 34.164062 -10.429688 35.09375 -10.796875 Z M 9.828125 -5.46875 L 9.546875 -4.78125 L 9 -5.265625 Z M 44.703125 -2.625 L 45.265625 -2.625 L 45.125 -2.078125 C 45.125 -1.753906 45.304688 -1.476562 45.671875 -1.25 L 44.921875 -0.484375 L 43.953125 -0.484375 L 43.734375 -1.875 Z M 44.703125 -2.625 "/></g></g></g><g fill="#000000" fill-opacity="1"><g transform="translate(259.56879, 310.300377)"><g><path d="M 5.046875 -0.96875 C 4.492188 -3.132812 4.21875 -5.234375 4.21875 -7.265625 C 4.21875 -9.523438 4.445312 -11.328125 4.90625 -12.671875 L 4.359375 -13.703125 L 5.046875 -14.25 L 5.125 -15.921875 C 5.125 -17.671875 4.800781 -18.59375 4.15625 -18.6875 L 4.15625 -19.515625 C 4.75 -19.835938 5.046875 -21.148438 5.046875 -23.453125 L 5.046875 -23.953125 C 5.691406 -23.953125 6.203125 -24.226562 6.578125 -24.78125 C 7.359375 -24.269531 8.210938 -24.015625 9.140625 -24.015625 C 10.203125 -24.015625 11.03125 -24.175781 11.625 -24.5 C 12.550781 -23.300781 13.015625 -21.523438 13.015625 -19.171875 L 12.875 -16.75 L 13.703125 -16.46875 L 12.875 -15.09375 C 14.4375 -15.09375 16.023438 -14.5625 17.640625 -13.5 L 18.40625 -14.125 L 19.453125 -13.421875 L 19.234375 -12.59375 C 19.234375 -11.945312 19.507812 -11.207031 20.0625 -10.375 L 25.46875 -11.484375 L 28.375 -10.734375 L 30.03125 -10.9375 C 30.675781 -10.9375 31.238281 -10.71875 31.71875 -10.28125 C 32.207031 -9.84375 32.773438 -9.625 33.421875 -9.625 C 34.117188 -9.625 34.953125 -9.96875 35.921875 -10.65625 C 36.515625 -10.332031 37.179688 -10.171875 37.921875 -10.171875 C 38.941406 -10.171875 39.585938 -10.703125 39.859375 -11.765625 L 44.640625 -13.421875 L 44.640625 -13.765625 C 44.640625 -15.148438 45.332031 -16.328125 46.71875 -17.296875 L 46.375 -19.65625 C 46.375 -20.71875 46.71875 -21.25 47.40625 -21.25 L 47.953125 -21.171875 C 47.035156 -24.722656 44.429688 -26.847656 40.140625 -27.546875 C 39.035156 -28.648438 37.695312 -29.203125 36.125 -29.203125 C 35.113281 -29.203125 34.445312 -29.109375 34.125 -28.921875 L 32.671875 -30.3125 C 31.648438 -29.570312 30.445312 -29.203125 29.0625 -29.203125 L 26.921875 -29.484375 L 27.265625 -27.953125 C 25.191406 -29.617188 23.070312 -30.453125 20.90625 -30.453125 L 19.171875 -30.3125 L 17.921875 -32.046875 L 17.296875 -29.96875 C 16.097656 -31.90625 14.484375 -32.875 12.453125 -32.875 L 11.625 -32.796875 L 10.453125 -33.90625 L 11 -35.015625 L 8.375 -35.578125 C 7.445312 -36.492188 6.867188 -37.945312 6.640625 -39.9375 L 5.671875 -39.171875 L 5.75 -40.96875 C 5.75 -43.1875 5.304688 -44.429688 4.421875 -44.703125 L 4.5 -48.578125 C 5.507812 -48.578125 6.289062 -49.6875 6.84375 -51.90625 L 7.6875 -51.5625 L 8.921875 -54.953125 L 9.484375 -54.8125 C 9.753906 -54.8125 9.890625 -55.019531 9.890625 -55.4375 L 9.828125 -56.0625 L 12.53125 -56.609375 C 12.707031 -57.898438 13.601562 -58.734375 15.21875 -59.109375 L 15.015625 -59.859375 L 15.703125 -59.65625 C 16.078125 -59.65625 16.265625 -59.882812 16.265625 -60.34375 L 16.1875 -60.828125 L 18.40625 -60.625 C 19.238281 -60.625 19.953125 -60.726562 20.546875 -60.9375 C 21.148438 -61.144531 21.691406 -61.382812 22.171875 -61.65625 C 22.660156 -61.9375 23.097656 -62.179688 23.484375 -62.390625 C 23.878906 -62.597656 24.285156 -62.703125 24.703125 -62.703125 C 25.210938 -62.703125 25.707031 -62.5625 26.1875 -62.28125 C 26.675781 -62.007812 27.382812 -61.875 28.3125 -61.875 L 30.859375 -62.140625 C 32.617188 -61.085938 33.910156 -60.5625 34.734375 -60.5625 C 35.296875 -60.5625 35.691406 -60.742188 35.921875 -61.109375 L 37.4375 -60.28125 C 37.4375 -59.257812 39.535156 -58.242188 43.734375 -57.234375 L 43.53125 -56.46875 C 43.53125 -55.78125 44.195312 -55.367188 45.53125 -55.234375 C 46.914062 -59.335938 49.914062 -61.390625 54.53125 -61.390625 C 55.320312 -61.390625 55.75 -61.191406 55.8125 -60.796875 C 55.882812 -60.398438 55.921875 -59.953125 55.921875 -59.453125 C 55.921875 -58.066406 55.757812 -57.023438 55.4375 -56.328125 C 56.03125 -55.453125 56.328125 -54.597656 56.328125 -53.765625 C 56.328125 -53.171875 56.164062 -52.644531 55.84375 -52.1875 L 57.578125 -52.3125 C 55.734375 -49.914062 54.8125 -47.378906 54.8125 -44.703125 C 55.78125 -44.703125 56.265625 -43.847656 56.265625 -42.140625 L 56.0625 -40 L 55.15625 -40.140625 C 54.644531 -39.585938 53.859375 -39.3125 52.796875 -39.3125 L 51.21875 -39.453125 C 50.101562 -42.265625 49.085938 -43.671875 48.171875 -43.671875 L 47.609375 -43.46875 L 47.609375 -43.8125 C 47.609375 -44.5 47.21875 -44.890625 46.4375 -44.984375 L 46.578125 -45.890625 C 46.578125 -46.296875 46.460938 -46.5 46.234375 -46.5 L 45.8125 -46.375 L 45.53125 -48.03125 C 44.101562 -49.320312 42.351562 -49.96875 40.28125 -49.96875 L 39.859375 -49.96875 C 38.984375 -51.675781 37.53125 -52.53125 35.5 -52.53125 L 34.734375 -52.453125 C 33.679688 -53.515625 32.875 -54.046875 32.3125 -54.046875 C 31.757812 -54.046875 31.460938 -53.628906 31.421875 -52.796875 C 29.253906 -53.910156 27.289062 -54.46875 25.53125 -54.46875 C 22.945312 -54.46875 20.757812 -53.3125 18.96875 -51 L 18.484375 -51 C 16.910156 -51 15.640625 -50.101562 14.671875 -48.3125 C 15.316406 -47.382812 15.640625 -46.597656 15.640625 -45.953125 C 15.640625 -44.984375 15.109375 -44.109375 14.046875 -43.328125 L 17.03125 -39.71875 L 20.28125 -40.484375 L 18.546875 -38.890625 C 19.554688 -38.296875 20.59375 -38 21.65625 -38 C 22.445312 -38 23.300781 -38.203125 24.21875 -38.609375 C 28.320312 -37.554688 30.90625 -37.03125 31.96875 -37.03125 C 32.988281 -37.03125 33.546875 -37.28125 33.640625 -37.78125 L 35.015625 -37.234375 C 35.660156 -35.753906 36.398438 -35.015625 37.234375 -35.015625 L 38.40625 -37.234375 L 38.609375 -35.015625 C 39.210938 -35.335938 40.140625 -35.5 41.390625 -35.5 C 43.460938 -35.5 45.375 -35.0625 47.125 -34.1875 L 48.859375 -34.734375 C 50.015625 -32.660156 51.859375 -31.625 54.390625 -31.625 L 55.296875 -31.703125 L 53.703125 -30.03125 L 55.921875 -30.515625 C 55.921875 -28.859375 56.75 -27.40625 58.40625 -26.15625 L 58.40625 -25.8125 C 58.40625 -24.800781 58.914062 -23.992188 59.9375 -23.390625 L 59.9375 -20.34375 L 58.890625 -19.3125 L 58.625 -17.296875 L 60 -16.546875 C 58.570312 -15.660156 57.859375 -14.226562 57.859375 -12.25 L 57.859375 -12.046875 C 55.046875 -11.816406 53.335938 -10.613281 52.734375 -8.4375 L 53.703125 -7.609375 C 52.046875 -7.378906 51.191406 -6.273438 51.140625 -4.296875 L 49.765625 -4.5625 L 50.171875 -3.25 L 48.859375 -3.453125 L 48.171875 0.34375 L 47.609375 -2.078125 L 45.671875 -2.28125 C 43.554688 -2.28125 41.617188 -1.472656 39.859375 0.140625 L 38.828125 0 C 37.710938 0 36.554688 0.53125 35.359375 1.59375 L 35.640625 0.625 C 35.640625 0.25 35.429688 0.0625 35.015625 0.0625 L 34.734375 0.140625 L 34.875 0.546875 C 34.875 1.191406 34.019531 1.515625 32.3125 1.515625 L 32.046875 1.515625 C 31.816406 0.0859375 30.914062 -0.738281 29.34375 -0.96875 C 29.0625 -0.226562 28.140625 0.140625 26.578125 0.140625 L 26.015625 0.140625 C 25.609375 -1.796875 23.925781 -2.992188 20.96875 -3.453125 L 21.171875 -2.421875 C 21.171875 -1.773438 20.800781 -1.453125 20.0625 -1.453125 L 18.546875 -1.734375 L 19.03125 -3.453125 L 16.75 -2.078125 C 16.46875 -3.046875 16.050781 -3.53125 15.5 -3.53125 C 15.082031 -3.53125 14.644531 -3.320312 14.1875 -2.90625 L 13.421875 -4.015625 C 12.273438 -3.140625 11.378906 -1.847656 10.734375 -0.140625 Z M 5.046875 -0.96875 "/></g></g></g><g fill="#000000" fill-opacity="1"><g transform="translate(322.54613, 310.300377)"><g><path d="M 24.640625 -63.390625 L 27.40625 -63.59375 C 29.113281 -63.59375 30.382812 -63.429688 31.21875 -63.109375 L 33.015625 -63.734375 C 33.609375 -63.140625 34.320312 -62.84375 35.15625 -62.84375 C 35.9375 -62.84375 36.859375 -63.1875 37.921875 -63.875 L 37.921875 -63.46875 C 37.921875 -61.9375 38.59375 -61.171875 39.9375 -61.171875 L 40.625 -61.25 C 41.40625 -61.25 42.035156 -61.097656 42.515625 -60.796875 C 43.003906 -60.492188 43.429688 -60.132812 43.796875 -59.71875 C 44.171875 -59.3125 44.53125 -58.882812 44.875 -58.4375 C 45.226562 -58 45.632812 -57.644531 46.09375 -57.375 C 47.007812 -56.957031 47.789062 -55.664062 48.4375 -53.5 L 51.484375 -52.109375 L 51.484375 -51.765625 C 51.484375 -51.078125 51.5625 -50.546875 51.71875 -50.171875 C 51.882812 -49.804688 52.070312 -49.492188 52.28125 -49.234375 C 52.488281 -48.984375 52.671875 -48.742188 52.828125 -48.515625 C 52.992188 -48.285156 53.078125 -47.9375 53.078125 -47.46875 L 53.015625 -46.78125 C 53.015625 -45.769531 53.660156 -44.476562 54.953125 -42.90625 L 54.46875 -41.3125 L 54.53125 -38.546875 L 56.203125 -35.78125 L 56.40625 -33.84375 C 56.40625 -32.269531 56.054688 -30.703125 55.359375 -29.140625 L 55.359375 -25.53125 C 55.960938 -24.382812 56.265625 -23.09375 56.265625 -21.65625 L 56.203125 -20.546875 C 53.609375 -18.890625 52.175781 -16.585938 51.90625 -13.640625 C 51.625 -10.679688 48.441406 -6.988281 42.359375 -2.5625 L 37.640625 -2.5625 C 36.171875 -0.945312 34.582031 -0.140625 32.875 -0.140625 C 32.363281 -0.140625 31.851562 -0.21875 31.34375 -0.375 C 30.84375 -0.539062 30.289062 -0.710938 29.6875 -0.890625 C 29.09375 -1.078125 28.445312 -1.25 27.75 -1.40625 C 27.0625 -1.570312 26.28125 -1.65625 25.40625 -1.65625 L 20.34375 -1.171875 L 14.125 -5.265625 L 14.671875 -7.265625 L 11.421875 -7.890625 L 11.703125 -8.859375 C 11.703125 -9.179688 11.539062 -9.34375 11.21875 -9.34375 L 10.515625 -9.203125 C 10.242188 -10.398438 9.550781 -11.53125 8.4375 -12.59375 L 9.625 -14.609375 L 8.03125 -14.734375 L 8.03125 -15.15625 C 8.03125 -16.40625 7.890625 -17.476562 7.609375 -18.375 C 7.335938 -19.269531 7.050781 -20.03125 6.75 -20.65625 C 6.445312 -21.28125 6.15625 -21.832031 5.875 -22.3125 C 5.601562 -22.800781 5.46875 -23.253906 5.46875 -23.671875 L 5.53125 -24.21875 C 5.53125 -25.1875 5.023438 -26.664062 4.015625 -28.65625 L 5.265625 -29.765625 L 3.875 -29.96875 C 4.519531 -31.164062 4.84375 -32.226562 4.84375 -33.15625 L 4.21875 -35.84375 C 4.21875 -35.988281 4.265625 -36.117188 4.359375 -36.234375 C 4.453125 -36.347656 4.546875 -36.566406 4.640625 -36.890625 C 4.734375 -37.210938 4.835938 -37.679688 4.953125 -38.296875 C 5.066406 -38.921875 5.144531 -39.835938 5.1875 -41.046875 C 5.28125 -43.347656 5.441406 -44.5 5.671875 -44.5 L 6.234375 -43.953125 C 6.316406 -43.953125 6.453125 -44.179688 6.640625 -44.640625 C 6.828125 -45.097656 6.921875 -45.648438 6.921875 -46.296875 L 6.359375 -48.796875 C 6.503906 -49.390625 6.703125 -50.03125 6.953125 -50.71875 C 7.203125 -51.414062 7.476562 -52.0625 7.78125 -52.65625 C 8.082031 -53.257812 8.414062 -53.753906 8.78125 -54.140625 C 9.15625 -54.535156 9.550781 -54.734375 9.96875 -54.734375 C 10.332031 -54.734375 10.703125 -54.550781 11.078125 -54.1875 L 11.078125 -55.71875 L 16.75 -58.203125 L 16.75 -59.859375 L 18.265625 -59.03125 C 20.109375 -61.570312 22.234375 -63.023438 24.640625 -63.390625 Z M 32.9375 -52.9375 L 31.828125 -52.109375 C 30.722656 -52.429688 29.410156 -52.59375 27.890625 -52.59375 C 25.347656 -52.59375 23.941406 -51.765625 23.671875 -50.109375 C 23.390625 -48.765625 22.898438 -47.847656 22.203125 -47.359375 C 21.515625 -46.878906 20.8125 -46.515625 20.09375 -46.265625 C 19.382812 -46.015625 18.753906 -45.703125 18.203125 -45.328125 C 17.648438 -44.960938 17.375 -44.25 17.375 -43.1875 L 17.4375 -43.109375 C 17.4375 -42.285156 17.367188 -41.550781 17.234375 -40.90625 C 17.097656 -40.257812 16.9375 -39.671875 16.75 -39.140625 C 16.5625 -38.609375 16.398438 -38.109375 16.265625 -37.640625 C 16.128906 -37.179688 16.0625 -36.722656 16.0625 -36.265625 L 16.609375 -32.875 L 16.1875 -30.515625 L 16.609375 -27.609375 L 16.0625 -21.453125 C 16.0625 -18.773438 17.28125 -16.742188 19.71875 -15.359375 C 20.832031 -15.128906 21.648438 -14.738281 22.171875 -14.1875 C 22.703125 -13.632812 23.117188 -13.066406 23.421875 -12.484375 C 23.722656 -11.910156 24 -11.40625 24.25 -10.96875 C 24.507812 -10.53125 24.960938 -10.3125 25.609375 -10.3125 L 30.734375 -11.484375 C 31.234375 -11.484375 31.691406 -11.398438 32.109375 -11.234375 C 32.523438 -11.078125 32.914062 -10.894531 33.28125 -10.6875 C 33.65625 -10.476562 34.015625 -10.289062 34.359375 -10.125 C 34.703125 -9.96875 35.0625 -9.890625 35.4375 -9.890625 C 35.894531 -9.890625 36.398438 -10.015625 36.953125 -10.265625 C 37.503906 -10.523438 38.007812 -10.835938 38.46875 -11.203125 C 38.9375 -11.578125 39.320312 -11.945312 39.625 -12.3125 C 39.925781 -12.6875 40.078125 -12.988281 40.078125 -13.21875 C 40.078125 -13.5 39.914062 -13.726562 39.59375 -13.90625 C 43.320312 -15.664062 45.347656 -18.894531 45.671875 -23.59375 L 46.71875 -22.90625 L 45.40625 -27.34375 L 45.53125 -29.28125 L 47.828125 -28.3125 C 47.410156 -29.320312 46.691406 -29.96875 45.671875 -30.25 C 46.546875 -31.257812 46.984375 -32.316406 46.984375 -33.421875 C 46.984375 -34.535156 46.546875 -35.597656 45.671875 -36.609375 L 45.8125 -37.859375 C 45.8125 -38.640625 45.640625 -39.257812 45.296875 -39.71875 C 44.953125 -40.1875 44.78125 -40.878906 44.78125 -41.796875 L 44.84375 -43.1875 C 44.84375 -43.875 44.597656 -44.414062 44.109375 -44.8125 C 43.628906 -45.207031 43.078125 -45.566406 42.453125 -45.890625 C 41.835938 -46.210938 41.265625 -46.566406 40.734375 -46.953125 C 40.203125 -47.347656 39.890625 -47.914062 39.796875 -48.65625 C 39.609375 -50.039062 38.15625 -50.914062 35.4375 -51.28125 L 35.5 -50.65625 C 35.5 -48.851562 33.976562 -47.953125 30.9375 -47.953125 L 30.734375 -47.953125 C 31.835938 -48.515625 32.390625 -49.046875 32.390625 -49.546875 C 32.390625 -49.867188 32.179688 -50.171875 31.765625 -50.453125 C 33.472656 -50.492188 34.328125 -50.675781 34.328125 -51 C 34.328125 -51.28125 33.863281 -51.601562 32.9375 -51.96875 Z M 32.9375 -52.9375 "/></g></g></g><g fill="#000000" fill-opacity="1"><g transform="translate(385.52347, 310.300377)"><g><path d="M 32.046875 -80.765625 C 33.335938 -80.023438 34.878906 -79.65625 36.671875 -79.65625 L 38.546875 -79.796875 L 38.125 -76.8125 C 38.125 -76.082031 38.226562 -75.414062 38.4375 -74.8125 C 38.644531 -74.207031 38.890625 -73.675781 39.171875 -73.21875 C 39.453125 -72.757812 39.691406 -72.332031 39.890625 -71.9375 C 40.097656 -71.550781 40.203125 -71.195312 40.203125 -70.875 C 40.203125 -70.457031 40.039062 -70.109375 39.71875 -69.828125 C 39.394531 -69.546875 39.234375 -69.082031 39.234375 -68.4375 C 39.234375 -67.613281 39.394531 -66.898438 39.71875 -66.296875 L 38.546875 -63.671875 L 38.125 -53.421875 C 39.425781 -52.316406 40.078125 -51.507812 40.078125 -51 C 40.078125 -50.675781 39.84375 -50.492188 39.375 -50.453125 C 39.050781 -48.972656 38.804688 -47.585938 38.640625 -46.296875 C 38.484375 -45.003906 38.40625 -43.804688 38.40625 -42.703125 C 38.40625 -40.441406 38.632812 -38.710938 39.09375 -37.515625 L 38.546875 -34.328125 C 39.148438 -33.453125 39.453125 -32.503906 39.453125 -31.484375 C 39.453125 -30.472656 39.148438 -29.457031 38.546875 -28.4375 L 39.71875 -27.890625 L 39.71875 -23.25 L 38.546875 -23.53125 L 38.546875 -14.953125 L 40.203125 -13.359375 L 39.71875 -9.96875 L 40 -9.96875 C 41.476562 -9.96875 42.472656 -9.207031 42.984375 -7.6875 C 45.191406 -8.101562 47.148438 -8.3125 48.859375 -8.3125 C 53.890625 -8.3125 56.679688 -6.460938 57.234375 -2.765625 L 54.8125 0.203125 L 43.8125 0.203125 L 43.59375 1.453125 L 42.015625 -0.34375 L 38.125 0.203125 L 37.71875 -1.796875 L 34.875 -0.140625 C 33.90625 0.179688 32.726562 0.34375 31.34375 0.34375 C 29.6875 0.34375 28.28125 -0.0234375 27.125 -0.765625 L 21.03125 0.546875 C 19.695312 0.140625 18.242188 -0.0625 16.671875 -0.0625 L 13.359375 0.203125 C 12.660156 -0.859375 11.597656 -1.390625 10.171875 -1.390625 C 9.066406 -1.390625 8.164062 -1.226562 7.46875 -0.90625 L 6.84375 -1.734375 C 7.082031 -3.441406 7.894531 -4.984375 9.28125 -6.359375 C 11.539062 -6.503906 12.671875 -7.015625 12.671875 -7.890625 L 12.59375 -8.234375 C 13.5625 -7.910156 14.878906 -7.75 16.546875 -7.75 L 21.03125 -8.3125 L 21.59375 -7.546875 C 23.019531 -8.972656 24.378906 -9.6875 25.671875 -9.6875 L 27.125 -9.34375 L 29.625 -14.609375 L 29.625 -16.890625 C 28.976562 -19.472656 28.65625 -21.753906 28.65625 -23.734375 C 28.65625 -26.867188 29.09375 -29.753906 29.96875 -32.390625 C 29.320312 -33.585938 29 -34.648438 29 -35.578125 C 29 -36.398438 29.320312 -37.207031 29.96875 -38 L 29.625 -43.25 L 28.375 -42.5625 L 28.375 -48.4375 L 29.625 -48.171875 L 29.625 -49.140625 C 29.625 -51.253906 29.207031 -52.566406 28.375 -53.078125 C 29.0625 -54.785156 29.476562 -56.882812 29.625 -59.375 L 28.578125 -59.3125 L 28.515625 -61.109375 C 28.515625 -62.953125 28.722656 -64.957031 29.140625 -67.125 L 27.0625 -68.71875 C 28.71875 -68.769531 29.546875 -69 29.546875 -69.40625 C 29.546875 -69.457031 29.460938 -69.570312 29.296875 -69.75 C 29.140625 -69.9375 28.957031 -70.132812 28.75 -70.34375 C 28.539062 -70.550781 28.351562 -70.78125 28.1875 -71.03125 C 28.03125 -71.289062 27.953125 -71.535156 27.953125 -71.765625 L 27.953125 -71.90625 C 27.265625 -72.1875 26.550781 -72.328125 25.8125 -72.328125 L 23.453125 -71.90625 C 22.484375 -73.238281 21.472656 -73.90625 20.421875 -73.90625 C 19.816406 -73.90625 19.222656 -73.753906 18.640625 -73.453125 C 18.066406 -73.160156 17.503906 -73.015625 16.953125 -73.015625 C 16.304688 -73.015625 15.71875 -73.1875 15.1875 -73.53125 C 14.65625 -73.875 13.835938 -74.046875 12.734375 -74.046875 C 11.441406 -74.046875 9.734375 -73.769531 7.609375 -73.21875 L 8.375 -75.359375 C 8.375 -75.867188 8.117188 -76.125 7.609375 -76.125 L 5.609375 -75.5 L 5.609375 -77.4375 L 9.34375 -80.828125 L 10.25 -79.515625 L 15.78125 -80.421875 L 16.75 -81.390625 L 17.78125 -80.078125 L 18.6875 -81.171875 L 19.9375 -81.171875 L 20.625 -80.078125 C 21.3125 -80.398438 22.347656 -80.5625 23.734375 -80.5625 C 24.753906 -80.5625 26.160156 -80.304688 27.953125 -79.796875 C 28.140625 -78.921875 28.394531 -78.484375 28.71875 -78.484375 C 28.945312 -78.484375 29.25 -79.242188 29.625 -80.765625 Z M 32.046875 -80.765625 "/></g></g></g><g fill="#000000" fill-opacity="1"><g transform="translate(448.500822, 310.300377)"><g><path d="M 53.359375 -52.875 L 53.015625 -52.875 L 53.15625 -52.1875 C 53.15625 -51.488281 52.625 -50.796875 51.5625 -50.109375 L 51 -45.890625 C 51 -45.191406 51.066406 -44.585938 51.203125 -44.078125 C 51.347656 -43.578125 51.488281 -43.082031 51.625 -42.59375 C 51.757812 -42.113281 51.894531 -41.617188 52.03125 -41.109375 C 52.175781 -40.597656 52.25 -40 52.25 -39.3125 C 52.25 -38.382812 52.0625 -37.332031 51.6875 -36.15625 C 51.320312 -34.976562 51.140625 -33.882812 51.140625 -32.875 C 51.140625 -31.207031 51.738281 -29.640625 52.9375 -28.171875 L 52.9375 -24.921875 C 51.601562 -22.742188 50.9375 -20.847656 50.9375 -19.234375 C 50.9375 -17.765625 51.421875 -16.40625 52.390625 -15.15625 L 51.625 -10.859375 L 53.703125 -13.765625 L 58.6875 -10.3125 L 57.859375 -5.53125 L 56.40625 -5.671875 L 58 -2.765625 C 57.445312 -0.691406 56.222656 0.34375 54.328125 0.34375 L 52.671875 0.140625 L 50.109375 0.765625 L 47.75 -0.546875 C 47.238281 -0.046875 46.523438 0.203125 45.609375 0.203125 L 42.28125 -0.546875 C 41.457031 -3.453125 40.742188 -4.90625 40.140625 -4.90625 C 39.722656 -4.90625 39.351562 -4.007812 39.03125 -2.21875 L 36.265625 -0.828125 L 33.984375 -2.421875 L 33.5625 -1.3125 L 30.109375 1.59375 L 28.65625 -0.6875 L 27.6875 1.796875 L 23.953125 0.828125 C 23.578125 1.472656 23.132812 1.796875 22.625 1.796875 C 22.300781 1.796875 21.929688 1.632812 21.515625 1.3125 C 21.109375 0.988281 20.679688 0.628906 20.234375 0.234375 C 19.796875 -0.148438 19.367188 -0.503906 18.953125 -0.828125 C 18.546875 -1.148438 18.179688 -1.3125 17.859375 -1.3125 L 15.84375 -0.625 C 15.0625 -0.625 14.234375 -1.0625 13.359375 -1.9375 C 11.421875 -2.03125 9.804688 -2.929688 8.515625 -4.640625 L 7.890625 -8.578125 L 9.0625 -11.421875 C 7.726562 -11.691406 7.0625 -13.695312 7.0625 -17.4375 L 7.203125 -20.90625 L 8.796875 -22.625 C 8.003906 -23.414062 7.609375 -24.019531 7.609375 -24.4375 C 7.609375 -24.9375 8.046875 -25.210938 8.921875 -25.265625 L 8.859375 -28.578125 L 8.09375 -28.4375 C 7.863281 -28.4375 7.75 -28.898438 7.75 -29.828125 C 7.75 -30.660156 8.140625 -32.644531 8.921875 -35.78125 L 8.921875 -38.40625 C 8.328125 -38.457031 8.03125 -38.828125 8.03125 -39.515625 C 8.03125 -40.117188 8.238281 -40.972656 8.65625 -42.078125 L 8.65625 -44.015625 L 6.984375 -43.875 L 8.578125 -48.65625 C 8.160156 -52.113281 6.222656 -54.304688 2.765625 -55.234375 L 2.140625 -58.484375 L 3.671875 -61.453125 L 6.09375 -62.015625 L 8.796875 -61.453125 C 10.085938 -62.003906 11.492188 -62.28125 13.015625 -62.28125 C 14.398438 -62.28125 15.898438 -62.003906 17.515625 -61.453125 L 20.484375 -63.046875 C 20.484375 -62.398438 21.222656 -61.753906 22.703125 -61.109375 C 23.535156 -59.773438 23.953125 -58.414062 23.953125 -57.03125 C 23.953125 -55.832031 23.71875 -54.789062 23.25 -53.90625 C 20.4375 -53.863281 19.03125 -52.894531 19.03125 -51 L 19.375 -49.140625 C 18.457031 -47.941406 18 -46.925781 18 -46.09375 C 18 -45.21875 18.484375 -44.476562 19.453125 -43.875 L 20.0625 -40.6875 C 19.09375 -38.75 18.609375 -37.160156 18.609375 -35.921875 C 18.609375 -34.347656 19.460938 -33.425781 21.171875 -33.15625 L 18 -26.859375 L 19.859375 -26.859375 L 19.9375 -20 C 19.332031 -20.457031 18.820312 -20.6875 18.40625 -20.6875 C 17.851562 -20.6875 17.578125 -20.226562 17.578125 -19.3125 L 17.640625 -18.609375 L 18.546875 -18.75 C 19.421875 -18.75 19.859375 -18.148438 19.859375 -16.953125 C 19.859375 -15.796875 19.695312 -14.804688 19.375 -13.984375 C 20.25 -10.753906 21.863281 -9.140625 24.21875 -9.140625 L 24.5625 -9.140625 L 24.78125 -10.453125 C 25.5625 -10.128906 26.617188 -9.96875 27.953125 -9.96875 C 30.492188 -9.96875 32.710938 -11.003906 34.609375 -13.078125 L 37.234375 -12.109375 L 38.484375 -15.84375 C 39.910156 -16.71875 40.625 -17.828125 40.625 -19.171875 L 40.484375 -20.28125 C 41.910156 -22.257812 42.625 -23.664062 42.625 -24.5 C 42.625 -24.6875 42.554688 -24.820312 42.421875 -24.90625 C 42.285156 -25 42.125 -25.09375 41.9375 -25.1875 C 41.75 -25.28125 41.585938 -25.394531 41.453125 -25.53125 C 41.316406 -25.675781 41.25 -25.910156 41.25 -26.234375 L 41.53125 -27.890625 C 41.53125 -29.046875 41.113281 -30.566406 40.28125 -32.453125 C 41.34375 -34.859375 41.875 -36.453125 41.875 -37.234375 C 41.875 -38.472656 41.179688 -39.09375 39.796875 -39.09375 L 41.171875 -41.046875 C 40.523438 -41.828125 40.203125 -42.835938 40.203125 -44.078125 C 40.203125 -45.285156 40.484375 -46.71875 41.046875 -48.375 L 39.234375 -49.96875 L 38.828125 -52.25 L 37.09375 -52.046875 C 34.28125 -52.046875 32.875 -53.984375 32.875 -57.859375 C 32.875 -58.273438 32.988281 -58.664062 33.21875 -59.03125 C 33.445312 -59.40625 33.734375 -59.765625 34.078125 -60.109375 C 34.429688 -60.453125 34.800781 -60.804688 35.1875 -61.171875 C 35.582031 -61.546875 35.941406 -61.960938 36.265625 -62.421875 L 40.484375 -61.875 C 42.703125 -61.875 44.640625 -62.101562 46.296875 -62.5625 L 48.171875 -60.765625 C 50.054688 -61.960938 51.625 -62.5625 52.875 -62.5625 C 54.582031 -62.5625 55.78125 -61.523438 56.46875 -59.453125 C 56.332031 -55.066406 55.296875 -52.875 53.359375 -52.875 Z M 53.359375 -52.875 "/></g></g></g><g fill="#000000" fill-opacity="1"><g transform="translate(511.478173, 310.300377)"><g><path d="M 23.453125 -12.109375 L 20.96875 -14.53125 L 23.53125 -16.1875 L 21.390625 -18.609375 L 21.171875 -22 C 21.171875 -24.769531 21.65625 -27.054688 22.625 -28.859375 L 21.515625 -30.3125 L 22.96875 -35.984375 C 21.726562 -37.140625 21.109375 -38.25 21.109375 -39.3125 C 21.109375 -40.414062 21.9375 -41.359375 23.59375 -42.140625 L 21.3125 -47.265625 C 22.09375 -48.460938 22.484375 -49.335938 22.484375 -49.890625 C 22.484375 -50.210938 22.390625 -50.453125 22.203125 -50.609375 C 22.023438 -50.773438 21.820312 -50.9375 21.59375 -51.09375 C 21.363281 -51.257812 21.15625 -51.421875 20.96875 -51.578125 C 20.78125 -51.742188 20.6875 -51.988281 20.6875 -52.3125 L 20.96875 -53.21875 L 16.46875 -53.21875 C 15.363281 -53.769531 14.28125 -54.046875 13.21875 -54.046875 C 11.644531 -54.046875 10.078125 -53.46875 8.515625 -52.3125 C 6.484375 -53.375 5.46875 -54.460938 5.46875 -55.578125 L 5.53125 -56.125 L 6.578125 -56.546875 L 5.953125 -59.65625 L 9.28125 -62.078125 L 12.109375 -60.90625 L 15.015625 -61.046875 C 15.203125 -61.921875 15.941406 -62.359375 17.234375 -62.359375 L 21.59375 -61.3125 C 22.144531 -61.3125 22.421875 -61.632812 22.421875 -62.28125 L 22.359375 -62.90625 L 23.875 -63.53125 L 21.796875 -68.921875 L 24.78125 -68.65625 L 21.9375 -72.25 C 22.582031 -73.445312 22.90625 -75.0625 22.90625 -77.09375 L 22.140625 -83.953125 L 25.953125 -83.1875 C 26.140625 -85.257812 27.203125 -86.296875 29.140625 -86.296875 C 30.148438 -86.296875 31.394531 -86.019531 32.875 -85.46875 L 32.875 -84.4375 C 32.875 -83.375 32.976562 -82.492188 33.1875 -81.796875 C 33.394531 -81.109375 33.5 -80.441406 33.5 -79.796875 C 33.5 -79.242188 33.101562 -77.972656 32.3125 -75.984375 L 34.53125 -74.875 L 30.9375 -71.625 L 33.765625 -68.921875 L 31.5625 -68.796875 L 33.984375 -66.4375 C 32.597656 -64.957031 31.90625 -63.988281 31.90625 -63.53125 C 31.90625 -63.25 32.113281 -63.109375 32.53125 -63.109375 C 33.175781 -63.109375 33.796875 -63.269531 34.390625 -63.59375 L 34.046875 -59.796875 L 36.1875 -59.515625 L 36.671875 -61.390625 L 39.515625 -60.34375 C 40.535156 -60.894531 41.691406 -61.171875 42.984375 -61.171875 C 43.765625 -61.171875 45.125 -60.921875 47.0625 -60.421875 C 47.519531 -61.160156 48.140625 -61.53125 48.921875 -61.53125 C 49.890625 -61.53125 51.09375 -60.953125 52.53125 -59.796875 L 53.28125 -61.59375 L 56.6875 -57.578125 L 57.296875 -55.640625 C 56.378906 -55.546875 55.921875 -55.203125 55.921875 -54.609375 C 55.921875 -53.910156 56.359375 -52.984375 57.234375 -51.828125 L 54.046875 -52.9375 C 52.710938 -51.875 51.628906 -51.34375 50.796875 -51.34375 C 50.109375 -51.34375 49.625 -51.757812 49.34375 -52.59375 L 47.6875 -51.421875 C 46.71875 -51.972656 45.722656 -52.25 44.703125 -52.25 L 41.875 -51.484375 C 40.8125 -52.273438 39.84375 -52.671875 38.96875 -52.671875 C 38.082031 -52.671875 37.113281 -52.273438 36.0625 -51.484375 L 33.84375 -52.25 C 32.875 -51.320312 32.390625 -50.445312 32.390625 -49.625 L 32.734375 -48.375 L 31.21875 -46.859375 L 33.015625 -45.328125 L 31.34375 -42.625 L 32.734375 -40.90625 L 31.5625 -38.484375 C 32.382812 -37.785156 32.796875 -37.113281 32.796875 -36.46875 C 32.796875 -35.820312 32.382812 -35.203125 31.5625 -34.609375 L 31.5625 -28.4375 L 32.734375 -27.890625 L 32.734375 -23.25 L 31.5625 -23.53125 L 33.015625 -14.734375 L 31.703125 -14.390625 L 32.734375 -11.34375 L 33.015625 -11.34375 C 35.179688 -11.34375 36.265625 -10.90625 36.265625 -10.03125 L 35.984375 -9.0625 L 38.6875 -8.3125 L 38.6875 -9.828125 L 44.015625 -9.828125 L 45.046875 -8.4375 L 47.546875 -9.625 C 48.378906 -12.476562 50.039062 -14.390625 52.53125 -15.359375 L 52.453125 -17.640625 C 52.921875 -18.609375 53.40625 -19.09375 53.90625 -19.09375 C 54.375 -19.09375 54.929688 -18.539062 55.578125 -17.4375 L 57.234375 -16.8125 L 55.84375 -13.421875 L 58.546875 -12.53125 L 56.546875 -8.71875 L 53.28125 -8.578125 L 51.96875 -6.921875 L 56.0625 -7.8125 C 52.738281 -2.738281 47.914062 -0.203125 41.59375 -0.203125 L 40.765625 -0.203125 C 39.742188 0.390625 38.679688 0.6875 37.578125 0.6875 C 36.421875 0.6875 35.269531 0.316406 34.125 -0.421875 L 32.734375 -0.140625 C 30.609375 -0.140625 28.554688 -1.800781 26.578125 -5.125 L 25.328125 -4.90625 C 23.578125 -4.90625 22.539062 -6.363281 22.21875 -9.28125 Z M 23.453125 -12.109375 "/></g></g></g><g fill="#000000" fill-opacity="1"><g transform="translate(574.455525, 310.300377)"><g><path d="M 34.46875 -62.140625 C 34.601562 -60.671875 36.796875 -59.660156 41.046875 -59.109375 C 39.421875 -57.765625 38.609375 -56.539062 38.609375 -55.4375 C 38.609375 -55.113281 38.6875 -54.765625 38.84375 -54.390625 C 39.007812 -54.023438 39.195312 -53.664062 39.40625 -53.3125 C 39.613281 -52.96875 39.796875 -52.632812 39.953125 -52.3125 C 40.117188 -51.988281 40.203125 -51.710938 40.203125 -51.484375 C 40.203125 -51.253906 40.15625 -51.070312 40.0625 -50.9375 C 39.976562 -50.800781 39.863281 -50.628906 39.71875 -50.421875 C 39.582031 -50.210938 39.46875 -49.929688 39.375 -49.578125 C 39.28125 -49.234375 39.234375 -48.765625 39.234375 -48.171875 L 39.71875 -43.53125 L 38.546875 -44.296875 L 38.546875 -38.484375 C 39.378906 -37.785156 39.796875 -37.113281 39.796875 -36.46875 C 39.796875 -35.820312 39.378906 -35.203125 38.546875 -34.609375 L 38.546875 -28.4375 L 39.71875 -27.890625 L 39.71875 -23.25 L 38.546875 -23.53125 L 40 -14.734375 L 38.6875 -14.390625 L 39.71875 -11.34375 L 40 -11.34375 C 42.164062 -11.34375 43.25 -10.90625 43.25 -10.03125 L 42.984375 -9.0625 L 50.65625 -8.4375 L 52.671875 -8.796875 C 55.390625 -8.796875 57.765625 -6.785156 59.796875 -2.765625 L 58.203125 0.96875 L 55.5 -1.65625 L 54.8125 0.203125 C 53.882812 0.523438 52.707031 0.6875 51.28125 0.6875 C 48.789062 0.6875 46.367188 -0.140625 44.015625 -1.796875 L 44.359375 1.25 L 41.109375 -0.421875 L 37.296875 0.96875 L 37.71875 -1.796875 C 35.550781 -0.140625 33.265625 0.6875 30.859375 0.6875 C 29.390625 0.6875 27.59375 0.226562 25.46875 -0.6875 L 21.03125 0.546875 L 13.359375 0.203125 C 12.847656 -0.578125 12.269531 -0.96875 11.625 -0.96875 C 10.84375 -0.96875 9.96875 -0.4375 9 0.625 L 6.84375 -1.734375 L 7.75 -5.875 C 10.976562 -6.289062 12.59375 -7.007812 12.59375 -8.03125 L 19.9375 -9.625 L 21.59375 -8.921875 C 23.019531 -10.359375 24.378906 -11.078125 25.671875 -11.078125 L 27.125 -10.734375 L 29.625 -14.609375 L 29.625 -16.890625 C 28.925781 -19.285156 28.578125 -21.472656 28.578125 -23.453125 C 28.578125 -25.441406 28.925781 -27.242188 29.625 -28.859375 L 28.515625 -30.3125 L 29.96875 -35.984375 C 29.644531 -37.273438 29.410156 -38.460938 29.265625 -39.546875 C 29.128906 -40.628906 29.0625 -41.613281 29.0625 -42.5 C 29.0625 -43.875 29.269531 -44.910156 29.6875 -45.609375 L 28.3125 -46.578125 C 29.09375 -47.773438 29.484375 -48.648438 29.484375 -49.203125 C 29.484375 -49.523438 29.390625 -49.765625 29.203125 -49.921875 C 29.015625 -50.085938 28.804688 -50.25 28.578125 -50.40625 C 28.347656 -50.570312 28.140625 -50.734375 27.953125 -50.890625 C 27.773438 -51.054688 27.6875 -51.300781 27.6875 -51.625 L 27.953125 -52.53125 L 23.453125 -52.53125 C 22.535156 -53.082031 21.546875 -53.359375 20.484375 -53.359375 C 18.867188 -53.359375 17.207031 -52.78125 15.5 -51.625 C 13.46875 -52.6875 12.453125 -53.769531 12.453125 -54.875 L 12.53125 -55.4375 L 13.5625 -55.84375 L 12.53125 -57.375 L 16.265625 -61.390625 L 17.71875 -60.203125 L 20.625 -60.140625 C 21.3125 -60.972656 22.328125 -61.390625 23.671875 -61.390625 C 24.503906 -61.390625 25.929688 -61.066406 27.953125 -60.421875 C 28.191406 -59.628906 28.398438 -59.234375 28.578125 -59.234375 C 28.898438 -59.234375 29.15625 -60.226562 29.34375 -62.21875 Z M 33.84375 -82.90625 L 34.734375 -82.84375 C 36.171875 -82.144531 37.359375 -81.472656 38.296875 -80.828125 C 39.242188 -80.179688 39.992188 -79.535156 40.546875 -78.890625 C 41.109375 -78.242188 41.503906 -77.550781 41.734375 -76.8125 C 41.960938 -76.082031 42.078125 -75.300781 42.078125 -74.46875 C 42.078125 -73.40625 41.945312 -72.363281 41.6875 -71.34375 C 41.4375 -70.332031 41.046875 -69.429688 40.515625 -68.640625 C 39.984375 -67.859375 39.300781 -67.222656 38.46875 -66.734375 C 37.644531 -66.253906 36.65625 -65.992188 35.5 -65.953125 L 30.859375 -63.046875 L 31.90625 -65.890625 C 26.96875 -67.410156 24.5 -69.671875 24.5 -72.671875 L 24.78125 -74.53125 C 24.363281 -74.8125 24.15625 -75.207031 24.15625 -75.71875 C 24.15625 -76.445312 24.363281 -77.125 24.78125 -77.75 C 25.195312 -78.375 25.65625 -78.914062 26.15625 -79.375 C 26.664062 -79.84375 27.140625 -80.191406 27.578125 -80.421875 C 28.015625 -80.648438 28.28125 -80.765625 28.375 -80.765625 L 28.71875 -80.6875 C 29 -80.6875 29.140625 -80.921875 29.140625 -81.390625 L 29.0625 -81.9375 C 29.0625 -82.394531 29.335938 -82.625 29.890625 -82.625 C 30.398438 -82.625 30.847656 -82.460938 31.234375 -82.140625 C 31.628906 -81.816406 31.875 -81.65625 31.96875 -81.65625 C 32.0625 -81.65625 32.140625 -81.722656 32.203125 -81.859375 C 32.273438 -82.003906 32.367188 -82.144531 32.484375 -82.28125 C 32.609375 -82.425781 32.769531 -82.566406 32.96875 -82.703125 C 33.175781 -82.835938 33.46875 -82.90625 33.84375 -82.90625 Z M 33.84375 -82.90625 "/></g></g></g><g fill="#000000" fill-opacity="1"><g transform="translate(637.432876, 310.300377)"><g><path d="M 24.640625 -63.390625 L 27.40625 -63.59375 C 29.113281 -63.59375 30.382812 -63.429688 31.21875 -63.109375 L 33.015625 -63.734375 C 33.609375 -63.140625 34.320312 -62.84375 35.15625 -62.84375 C 35.9375 -62.84375 36.859375 -63.1875 37.921875 -63.875 L 37.921875 -63.46875 C 37.921875 -61.9375 38.59375 -61.171875 39.9375 -61.171875 L 40.625 -61.25 C 41.40625 -61.25 42.035156 -61.097656 42.515625 -60.796875 C 43.003906 -60.492188 43.429688 -60.132812 43.796875 -59.71875 C 44.171875 -59.3125 44.53125 -58.882812 44.875 -58.4375 C 45.226562 -58 45.632812 -57.644531 46.09375 -57.375 C 47.007812 -56.957031 47.789062 -55.664062 48.4375 -53.5 L 51.484375 -52.109375 L 51.484375 -51.765625 C 51.484375 -51.078125 51.5625 -50.546875 51.71875 -50.171875 C 51.882812 -49.804688 52.070312 -49.492188 52.28125 -49.234375 C 52.488281 -48.984375 52.671875 -48.742188 52.828125 -48.515625 C 52.992188 -48.285156 53.078125 -47.9375 53.078125 -47.46875 L 53.015625 -46.78125 C 53.015625 -45.769531 53.660156 -44.476562 54.953125 -42.90625 L 54.46875 -41.3125 L 54.53125 -38.546875 L 56.203125 -35.78125 L 56.40625 -33.84375 C 56.40625 -32.269531 56.054688 -30.703125 55.359375 -29.140625 L 55.359375 -25.53125 C 55.960938 -24.382812 56.265625 -23.09375 56.265625 -21.65625 L 56.203125 -20.546875 C 53.609375 -18.890625 52.175781 -16.585938 51.90625 -13.640625 C 51.625 -10.679688 48.441406 -6.988281 42.359375 -2.5625 L 37.640625 -2.5625 C 36.171875 -0.945312 34.582031 -0.140625 32.875 -0.140625 C 32.363281 -0.140625 31.851562 -0.21875 31.34375 -0.375 C 30.84375 -0.539062 30.289062 -0.710938 29.6875 -0.890625 C 29.09375 -1.078125 28.445312 -1.25 27.75 -1.40625 C 27.0625 -1.570312 26.28125 -1.65625 25.40625 -1.65625 L 20.34375 -1.171875 L 14.125 -5.265625 L 14.671875 -7.265625 L 11.421875 -7.890625 L 11.703125 -8.859375 C 11.703125 -9.179688 11.539062 -9.34375 11.21875 -9.34375 L 10.515625 -9.203125 C 10.242188 -10.398438 9.550781 -11.53125 8.4375 -12.59375 L 9.625 -14.609375 L 8.03125 -14.734375 L 8.03125 -15.15625 C 8.03125 -16.40625 7.890625 -17.476562 7.609375 -18.375 C 7.335938 -19.269531 7.050781 -20.03125 6.75 -20.65625 C 6.445312 -21.28125 6.15625 -21.832031 5.875 -22.3125 C 5.601562 -22.800781 5.46875 -23.253906 5.46875 -23.671875 L 5.53125 -24.21875 C 5.53125 -25.1875 5.023438 -26.664062 4.015625 -28.65625 L 5.265625 -29.765625 L 3.875 -29.96875 C 4.519531 -31.164062 4.84375 -32.226562 4.84375 -33.15625 L 4.21875 -35.84375 C 4.21875 -35.988281 4.265625 -36.117188 4.359375 -36.234375 C 4.453125 -36.347656 4.546875 -36.566406 4.640625 -36.890625 C 4.734375 -37.210938 4.835938 -37.679688 4.953125 -38.296875 C 5.066406 -38.921875 5.144531 -39.835938 5.1875 -41.046875 C 5.28125 -43.347656 5.441406 -44.5 5.671875 -44.5 L 6.234375 -43.953125 C 6.316406 -43.953125 6.453125 -44.179688 6.640625 -44.640625 C 6.828125 -45.097656 6.921875 -45.648438 6.921875 -46.296875 L 6.359375 -48.796875 C 6.503906 -49.390625 6.703125 -50.03125 6.953125 -50.71875 C 7.203125 -51.414062 7.476562 -52.0625 7.78125 -52.65625 C 8.082031 -53.257812 8.414062 -53.753906 8.78125 -54.140625 C 9.15625 -54.535156 9.550781 -54.734375 9.96875 -54.734375 C 10.332031 -54.734375 10.703125 -54.550781 11.078125 -54.1875 L 11.078125 -55.71875 L 16.75 -58.203125 L 16.75 -59.859375 L 18.265625 -59.03125 C 20.109375 -61.570312 22.234375 -63.023438 24.640625 -63.390625 Z M 32.9375 -52.9375 L 31.828125 -52.109375 C 30.722656 -52.429688 29.410156 -52.59375 27.890625 -52.59375 C 25.347656 -52.59375 23.941406 -51.765625 23.671875 -50.109375 C 23.390625 -48.765625 22.898438 -47.847656 22.203125 -47.359375 C 21.515625 -46.878906 20.8125 -46.515625 20.09375 -46.265625 C 19.382812 -46.015625 18.753906 -45.703125 18.203125 -45.328125 C 17.648438 -44.960938 17.375 -44.25 17.375 -43.1875 L 17.4375 -43.109375 C 17.4375 -42.285156 17.367188 -41.550781 17.234375 -40.90625 C 17.097656 -40.257812 16.9375 -39.671875 16.75 -39.140625 C 16.5625 -38.609375 16.398438 -38.109375 16.265625 -37.640625 C 16.128906 -37.179688 16.0625 -36.722656 16.0625 -36.265625 L 16.609375 -32.875 L 16.1875 -30.515625 L 16.609375 -27.609375 L 16.0625 -21.453125 C 16.0625 -18.773438 17.28125 -16.742188 19.71875 -15.359375 C 20.832031 -15.128906 21.648438 -14.738281 22.171875 -14.1875 C 22.703125 -13.632812 23.117188 -13.066406 23.421875 -12.484375 C 23.722656 -11.910156 24 -11.40625 24.25 -10.96875 C 24.507812 -10.53125 24.960938 -10.3125 25.609375 -10.3125 L 30.734375 -11.484375 C 31.234375 -11.484375 31.691406 -11.398438 32.109375 -11.234375 C 32.523438 -11.078125 32.914062 -10.894531 33.28125 -10.6875 C 33.65625 -10.476562 34.015625 -10.289062 34.359375 -10.125 C 34.703125 -9.96875 35.0625 -9.890625 35.4375 -9.890625 C 35.894531 -9.890625 36.398438 -10.015625 36.953125 -10.265625 C 37.503906 -10.523438 38.007812 -10.835938 38.46875 -11.203125 C 38.9375 -11.578125 39.320312 -11.945312 39.625 -12.3125 C 39.925781 -12.6875 40.078125 -12.988281 40.078125 -13.21875 C 40.078125 -13.5 39.914062 -13.726562 39.59375 -13.90625 C 43.320312 -15.664062 45.347656 -18.894531 45.671875 -23.59375 L 46.71875 -22.90625 L 45.40625 -27.34375 L 45.53125 -29.28125 L 47.828125 -28.3125 C 47.410156 -29.320312 46.691406 -29.96875 45.671875 -30.25 C 46.546875 -31.257812 46.984375 -32.316406 46.984375 -33.421875 C 46.984375 -34.535156 46.546875 -35.597656 45.671875 -36.609375 L 45.8125 -37.859375 C 45.8125 -38.640625 45.640625 -39.257812 45.296875 -39.71875 C 44.953125 -40.1875 44.78125 -40.878906 44.78125 -41.796875 L 44.84375 -43.1875 C 44.84375 -43.875 44.597656 -44.414062 44.109375 -44.8125 C 43.628906 -45.207031 43.078125 -45.566406 42.453125 -45.890625 C 41.835938 -46.210938 41.265625 -46.566406 40.734375 -46.953125 C 40.203125 -47.347656 39.890625 -47.914062 39.796875 -48.65625 C 39.609375 -50.039062 38.15625 -50.914062 35.4375 -51.28125 L 35.5 -50.65625 C 35.5 -48.851562 33.976562 -47.953125 30.9375 -47.953125 L 30.734375 -47.953125 C 31.835938 -48.515625 32.390625 -49.046875 32.390625 -49.546875 C 32.390625 -49.867188 32.179688 -50.171875 31.765625 -50.453125 C 33.472656 -50.492188 34.328125 -50.675781 34.328125 -51 C 34.328125 -51.28125 33.863281 -51.601562 32.9375 -51.96875 Z M 32.9375 -52.9375 "/></g></g></g><g fill="#000000" fill-opacity="1"><g transform="translate(700.410228, 310.300377)"><g><path d="M 8.375 0.90625 C 6.25 0.90625 4.703125 -0.109375 3.734375 -2.140625 C 3.867188 -6.523438 5.113281 -8.71875 7.46875 -8.71875 L 7.953125 -8.4375 L 8.375 -9 L 7.75 -9.203125 C 7.75 -9.984375 8.742188 -10.742188 10.734375 -11.484375 L 11.28125 -15.703125 C 11.28125 -16.347656 11.207031 -16.9375 11.0625 -17.46875 C 10.925781 -18 10.789062 -18.503906 10.65625 -18.984375 C 10.519531 -19.472656 10.378906 -19.972656 10.234375 -20.484375 C 10.097656 -20.992188 10.03125 -21.570312 10.03125 -22.21875 C 10.03125 -23.226562 10.226562 -24.367188 10.625 -25.640625 C 11.019531 -26.910156 11.21875 -28.078125 11.21875 -29.140625 C 11.21875 -30.660156 10.820312 -32.085938 10.03125 -33.421875 L 10.03125 -36.671875 C 10.863281 -38.660156 11.28125 -40.765625 11.28125 -42.984375 C 11.28125 -44.546875 10.957031 -46.503906 10.3125 -48.859375 L 11.34375 -50.3125 C 10.882812 -51.1875 10.445312 -51.625 10.03125 -51.625 C 9.613281 -51.625 9.222656 -51.164062 8.859375 -50.25 L 3.875 -51.5625 L 3.875 -56.0625 L 5.1875 -55.921875 L 3.59375 -58.828125 C 4.144531 -60.898438 5.367188 -61.9375 7.265625 -61.9375 L 8.921875 -61.734375 L 11.484375 -62.359375 L 13.84375 -61.046875 C 14.300781 -61.597656 15.015625 -61.875 15.984375 -61.875 C 16.859375 -61.875 17.96875 -61.597656 19.3125 -61.046875 C 20.132812 -58.140625 20.847656 -56.6875 21.453125 -56.6875 C 21.816406 -56.6875 22.1875 -57.582031 22.5625 -59.375 L 24.640625 -59.375 L 26.921875 -57.78125 L 27.34375 -58.890625 L 30.796875 -61.796875 L 32.25 -59.515625 L 33.21875 -62.015625 L 36.953125 -61.046875 C 37.273438 -61.734375 37.710938 -62.078125 38.265625 -62.078125 C 38.585938 -62.078125 38.957031 -61.914062 39.375 -61.59375 C 39.789062 -61.269531 40.21875 -60.898438 40.65625 -60.484375 C 41.09375 -60.066406 41.507812 -59.695312 41.90625 -59.375 C 42.300781 -59.050781 42.660156 -58.890625 42.984375 -58.890625 L 44.984375 -59.59375 C 45.816406 -59.59375 46.671875 -59.148438 47.546875 -58.265625 C 49.484375 -58.179688 51.097656 -57.285156 52.390625 -55.578125 L 53.015625 -51.625 L 51.828125 -48.796875 C 53.535156 -48.472656 54.390625 -45.769531 54.390625 -40.6875 L 52.796875 -38.96875 C 53.585938 -38.175781 53.984375 -37.570312 53.984375 -37.15625 C 53.984375 -36.65625 53.546875 -36.378906 52.671875 -36.328125 L 52.734375 -33.015625 L 53.21875 -33.15625 C 53.632812 -33.15625 53.84375 -32.757812 53.84375 -31.96875 C 53.84375 -31.226562 53.453125 -29.40625 52.671875 -26.5 L 52.671875 -23.875 C 53.265625 -23.832031 53.5625 -23.460938 53.5625 -22.765625 C 53.5625 -22.171875 53.351562 -21.316406 52.9375 -20.203125 L 52.9375 -18.265625 L 54.609375 -18.40625 L 53.015625 -13.640625 C 53.429688 -10.171875 55.140625 -7.976562 58.140625 -7.0625 L 58.75 -3.8125 L 57.234375 -0.828125 C 56.628906 -0.503906 55.890625 -0.34375 55.015625 -0.34375 C 54.140625 -0.34375 53.398438 -0.503906 52.796875 -0.828125 C 51.460938 -0.273438 50.082031 0 48.65625 0 C 47.175781 0 45.648438 -0.273438 44.078125 -0.828125 L 41.109375 0.765625 C 41.109375 0.441406 40.851562 0.1875 40.34375 0 C 39.84375 -0.1875 39.289062 -0.425781 38.6875 -0.71875 C 38.082031 -1.019531 37.523438 -1.484375 37.015625 -2.109375 C 36.515625 -2.734375 36.265625 -3.664062 36.265625 -4.90625 C 36.265625 -6.289062 36.492188 -7.445312 36.953125 -8.375 C 40.648438 -8.46875 42.5 -9.53125 42.5 -11.5625 L 42.21875 -13.15625 C 43.132812 -14.351562 43.59375 -15.363281 43.59375 -16.1875 C 43.59375 -17.019531 43.109375 -17.757812 42.140625 -18.40625 L 41.53125 -21.59375 C 42.5 -23.53125 42.984375 -25.125 42.984375 -26.375 C 42.984375 -27.9375 42.128906 -28.859375 40.421875 -29.140625 L 43.59375 -34.734375 L 41.734375 -34.734375 L 41.65625 -41.59375 C 42.257812 -41.132812 42.769531 -40.90625 43.1875 -40.90625 C 43.644531 -40.90625 43.875 -41.132812 43.875 -41.59375 L 43.875 -41.796875 C 44.101562 -41.984375 44.21875 -42.191406 44.21875 -42.421875 C 44.21875 -42.609375 44.128906 -42.796875 43.953125 -42.984375 L 42.84375 -42.765625 C 41.820312 -42.765625 41.3125 -43.390625 41.3125 -44.640625 L 41.53125 -46.234375 C 40.738281 -49.179688 39.351562 -50.65625 37.375 -50.65625 L 36.890625 -50.65625 L 36.328125 -51.078125 L 36.125 -49.765625 C 35.34375 -50.085938 34.28125 -50.25 32.9375 -50.25 C 30.351562 -50.25 28.140625 -49.207031 26.296875 -47.125 L 23.671875 -48.09375 L 23.109375 -45.75 C 21.679688 -44.875 20.96875 -43.765625 20.96875 -42.421875 L 21.109375 -41.3125 C 20.085938 -39.46875 19.578125 -38.128906 19.578125 -37.296875 L 20.421875 -37.296875 C 20.273438 -37.023438 20.203125 -36.816406 20.203125 -36.671875 C 20.203125 -36.585938 20.25 -36.519531 20.34375 -36.46875 C 20.476562 -36.375 20.625 -36.257812 20.78125 -36.125 C 20.945312 -35.988281 21.03125 -35.757812 21.03125 -35.4375 C 21.175781 -35.207031 21.25 -35 21.25 -34.8125 C 21.25 -34.675781 21.203125 -34.5625 21.109375 -34.46875 C 20.878906 -34.28125 20.765625 -34.023438 20.765625 -33.703125 C 20.765625 -32.503906 21.175781 -30.984375 22 -29.140625 C 20.945312 -26.734375 20.421875 -25.140625 20.421875 -24.359375 C 20.421875 -23.390625 20.742188 -22.90625 21.390625 -22.90625 C 21.523438 -22.90625 21.707031 -22.925781 21.9375 -22.96875 L 22.625 -22.484375 L 21.109375 -20.546875 C 21.617188 -19.898438 21.875 -19.070312 21.875 -18.0625 C 21.875 -16.90625 21.34375 -14.875 20.28125 -11.96875 L 22.484375 -10.9375 L 20.765625 -8.65625 L 21.453125 -8.859375 C 21.546875 -8.671875 21.640625 -8.578125 21.734375 -8.578125 C 21.828125 -8.578125 21.941406 -8.648438 22.078125 -8.796875 C 24.847656 -8.796875 26.804688 -6.691406 27.953125 -2.484375 C 26.753906 -1.660156 25.648438 -0.554688 24.640625 0.828125 C 23.441406 0.460938 22.378906 0.28125 21.453125 0.28125 C 20.671875 0.28125 19.816406 0.335938 18.890625 0.453125 C 17.972656 0.566406 17.003906 0.738281 15.984375 0.96875 L 14.125 -0.828125 L 10.734375 0.90625 Z M 8.375 0.90625 "/></g></g></g><g fill="#000000" fill-opacity="1"><g transform="translate(763.387579, 310.300377)"><g><path d="M 5.046875 -0.96875 C 4.492188 -3.132812 4.21875 -5.234375 4.21875 -7.265625 C 4.21875 -9.523438 4.445312 -11.328125 4.90625 -12.671875 L 4.359375 -13.703125 L 5.046875 -14.25 L 5.125 -15.921875 C 5.125 -17.671875 4.800781 -18.59375 4.15625 -18.6875 L 4.15625 -19.515625 C 4.75 -19.835938 5.046875 -21.148438 5.046875 -23.453125 L 5.046875 -23.953125 C 5.691406 -23.953125 6.203125 -24.226562 6.578125 -24.78125 C 7.359375 -24.269531 8.210938 -24.015625 9.140625 -24.015625 C 10.203125 -24.015625 11.03125 -24.175781 11.625 -24.5 C 12.550781 -23.300781 13.015625 -21.523438 13.015625 -19.171875 L 12.875 -16.75 L 13.703125 -16.46875 L 12.875 -15.09375 C 14.4375 -15.09375 16.023438 -14.5625 17.640625 -13.5 L 18.40625 -14.125 L 19.453125 -13.421875 L 19.234375 -12.59375 C 19.234375 -11.945312 19.507812 -11.207031 20.0625 -10.375 L 25.46875 -11.484375 L 28.375 -10.734375 L 30.03125 -10.9375 C 30.675781 -10.9375 31.238281 -10.71875 31.71875 -10.28125 C 32.207031 -9.84375 32.773438 -9.625 33.421875 -9.625 C 34.117188 -9.625 34.953125 -9.96875 35.921875 -10.65625 C 36.515625 -10.332031 37.179688 -10.171875 37.921875 -10.171875 C 38.941406 -10.171875 39.585938 -10.703125 39.859375 -11.765625 L 44.640625 -13.421875 L 44.640625 -13.765625 C 44.640625 -15.148438 45.332031 -16.328125 46.71875 -17.296875 L 46.375 -19.65625 C 46.375 -20.71875 46.71875 -21.25 47.40625 -21.25 L 47.953125 -21.171875 C 47.035156 -24.722656 44.429688 -26.847656 40.140625 -27.546875 C 39.035156 -28.648438 37.695312 -29.203125 36.125 -29.203125 C 35.113281 -29.203125 34.445312 -29.109375 34.125 -28.921875 L 32.671875 -30.3125 C 31.648438 -29.570312 30.445312 -29.203125 29.0625 -29.203125 L 26.921875 -29.484375 L 27.265625 -27.953125 C 25.191406 -29.617188 23.070312 -30.453125 20.90625 -30.453125 L 19.171875 -30.3125 L 17.921875 -32.046875 L 17.296875 -29.96875 C 16.097656 -31.90625 14.484375 -32.875 12.453125 -32.875 L 11.625 -32.796875 L 10.453125 -33.90625 L 11 -35.015625 L 8.375 -35.578125 C 7.445312 -36.492188 6.867188 -37.945312 6.640625 -39.9375 L 5.671875 -39.171875 L 5.75 -40.96875 C 5.75 -43.1875 5.304688 -44.429688 4.421875 -44.703125 L 4.5 -48.578125 C 5.507812 -48.578125 6.289062 -49.6875 6.84375 -51.90625 L 7.6875 -51.5625 L 8.921875 -54.953125 L 9.484375 -54.8125 C 9.753906 -54.8125 9.890625 -55.019531 9.890625 -55.4375 L 9.828125 -56.0625 L 12.53125 -56.609375 C 12.707031 -57.898438 13.601562 -58.734375 15.21875 -59.109375 L 15.015625 -59.859375 L 15.703125 -59.65625 C 16.078125 -59.65625 16.265625 -59.882812 16.265625 -60.34375 L 16.1875 -60.828125 L 18.40625 -60.625 C 19.238281 -60.625 19.953125 -60.726562 20.546875 -60.9375 C 21.148438 -61.144531 21.691406 -61.382812 22.171875 -61.65625 C 22.660156 -61.9375 23.097656 -62.179688 23.484375 -62.390625 C 23.878906 -62.597656 24.285156 -62.703125 24.703125 -62.703125 C 25.210938 -62.703125 25.707031 -62.5625 26.1875 -62.28125 C 26.675781 -62.007812 27.382812 -61.875 28.3125 -61.875 L 30.859375 -62.140625 C 32.617188 -61.085938 33.910156 -60.5625 34.734375 -60.5625 C 35.296875 -60.5625 35.691406 -60.742188 35.921875 -61.109375 L 37.4375 -60.28125 C 37.4375 -59.257812 39.535156 -58.242188 43.734375 -57.234375 L 43.53125 -56.46875 C 43.53125 -55.78125 44.195312 -55.367188 45.53125 -55.234375 C 46.914062 -59.335938 49.914062 -61.390625 54.53125 -61.390625 C 55.320312 -61.390625 55.75 -61.191406 55.8125 -60.796875 C 55.882812 -60.398438 55.921875 -59.953125 55.921875 -59.453125 C 55.921875 -58.066406 55.757812 -57.023438 55.4375 -56.328125 C 56.03125 -55.453125 56.328125 -54.597656 56.328125 -53.765625 C 56.328125 -53.171875 56.164062 -52.644531 55.84375 -52.1875 L 57.578125 -52.3125 C 55.734375 -49.914062 54.8125 -47.378906 54.8125 -44.703125 C 55.78125 -44.703125 56.265625 -43.847656 56.265625 -42.140625 L 56.0625 -40 L 55.15625 -40.140625 C 54.644531 -39.585938 53.859375 -39.3125 52.796875 -39.3125 L 51.21875 -39.453125 C 50.101562 -42.265625 49.085938 -43.671875 48.171875 -43.671875 L 47.609375 -43.46875 L 47.609375 -43.8125 C 47.609375 -44.5 47.21875 -44.890625 46.4375 -44.984375 L 46.578125 -45.890625 C 46.578125 -46.296875 46.460938 -46.5 46.234375 -46.5 L 45.8125 -46.375 L 45.53125 -48.03125 C 44.101562 -49.320312 42.351562 -49.96875 40.28125 -49.96875 L 39.859375 -49.96875 C 38.984375 -51.675781 37.53125 -52.53125 35.5 -52.53125 L 34.734375 -52.453125 C 33.679688 -53.515625 32.875 -54.046875 32.3125 -54.046875 C 31.757812 -54.046875 31.460938 -53.628906 31.421875 -52.796875 C 29.253906 -53.910156 27.289062 -54.46875 25.53125 -54.46875 C 22.945312 -54.46875 20.757812 -53.3125 18.96875 -51 L 18.484375 -51 C 16.910156 -51 15.640625 -50.101562 14.671875 -48.3125 C 15.316406 -47.382812 15.640625 -46.597656 15.640625 -45.953125 C 15.640625 -44.984375 15.109375 -44.109375 14.046875 -43.328125 L 17.03125 -39.71875 L 20.28125 -40.484375 L 18.546875 -38.890625 C 19.554688 -38.296875 20.59375 -38 21.65625 -38 C 22.445312 -38 23.300781 -38.203125 24.21875 -38.609375 C 28.320312 -37.554688 30.90625 -37.03125 31.96875 -37.03125 C 32.988281 -37.03125 33.546875 -37.28125 33.640625 -37.78125 L 35.015625 -37.234375 C 35.660156 -35.753906 36.398438 -35.015625 37.234375 -35.015625 L 38.40625 -37.234375 L 38.609375 -35.015625 C 39.210938 -35.335938 40.140625 -35.5 41.390625 -35.5 C 43.460938 -35.5 45.375 -35.0625 47.125 -34.1875 L 48.859375 -34.734375 C 50.015625 -32.660156 51.859375 -31.625 54.390625 -31.625 L 55.296875 -31.703125 L 53.703125 -30.03125 L 55.921875 -30.515625 C 55.921875 -28.859375 56.75 -27.40625 58.40625 -26.15625 L 58.40625 -25.8125 C 58.40625 -24.800781 58.914062 -23.992188 59.9375 -23.390625 L 59.9375 -20.34375 L 58.890625 -19.3125 L 58.625 -17.296875 L 60 -16.546875 C 58.570312 -15.660156 57.859375 -14.226562 57.859375 -12.25 L 57.859375 -12.046875 C 55.046875 -11.816406 53.335938 -10.613281 52.734375 -8.4375 L 53.703125 -7.609375 C 52.046875 -7.378906 51.191406 -6.273438 51.140625 -4.296875 L 49.765625 -4.5625 L 50.171875 -3.25 L 48.859375 -3.453125 L 48.171875 0.34375 L 47.609375 -2.078125 L 45.671875 -2.28125 C 43.554688 -2.28125 41.617188 -1.472656 39.859375 0.140625 L 38.828125 0 C 37.710938 0 36.554688 0.53125 35.359375 1.59375 L 35.640625 0.625 C 35.640625 0.25 35.429688 0.0625 35.015625 0.0625 L 34.734375 0.140625 L 34.875 0.546875 C 34.875 1.191406 34.019531 1.515625 32.3125 1.515625 L 32.046875 1.515625 C 31.816406 0.0859375 30.914062 -0.738281 29.34375 -0.96875 C 29.0625 -0.226562 28.140625 0.140625 26.578125 0.140625 L 26.015625 0.140625 C 25.609375 -1.796875 23.925781 -2.992188 20.96875 -3.453125 L 21.171875 -2.421875 C 21.171875 -1.773438 20.800781 -1.453125 20.0625 -1.453125 L 18.546875 -1.734375 L 19.03125 -3.453125 L 16.75 -2.078125 C 16.46875 -3.046875 16.050781 -3.53125 15.5 -3.53125 C 15.082031 -3.53125 14.644531 -3.320312 14.1875 -2.90625 L 13.421875 -4.015625 C 12.273438 -3.140625 11.378906 -1.847656 10.734375 -0.140625 Z M 5.046875 -0.96875 "/></g></g></g></svg>