<svg xmlns="http://www.w3.org/2000/svg" xmlns:xlink="http://www.w3.org/1999/xlink" width="600" zoomAndPan="magnify" viewBox="0 0 450 74.999997" height="100" preserveAspectRatio="xMidYMid meet" version="1.0"><defs><g/></defs><g fill="#000000" fill-opacity="1"><g transform="translate(7.500008, 56.624994)"><g><path d="M 0.734375 -4.09375 C 1.492188 -4.15625 1.921875 -4.238281 2.015625 -4.34375 C 2.109375 -4.445312 2.285156 -4.535156 2.546875 -4.609375 L 3.65625 -4.671875 L 4.859375 -5.328125 C 4.835938 -5.628906 4.765625 -5.800781 4.640625 -5.84375 C 4.847656 -6.238281 4.953125 -6.957031 4.953125 -8 L 4.765625 -9.78125 L 4.46875 -9.078125 L 4.375 -9.84375 C 4.800781 -10.582031 5.015625 -11.351562 5.015625 -12.15625 C 5.015625 -12.707031 4.921875 -13.289062 4.734375 -13.90625 L 4.859375 -14.53125 L 4.609375 -14.40625 L 4.984375 -15.609375 C 4.640625 -15.085938 4.375 -14.78125 4.1875 -14.6875 C 4.613281 -15.363281 4.828125 -16.109375 4.828125 -16.921875 L 4.609375 -18.40625 L 4.859375 -18.15625 L 4.953125 -20.59375 C 4.671875 -20.957031 4.519531 -21.425781 4.5 -22 L 4.796875 -22.3125 C 4.691406 -22.71875 4.640625 -23.109375 4.640625 -23.484375 C 4.640625 -23.804688 4.679688 -24.125 4.765625 -24.4375 C 4.929688 -25.113281 5.023438 -25.546875 5.046875 -25.734375 C 4.898438 -25.816406 4.796875 -25.925781 4.734375 -26.0625 L 4.828125 -26.40625 L 4.640625 -26.984375 L 4.984375 -27.140625 C 4.984375 -27.796875 4.71875 -28.453125 4.1875 -29.109375 L 4.46875 -30.0625 L 4.734375 -29.609375 C 4.941406 -30.015625 5.046875 -30.472656 5.046875 -30.984375 C 5.046875 -31.523438 4.800781 -31.882812 4.3125 -32.0625 L 4.53125 -32.53125 C 4.46875 -33.101562 4.3125 -33.523438 4.0625 -33.796875 C 3.75 -33.691406 3.546875 -33.460938 3.453125 -33.109375 L 3.234375 -33.265625 L 2.828125 -34.34375 L 2.28125 -34.03125 L 0.890625 -35 L 0.734375 -35.953125 L 0.0625 -35.953125 L 0.40625 -36.5 L 0.34375 -37.265625 C 0.5625 -37.367188 0.742188 -37.546875 0.890625 -37.796875 L 0.890625 -37.328125 L 1.140625 -37.546875 C 1.609375 -37.566406 2.085938 -37.703125 2.578125 -37.953125 L 3.078125 -37.796875 L 3.359375 -38.34375 L 3.484375 -38.015625 L 3.625 -38.34375 C 3.769531 -37.957031 3.925781 -37.707031 4.09375 -37.59375 C 4.257812 -37.476562 4.515625 -37.421875 4.859375 -37.421875 C 5.191406 -37.421875 5.421875 -37.347656 5.546875 -37.203125 L 5.875 -36.875 L 6.09375 -37.671875 L 6.28125 -37.796875 C 6.832031 -37.796875 7.414062 -37.847656 8.03125 -37.953125 L 8.21875 -38.015625 L 8.46875 -37.703125 L 8.59375 -37.921875 L 8.796875 -37.671875 C 9.429688 -37.648438 9.800781 -37.585938 9.90625 -37.484375 L 10.125 -37.578125 L 10.828125 -37.515625 L 10.953125 -37.03125 L 11.046875 -37.546875 L 12.25 -37.671875 C 12.84375 -37.671875 13.210938 -37.535156 13.359375 -37.265625 L 13.640625 -37.484375 L 14.3125 -37.140625 L 15.546875 -37.796875 L 16.25 -37.921875 C 16.289062 -37.710938 16.660156 -37.585938 17.359375 -37.546875 L 17.609375 -37.140625 L 18.15625 -37.171875 L 18.75 -36.4375 L 21.203125 -35.390625 C 21.222656 -35.066406 21.28125 -34.832031 21.375 -34.6875 C 21.46875 -34.539062 21.570312 -34.429688 21.6875 -34.359375 C 21.8125 -34.285156 21.921875 -34.222656 22.015625 -34.171875 C 22.109375 -34.117188 22.164062 -34.046875 22.1875 -33.953125 C 22.394531 -33.847656 22.53125 -33.734375 22.59375 -33.609375 L 23.046875 -33.640625 L 22.984375 -33.078125 L 23.609375 -32.90625 L 23.296875 -32.75 C 23.910156 -32.09375 24.21875 -30.921875 24.21875 -29.234375 L 24.21875 -28.59375 L 24.59375 -28.46875 L 24.46875 -27.765625 L 24.09375 -27.484375 L 24.34375 -27.515625 C 24.34375 -27.140625 24.476562 -26.90625 24.75 -26.8125 L 24.59375 -26.46875 L 24.65625 -25.828125 C 24.65625 -25.660156 24.570312 -25.363281 24.40625 -24.9375 C 24.238281 -24.519531 23.941406 -24.21875 23.515625 -24.03125 L 23.359375 -23.234375 L 23.234375 -23.90625 C 23.234375 -23.5 23.050781 -23.273438 22.6875 -23.234375 C 22.925781 -22.929688 23.066406 -22.570312 23.109375 -22.15625 C 22.847656 -22.53125 22.6875 -22.71875 22.625 -22.71875 C 22.601562 -22.71875 22.59375 -22.695312 22.59375 -22.65625 C 22.59375 -22.613281 22.601562 -22.539062 22.625 -22.4375 L 22.375 -22 L 22.21875 -22.09375 L 22.46875 -21.109375 L 21.84375 -21.515625 C 21.664062 -21.203125 21.578125 -20.707031 21.578125 -20.03125 C 21.578125 -19.8125 21.585938 -19.585938 21.609375 -19.359375 C 21.910156 -19.359375 22.0625 -19.429688 22.0625 -19.578125 C 22.0625 -19.679688 21.988281 -19.832031 21.84375 -20.03125 L 23.359375 -19.875 L 23.515625 -19.484375 L 23.796875 -19.765625 L 24.0625 -19.609375 C 24.144531 -18.742188 24.304688 -18.171875 24.546875 -17.890625 C 24.796875 -17.617188 25.046875 -17.484375 25.296875 -17.484375 L 24.890625 -17.015625 L 25.296875 -16.953125 L 25.734375 -15.453125 L 25.9375 -15.546875 C 26.269531 -14.515625 26.660156 -14 27.109375 -14 C 26.953125 -13.71875 26.875 -13.257812 26.875 -12.625 C 26.875 -12.207031 26.941406 -11.796875 27.078125 -11.390625 C 27.140625 -11.984375 27.222656 -12.28125 27.328125 -12.28125 C 27.472656 -12.28125 27.550781 -12.101562 27.5625 -11.75 C 27.570312 -11.40625 27.640625 -11.171875 27.765625 -11.046875 L 27.109375 -11.046875 L 27.484375 -10.796875 C 27.015625 -10.578125 26.78125 -10.179688 26.78125 -9.609375 C 26.78125 -9.523438 26.789062 -9.429688 26.8125 -9.328125 L 27.046875 -9.6875 L 27.109375 -9.203125 C 26.742188 -9.054688 26.5625 -8.953125 26.5625 -8.890625 C 26.5625 -8.847656 26.65625 -8.828125 26.84375 -8.828125 L 26.953125 -8.828125 L 27.109375 -8 L 26.8125 -7.78125 L 26.40625 -8 C 26.40625 -7.488281 26.210938 -7.035156 25.828125 -6.640625 L 25.734375 -5.046875 C 24.953125 -4.734375 24.445312 -4.109375 24.21875 -3.171875 C 24.132812 -3.171875 23.972656 -3.09375 23.734375 -2.9375 C 23.503906 -2.78125 22.976562 -2.234375 22.15625 -1.296875 C 20.84375 -1.148438 20.15625 -0.972656 20.09375 -0.765625 C 19.707031 -0.953125 19.453125 -1.046875 19.328125 -1.046875 C 19.242188 -1.046875 19.203125 -1.015625 19.203125 -0.953125 C 19.203125 -0.867188 19.273438 -0.722656 19.421875 -0.515625 L 17.359375 -0.515625 L 16.65625 -1.046875 C 16.195312 -0.597656 15.660156 -0.363281 15.046875 -0.34375 C 14.429688 -0.320312 14.101562 -0.15625 14.0625 0.15625 C 13.238281 0.0703125 12.632812 -0.171875 12.25 -0.578125 L 11.203125 0 L 11.875 -1.046875 C 11 -0.597656 10.488281 -0.25 10.34375 0 L 9.265625 -0.09375 L 8.03125 -0.25 L 7.078125 -0.546875 L 7.390625 -0.09375 L 6.609375 -0.21875 L 6.53125 0.0625 L 6.125 -0.09375 L 5.6875 0.15625 L 5.625 -0.4375 L 5.140625 -0.09375 L 3.484375 -0.25 L 1.71875 -0.515625 C 1.675781 -0.742188 1.570312 -0.894531 1.40625 -0.96875 C 1.25 -1.039062 1.140625 -1.203125 1.078125 -1.453125 C 1.015625 -1.710938 0.769531 -1.882812 0.34375 -1.96875 Z M 10 -22.34375 L 10.28125 -22.984375 L 10.25 -22.34375 L 10.53125 -22.59375 C 11 -22.320312 11.507812 -22.1875 12.0625 -22.1875 L 13.140625 -22.34375 L 13.296875 -21.671875 L 13.515625 -22.25 L 13.71875 -21.796875 C 13.882812 -21.828125 13.988281 -21.882812 14.03125 -21.96875 C 14.070312 -22.050781 14.125 -22.132812 14.1875 -22.21875 L 14.21875 -21.875 L 14.65625 -21.9375 C 14.769531 -21.738281 14.984375 -21.640625 15.296875 -21.640625 L 15.453125 -22.34375 L 15.90625 -22.25 L 16.25 -22.46875 C 16.539062 -22.195312 16.890625 -22.0625 17.296875 -22.0625 C 17.523438 -22.0625 17.78125 -22.101562 18.0625 -22.1875 L 18.15625 -21.796875 L 18.3125 -22.34375 C 18.695312 -22.488281 18.984375 -22.640625 19.171875 -22.796875 C 19.359375 -22.960938 19.503906 -23.117188 19.609375 -23.265625 C 19.710938 -23.410156 19.8125 -23.53125 19.90625 -23.625 C 20.007812 -23.71875 20.15625 -23.773438 20.34375 -23.796875 C 20.6875 -23.816406 20.878906 -24.125 20.921875 -24.71875 L 21.015625 -23.9375 C 21.242188 -24.675781 21.5625 -25.046875 21.96875 -25.046875 C 22.09375 -25.046875 22.238281 -24.992188 22.40625 -24.890625 L 22.125 -25.296875 C 22.3125 -25.296875 22.453125 -25.414062 22.546875 -25.65625 C 22.640625 -25.90625 22.859375 -26.175781 23.203125 -26.46875 L 22.8125 -26.875 L 23.140625 -27.015625 L 22.953125 -29.140625 C 23.097656 -28.960938 23.210938 -28.875 23.296875 -28.875 C 23.421875 -28.875 23.484375 -29.054688 23.484375 -29.421875 L 23.078125 -29.296875 C 22.691406 -29.378906 22.484375 -29.539062 22.453125 -29.78125 C 22.421875 -30.03125 22.3125 -30.394531 22.125 -30.875 L 22.40625 -31.296875 L 22.4375 -31.765625 L 21.390625 -31.109375 L 22.09375 -32.1875 L 21.703125 -31.921875 L 21.015625 -32.25 L 21.046875 -32.5625 L 20.5 -32.8125 L 20.53125 -33.015625 L 20.4375 -33.421875 L 20.34375 -33.328125 C 20.21875 -33.617188 19.550781 -33.90625 18.34375 -34.1875 L 18.46875 -34.40625 L 17.203125 -33.765625 L 16.828125 -33.171875 C 16.828125 -33.523438 16.59375 -33.703125 16.125 -33.703125 L 16.09375 -34.21875 L 14.765625 -34.15625 L 14.375 -34.75 C 13.65625 -34.726562 12.789062 -34.5625 11.78125 -34.25 C 10.78125 -33.945312 10.269531 -33.628906 10.25 -33.296875 L 9.75 -34.21875 C 9.363281 -33.382812 9.171875 -32.738281 9.171875 -32.28125 C 9.171875 -31.789062 9.363281 -31.503906 9.75 -31.421875 L 9.296875 -30.625 L 8.796875 -30.09375 L 9.453125 -29.796875 L 9.75 -28.875 C 9.257812 -28.601562 9.015625 -28.234375 9.015625 -27.765625 C 9.015625 -27.535156 9.078125 -27.285156 9.203125 -27.015625 L 8.921875 -26.875 C 8.898438 -26.3125 8.890625 -25.835938 8.890625 -25.453125 C 8.890625 -24.773438 8.929688 -24.4375 9.015625 -24.4375 C 9.054688 -24.4375 9.117188 -24.53125 9.203125 -24.71875 C 9.367188 -24.425781 9.632812 -24.257812 10 -24.21875 Z M 10.25 -4.796875 L 11.171875 -4.890625 L 11.484375 -4.53125 L 11.640625 -4.953125 C 11.835938 -4.867188 12 -4.828125 12.125 -4.828125 C 12.332031 -4.828125 12.4375 -4.953125 12.4375 -5.203125 C 12.65625 -4.828125 12.910156 -4.640625 13.203125 -4.640625 C 13.347656 -4.640625 13.503906 -4.691406 13.671875 -4.796875 L 13.8125 -4.40625 L 14.21875 -5.109375 L 14.5 -4.796875 L 16.25 -4.953125 L 16.40625 -4.40625 L 16.5625 -5.203125 L 16.953125 -4.15625 L 16.921875 -4.921875 L 17.484375 -4.703125 L 17.609375 -4.15625 L 18.0625 -5.109375 C 18.207031 -5.085938 18.351562 -5.078125 18.5 -5.078125 C 19.132812 -5.078125 19.789062 -5.257812 20.46875 -5.625 L 21.578125 -5.359375 L 21.578125 -6.15625 L 21.875 -5.78125 L 21.875 -6.15625 C 22.632812 -6.21875 23.210938 -6.660156 23.609375 -7.484375 L 24.71875 -7.90625 L 23.828125 -7.96875 C 24.128906 -8.050781 24.289062 -8.335938 24.3125 -8.828125 L 24.65625 -10.921875 C 25.0625 -11.046875 25.316406 -11.171875 25.421875 -11.296875 C 25.523438 -11.421875 25.582031 -11.566406 25.59375 -11.734375 C 25.601562 -11.910156 25.613281 -12.109375 25.625 -12.328125 C 25.632812 -12.546875 25.738281 -12.804688 25.9375 -13.109375 L 25.671875 -13.515625 L 25.421875 -12.5 C 25.296875 -12.90625 25.222656 -13.109375 25.203125 -13.109375 C 25.179688 -13.109375 25.171875 -13.066406 25.171875 -12.984375 C 25.171875 -12.742188 25.222656 -12.222656 25.328125 -11.421875 C 24.796875 -13.117188 24.097656 -14.523438 23.234375 -15.640625 L 23.421875 -15.84375 L 22.921875 -16.46875 L 22.53125 -16.6875 L 22.8125 -17.78125 L 22.53125 -18.0625 L 22.3125 -17.140625 L 21.734375 -17.109375 C 21.566406 -17.359375 21.019531 -17.503906 20.09375 -17.546875 L 20.09375 -17.9375 L 19.671875 -17.640625 C 19.648438 -18.003906 19.484375 -18.21875 19.171875 -18.28125 C 18.984375 -18.09375 18.8125 -18 18.65625 -18 C 18.613281 -18 18.582031 -18.007812 18.5625 -18.03125 C 18.375 -18.09375 18.207031 -18.175781 18.0625 -18.28125 C 17.914062 -18.382812 17.796875 -18.445312 17.703125 -18.46875 C 17.617188 -18.46875 17.554688 -18.332031 17.515625 -18.0625 L 16.6875 -18.21875 L 16.765625 -19.015625 L 16.34375 -18.28125 L 14.921875 -18.34375 C 14.816406 -18.613281 14.664062 -18.75 14.46875 -18.75 C 14.363281 -18.75 14.238281 -18.695312 14.09375 -18.59375 L 13.8125 -18.859375 L 13.8125 -18.4375 L 12.4375 -18.0625 L 12 -18.28125 C 11.675781 -18.195312 11.503906 -18.03125 11.484375 -17.78125 L 10.828125 -18.0625 C 10.722656 -18.125 10.632812 -18.15625 10.5625 -18.15625 C 10.5 -18.15625 10.46875 -18.113281 10.46875 -18.03125 C 10.46875 -17.96875 10.488281 -17.882812 10.53125 -17.78125 L 10 -17.265625 C 9.65625 -17.222656 9.429688 -16.96875 9.328125 -16.5 L 9.203125 -17.390625 C 9.054688 -16.941406 8.984375 -16.601562 8.984375 -16.375 C 8.984375 -16.144531 9.066406 -16.03125 9.234375 -16.03125 C 9.316406 -16.03125 9.429688 -16.070312 9.578125 -16.15625 L 9.75 -14.984375 C 9.53125 -14.578125 9.421875 -14.164062 9.421875 -13.75 C 9.421875 -13.15625 9.695312 -12.675781 10.25 -12.3125 L 10.15625 -11.484375 L 9.453125 -11.109375 C 9.753906 -10.679688 9.90625 -10.300781 9.90625 -9.96875 C 9.90625 -9.664062 9.796875 -9.378906 9.578125 -9.109375 L 10 -9.203125 L 9.90625 -8.15625 C 9.90625 -7.863281 9.921875 -7.5625 9.953125 -7.25 C 9.984375 -6.945312 10.050781 -6.625 10.15625 -6.28125 L 9.75 -6.03125 L 10.15625 -5.78125 L 9.75 -5.484375 L 10.125 -5.296875 Z M 24.21875 -13.71875 L 25.046875 -11.390625 C 24.890625 -11.347656 24.757812 -11.328125 24.65625 -11.328125 C 24.238281 -11.328125 24.03125 -11.65625 24.03125 -12.3125 C 24.03125 -12.675781 24.09375 -13.144531 24.21875 -13.71875 Z M 24.21875 -13.71875 "/></g></g></g><g fill="#000000" fill-opacity="1"><g transform="translate(36.378371, 56.624994)"><g><path d="M 6.53125 -3.015625 C 6.488281 -3.398438 6.390625 -3.6875 6.234375 -3.875 C 6.078125 -4.0625 5.894531 -4.222656 5.6875 -4.359375 C 5.488281 -4.503906 5.296875 -4.648438 5.109375 -4.796875 C 4.921875 -4.941406 4.773438 -5.160156 4.671875 -5.453125 C 4.554688 -5.710938 4.410156 -5.945312 4.234375 -6.15625 C 4.054688 -6.363281 3.875 -6.550781 3.6875 -6.71875 C 3.507812 -6.894531 3.351562 -7.046875 3.21875 -7.171875 C 3.082031 -7.296875 3.015625 -7.398438 3.015625 -7.484375 L 2.921875 -8.671875 L 3.078125 -9.609375 L 2.828125 -11.015625 L 2.921875 -11.203125 L 3.65625 -11.265625 L 2.921875 -11.359375 C 3.066406 -11.828125 3.234375 -12.0625 3.421875 -12.0625 C 3.316406 -12.25 3.203125 -12.410156 3.078125 -12.546875 C 2.953125 -12.691406 2.832031 -12.84375 2.71875 -13 C 2.601562 -13.15625 2.5 -13.335938 2.40625 -13.546875 C 2.320312 -13.765625 2.28125 -14.03125 2.28125 -14.34375 L 2.46875 -15.453125 C 2.75 -15.453125 2.890625 -15.535156 2.890625 -15.703125 C 2.890625 -15.835938 2.804688 -16.035156 2.640625 -16.296875 C 2.484375 -16.554688 2.40625 -16.785156 2.40625 -16.984375 C 2.40625 -17.234375 2.503906 -17.425781 2.703125 -17.5625 C 2.910156 -17.707031 3.015625 -17.894531 3.015625 -18.125 L 2.921875 -18.5 C 3.066406 -19.09375 3.242188 -19.691406 3.453125 -20.296875 C 3.671875 -20.898438 3.914062 -21.507812 4.1875 -22.125 L 4.375 -21.90625 L 4.46875 -22.09375 L 4.3125 -22.59375 C 4.863281 -22.789062 5.332031 -23.191406 5.71875 -23.796875 L 6.125 -23.796875 L 6.3125 -24.21875 L 6.21875 -24.3125 L 5.84375 -24.1875 C 6.394531 -24.738281 6.753906 -25.253906 6.921875 -25.734375 L 7.78125 -25.734375 L 7.96875 -26.25 C 8.007812 -26.414062 8.125 -26.5 8.3125 -26.5 L 8.671875 -26.4375 L 8.5625 -26.78125 C 9.238281 -26.875 9.789062 -27.160156 10.21875 -27.640625 L 10.671875 -27.484375 L 10.765625 -27.828125 L 12.65625 -27.828125 L 13.015625 -28.34375 L 13.265625 -28.1875 L 13.515625 -28.53125 L 14.5625 -28.6875 L 14.5625 -29.046875 L 14.921875 -29.078125 C 15.148438 -28.773438 15.425781 -28.625 15.75 -28.625 L 16.21875 -28.6875 L 16.40625 -28.1875 L 16.921875 -28.25 L 17.109375 -27.890625 L 17.734375 -28 L 18.65625 -27.828125 L 18.921875 -28 L 18.953125 -27.140625 L 19.203125 -28 C 19.429688 -27.757812 19.71875 -27.585938 20.0625 -27.484375 C 20.25 -27.035156 20.597656 -26.800781 21.109375 -26.78125 C 21.335938 -26.40625 21.6875 -26.175781 22.15625 -26.09375 C 22.46875 -25.5625 22.929688 -25.210938 23.546875 -25.046875 L 24.1875 -24.25 C 24.394531 -24.1875 24.5 -24.082031 24.5 -23.9375 L 24.40625 -23.640625 L 25.109375 -23.390625 L 25.078125 -23.203125 C 25.078125 -23.078125 25.128906 -23.015625 25.234375 -23.015625 L 25.640625 -23.140625 L 25.453125 -22.859375 L 26.5 -21.046875 L 26.34375 -20.6875 L 26.59375 -20.5 C 26.695312 -20.164062 26.898438 -19.816406 27.203125 -19.453125 L 27.078125 -18.828125 L 27.203125 -18.09375 L 27.046875 -18 L 27.171875 -17.703125 L 27.046875 -17.453125 L 27.203125 -16.34375 L 27.046875 -15.046875 L 26.6875 -14.859375 L 26.78125 -13.171875 L 26.5 -14 L 26 -13.453125 C 25.082031 -13.429688 24.382812 -13 23.90625 -12.15625 C 23.644531 -12.5625 23.453125 -12.765625 23.328125 -12.765625 C 23.222656 -12.765625 23.171875 -12.601562 23.171875 -12.28125 L 23.171875 -12 L 22.71875 -11.8125 L 22.71875 -11.90625 C 22.71875 -12.113281 22.570312 -12.21875 22.28125 -12.21875 C 21.988281 -12.21875 21.679688 -12.050781 21.359375 -11.71875 C 21.253906 -11.96875 21.078125 -12.09375 20.828125 -12.09375 L 20.65625 -12.0625 C 20.570312 -12.332031 20.4375 -12.46875 20.25 -12.46875 L 19.96875 -12.40625 C 19.707031 -12.75 19.410156 -12.921875 19.078125 -12.921875 L 18.5 -12.765625 L 17.546875 -12.765625 L 16.984375 -12.921875 L 16.3125 -12.765625 L 15.9375 -12.828125 C 15.59375 -12.828125 15.253906 -12.6875 14.921875 -12.40625 L 14.65625 -12.40625 C 14.257812 -12.6875 13.878906 -12.828125 13.515625 -12.828125 L 13.171875 -12.765625 C 13.003906 -13.054688 12.8125 -13.203125 12.59375 -13.203125 L 11.9375 -12.953125 C 11.550781 -12.953125 11.242188 -12.769531 11.015625 -12.40625 L 10.21875 -12.40625 C 9.882812 -12.6875 9.503906 -12.828125 9.078125 -12.828125 C 8.671875 -12.828125 8.269531 -12.6875 7.875 -12.40625 L 8.0625 -12 C 7.914062 -11.789062 7.84375 -11.578125 7.84375 -11.359375 C 7.84375 -11.109375 7.914062 -10.878906 8.0625 -10.671875 L 7.96875 -10.125 C 7.96875 -9.488281 8.347656 -9.003906 9.109375 -8.671875 L 8.921875 -8.59375 C 9.085938 -8.300781 9.21875 -8.03125 9.3125 -7.78125 C 9.40625 -7.539062 9.507812 -7.3125 9.625 -7.09375 C 9.75 -6.875 9.898438 -6.664062 10.078125 -6.46875 C 10.253906 -6.28125 10.503906 -6.09375 10.828125 -5.90625 L 10.671875 -5.296875 C 10.671875 -5.003906 10.847656 -4.859375 11.203125 -4.859375 L 11.359375 -4.859375 L 11.328125 -4.578125 C 11.328125 -4.359375 11.390625 -4.25 11.515625 -4.25 L 11.71875 -4.3125 L 11.8125 -3.96875 L 11.8125 -4.765625 C 12.082031 -5.160156 12.535156 -5.359375 13.171875 -5.359375 L 13.015625 -5.546875 C 13.265625 -5.597656 13.460938 -5.71875 13.609375 -5.90625 L 14.65625 -4.765625 C 14.257812 -4.484375 14.03125 -4.21875 13.96875 -3.96875 L 14.625 -3.84375 L 15.359375 -3.96875 C 15.617188 -3.644531 15.945312 -3.484375 16.34375 -3.484375 L 17.015625 -3.625 L 16.28125 -3.9375 C 17.144531 -4 17.578125 -4.273438 17.578125 -4.765625 L 17.546875 -5.015625 L 17.9375 -4.953125 C 18.226562 -4.953125 18.5 -5.085938 18.75 -5.359375 C 19.03125 -5.148438 19.285156 -5.046875 19.515625 -5.046875 C 19.941406 -5.046875 20.28125 -5.40625 20.53125 -6.125 C 21.019531 -6.289062 21.265625 -6.484375 21.265625 -6.703125 L 21.234375 -6.828125 C 21.484375 -6.847656 21.609375 -6.953125 21.609375 -7.140625 L 21.578125 -7.328125 C 21.898438 -7.523438 22.1875 -7.820312 22.4375 -8.21875 L 22.59375 -8.21875 C 23.082031 -8.21875 23.328125 -8.503906 23.328125 -9.078125 L 24.3125 -8.4375 L 24.09375 -8.890625 L 24.984375 -9.265625 L 24.8125 -8.125 L 25.046875 -8.15625 C 25.085938 -8.15625 25.1875 -8.132812 25.34375 -8.09375 C 25.5 -8.050781 25.660156 -7.988281 25.828125 -7.90625 C 26.003906 -7.820312 26.160156 -7.722656 26.296875 -7.609375 C 26.429688 -7.503906 26.5 -7.378906 26.5 -7.234375 C 26.5 -7.066406 26.4375 -6.921875 26.3125 -6.796875 C 26.1875 -6.671875 26.125 -6.519531 26.125 -6.34375 L 26.1875 -6.03125 L 25.484375 -5.6875 L 25.328125 -4.828125 C 25.160156 -4.785156 24.953125 -4.691406 24.703125 -4.546875 C 24.460938 -4.410156 24.34375 -4.226562 24.34375 -4 L 24.4375 -3.625 C 24.101562 -3.550781 23.9375 -3.359375 23.9375 -3.046875 L 23.90625 -2.671875 C 23.351562 -2.472656 22.882812 -2.066406 22.5 -1.453125 C 22.125 -1.410156 21.828125 -1.234375 21.609375 -0.921875 L 21.359375 -0.921875 C 21.085938 -1.390625 20.65625 -1.625 20.0625 -1.625 C 19.976562 -1.53125 19.890625 -1.414062 19.796875 -1.28125 C 19.710938 -1.144531 19.625 -1.007812 19.53125 -0.875 C 19.4375 -0.738281 19.34375 -0.617188 19.25 -0.515625 C 19.15625 -0.421875 19.066406 -0.375 18.984375 -0.375 L 18.5625 -0.40625 C 18.332031 -0.40625 18.101562 -0.3125 17.875 -0.125 C 17.65625 0.0625 17.367188 0.15625 17.015625 0.15625 L 16.5 0.125 L 15.609375 -0.21875 C 15.273438 0.0507812 14.863281 0.1875 14.375 0.1875 L 13.359375 0 L 13.171875 0.28125 L 12.28125 -0.3125 C 12.238281 -0.507812 12.175781 -0.609375 12.09375 -0.609375 L 11.96875 -0.578125 C 11.75 -0.847656 11.460938 -0.984375 11.109375 -0.984375 L 10.671875 -0.921875 C 9.878906 -1.085938 9.210938 -1.382812 8.671875 -1.8125 C 8.554688 -2.164062 8.375 -2.34375 8.125 -2.34375 L 7.96875 -2.3125 L 7.78125 -3.203125 L 7.078125 -3.359375 C 6.828125 -3.359375 6.644531 -3.242188 6.53125 -3.015625 Z M 12.65625 -17.515625 L 13.046875 -17.609375 L 13.96875 -17.453125 C 14.445312 -17.160156 14.910156 -17.015625 15.359375 -17.015625 C 16.160156 -17.015625 16.976562 -17.425781 17.8125 -18.25 L 18.125 -17.015625 L 18.3125 -17.171875 L 18.40625 -18.25 C 18.507812 -17.820312 18.613281 -17.609375 18.71875 -17.609375 C 18.851562 -17.609375 18.984375 -17.820312 19.109375 -18.25 C 19.421875 -17.882812 19.78125 -17.703125 20.1875 -17.703125 L 20.5 -17.734375 L 20.859375 -17.453125 C 21.234375 -17.640625 21.421875 -17.882812 21.421875 -18.1875 C 21.421875 -18.414062 21.347656 -18.640625 21.203125 -18.859375 L 20.859375 -18.75 L 21.078125 -19.140625 L 20.828125 -19.234375 C 20.796875 -19.566406 20.753906 -19.804688 20.703125 -19.953125 C 20.648438 -20.109375 20.582031 -20.210938 20.5 -20.265625 C 20.414062 -20.316406 20.3125 -20.351562 20.1875 -20.375 C 20.0625 -20.394531 19.898438 -20.46875 19.703125 -20.59375 C 19.492188 -20.488281 19.378906 -20.320312 19.359375 -20.09375 C 19.210938 -20.175781 18.9375 -20.226562 18.53125 -20.25 L 18.375 -20.125 L 18.3125 -20.53125 C 18.164062 -20.632812 18.085938 -20.753906 18.078125 -20.890625 C 18.066406 -21.035156 17.988281 -21.21875 17.84375 -21.4375 C 17.707031 -21.65625 17.554688 -21.875 17.390625 -22.09375 C 17.222656 -22.320312 17.046875 -22.519531 16.859375 -22.6875 L 16.0625 -22.859375 L 16.40625 -22.375 L 15.703125 -22.6875 L 15.546875 -22.34375 C 15.296875 -22.34375 15.140625 -22.21875 15.078125 -21.96875 L 14.890625 -22.09375 C 14.785156 -22.09375 14.734375 -21.921875 14.734375 -21.578125 C 14.640625 -21.859375 14.550781 -22 14.46875 -22 C 14.382812 -22 14.332031 -21.929688 14.3125 -21.796875 L 13.359375 -22 L 13.515625 -22.5 C 13.515625 -22.707031 13.378906 -22.859375 13.109375 -22.953125 L 13.109375 -22.5 C 12.640625 -22.414062 12.40625 -22.226562 12.40625 -21.9375 L 12.40625 -21.796875 C 12.03125 -21.734375 11.84375 -21.535156 11.84375 -21.203125 L 11.96875 -20.890625 C 11.800781 -20.847656 11.71875 -20.695312 11.71875 -20.4375 C 10.59375 -20.082031 10.03125 -19.691406 10.03125 -19.265625 C 10.03125 -19.078125 10.125 -18.90625 10.3125 -18.75 L 10.46875 -19.015625 C 10.914062 -18.398438 11.425781 -18.019531 12 -17.875 L 12.1875 -17.390625 Z M 9.171875 -18.59375 L 9.75 -18.796875 L 9.359375 -19.046875 Z M 26.0625 -13.203125 L 26.34375 -12.890625 C 26.09375 -12.585938 25.816406 -12.4375 25.515625 -12.4375 C 25.304688 -12.4375 25.082031 -12.523438 24.84375 -12.703125 C 25.0625 -12.953125 25.46875 -13.117188 26.0625 -13.203125 Z M 18.59375 -12.5 C 18.8125 -12.65625 19.015625 -12.734375 19.203125 -12.734375 C 19.453125 -12.734375 19.664062 -12.550781 19.84375 -12.1875 Z M 2.25 -10.5625 L 2.546875 -10.765625 C 2.628906 -10.765625 2.703125 -10.59375 2.765625 -10.25 C 2.785156 -10.101562 2.796875 -9.976562 2.796875 -9.875 C 2.796875 -9.695312 2.753906 -9.554688 2.671875 -9.453125 C 2.585938 -9.453125 2.488281 -9.75 2.375 -10.34375 Z M 11.265625 -6.0625 L 11.421875 -5.71875 L 11.109375 -5.625 Z M 16.25 -4.734375 L 16.859375 -4.734375 C 16.859375 -4.628906 16.539062 -4.4375 15.90625 -4.15625 C 15.601562 -4.257812 15.453125 -4.375 15.453125 -4.5 C 15.453125 -4.632812 15.664062 -4.785156 16.09375 -4.953125 Z M 4.5 -2.5 L 4.375 -2.1875 L 4.125 -2.40625 Z M 20.5 -1.203125 L 20.75 -1.203125 L 20.6875 -0.953125 C 20.6875 -0.804688 20.773438 -0.679688 20.953125 -0.578125 L 20.59375 -0.21875 L 20.15625 -0.21875 L 20.0625 -0.859375 Z M 20.5 -1.203125 "/></g></g></g><g fill="#000000" fill-opacity="1"><g transform="translate(65.256733, 56.624994)"><g><path d="M 14.6875 -37.03125 C 15.28125 -36.695312 15.992188 -36.53125 16.828125 -36.53125 L 17.671875 -36.59375 L 17.484375 -35.234375 C 17.484375 -34.890625 17.53125 -34.578125 17.625 -34.296875 C 17.726562 -34.023438 17.84375 -33.785156 17.96875 -33.578125 C 18.09375 -33.367188 18.203125 -33.171875 18.296875 -32.984375 C 18.390625 -32.804688 18.4375 -32.644531 18.4375 -32.5 C 18.4375 -32.3125 18.363281 -32.148438 18.21875 -32.015625 C 18.070312 -31.890625 18 -31.679688 18 -31.390625 C 18 -31.003906 18.070312 -30.675781 18.21875 -30.40625 L 17.671875 -29.203125 L 17.484375 -24.5 C 18.078125 -23.988281 18.375 -23.617188 18.375 -23.390625 C 18.375 -23.242188 18.269531 -23.160156 18.0625 -23.140625 C 17.914062 -22.460938 17.800781 -21.828125 17.71875 -21.234375 C 17.644531 -20.640625 17.609375 -20.085938 17.609375 -19.578125 C 17.609375 -18.546875 17.71875 -17.753906 17.9375 -17.203125 L 17.671875 -15.75 C 17.953125 -15.34375 18.09375 -14.90625 18.09375 -14.4375 C 18.09375 -13.976562 17.953125 -13.515625 17.671875 -13.046875 L 18.21875 -12.796875 L 18.21875 -10.671875 L 17.671875 -10.796875 L 17.671875 -6.859375 L 18.4375 -6.125 L 18.21875 -4.578125 L 18.34375 -4.578125 C 19.019531 -4.578125 19.472656 -4.222656 19.703125 -3.515625 C 20.722656 -3.710938 21.625 -3.8125 22.40625 -3.8125 C 24.707031 -3.8125 25.988281 -2.960938 26.25 -1.265625 L 25.140625 0.09375 L 20.09375 0.09375 L 20 0.671875 L 19.265625 -0.15625 L 17.484375 0.09375 L 17.296875 -0.828125 L 16 -0.0625 C 15.550781 0.0820312 15.007812 0.15625 14.375 0.15625 C 13.613281 0.15625 12.96875 -0.0078125 12.4375 -0.34375 L 9.65625 0.25 C 9.039062 0.0625 8.375 -0.03125 7.65625 -0.03125 L 6.125 0.09375 C 5.8125 -0.394531 5.328125 -0.640625 4.671875 -0.640625 C 4.160156 -0.640625 3.742188 -0.5625 3.421875 -0.40625 L 3.140625 -0.796875 C 3.242188 -1.578125 3.613281 -2.285156 4.25 -2.921875 C 5.289062 -2.984375 5.8125 -3.21875 5.8125 -3.625 L 5.78125 -3.78125 C 6.21875 -3.632812 6.816406 -3.5625 7.578125 -3.5625 L 9.65625 -3.8125 L 9.90625 -3.453125 C 10.5625 -4.109375 11.1875 -4.4375 11.78125 -4.4375 L 12.4375 -4.28125 L 13.578125 -6.703125 L 13.578125 -7.75 C 13.285156 -8.925781 13.140625 -9.972656 13.140625 -10.890625 C 13.140625 -12.328125 13.34375 -13.648438 13.75 -14.859375 C 13.445312 -15.398438 13.296875 -15.882812 13.296875 -16.3125 C 13.296875 -16.695312 13.445312 -17.066406 13.75 -17.421875 L 13.578125 -19.84375 L 13.015625 -19.515625 L 13.015625 -22.21875 L 13.578125 -22.09375 L 13.578125 -22.53125 C 13.578125 -23.507812 13.390625 -24.113281 13.015625 -24.34375 C 13.328125 -25.125 13.515625 -26.085938 13.578125 -27.234375 L 13.109375 -27.203125 L 13.078125 -28.03125 C 13.078125 -28.875 13.171875 -29.789062 13.359375 -30.78125 L 12.40625 -31.515625 C 13.164062 -31.535156 13.546875 -31.640625 13.546875 -31.828125 C 13.546875 -31.847656 13.507812 -31.898438 13.4375 -31.984375 C 13.363281 -32.078125 13.28125 -32.171875 13.1875 -32.265625 C 13.09375 -32.359375 13.007812 -32.460938 12.9375 -32.578125 C 12.863281 -32.691406 12.828125 -32.800781 12.828125 -32.90625 L 12.828125 -32.96875 C 12.503906 -33.101562 12.175781 -33.171875 11.84375 -33.171875 L 10.765625 -32.96875 C 10.316406 -33.582031 9.847656 -33.890625 9.359375 -33.890625 C 9.085938 -33.890625 8.816406 -33.820312 8.546875 -33.6875 C 8.285156 -33.550781 8.03125 -33.484375 7.78125 -33.484375 C 7.476562 -33.484375 7.207031 -33.5625 6.96875 -33.71875 C 6.726562 -33.875 6.351562 -33.953125 5.84375 -33.953125 C 5.25 -33.953125 4.460938 -33.828125 3.484375 -33.578125 L 3.84375 -34.5625 C 3.84375 -34.789062 3.722656 -34.90625 3.484375 -34.90625 L 2.578125 -34.625 L 2.578125 -35.515625 L 4.28125 -37.078125 L 4.703125 -36.46875 L 7.234375 -36.875 L 7.6875 -37.328125 L 8.15625 -36.71875 L 8.5625 -37.234375 L 9.140625 -37.234375 L 9.453125 -36.71875 C 9.773438 -36.863281 10.253906 -36.9375 10.890625 -36.9375 C 11.347656 -36.9375 11.992188 -36.820312 12.828125 -36.59375 C 12.910156 -36.1875 13.023438 -35.984375 13.171875 -35.984375 C 13.273438 -35.984375 13.410156 -36.332031 13.578125 -37.03125 Z M 14.6875 -37.03125 "/></g></g></g><g fill="#000000" fill-opacity="1"><g transform="translate(94.135095, 56.624994)"><g><path d="M 4.984375 -29.328125 C 5.253906 -29.328125 5.554688 -29.226562 5.890625 -29.03125 C 6.234375 -28.84375 6.554688 -28.75 6.859375 -28.75 C 7.367188 -28.75 7.90625 -29.003906 8.46875 -29.515625 L 9.578125 -28.875 C 9.859375 -29.34375 10.144531 -29.578125 10.4375 -29.578125 C 10.5625 -29.578125 10.679688 -29.523438 10.796875 -29.421875 C 10.921875 -29.316406 11.046875 -29.203125 11.171875 -29.078125 C 11.296875 -28.960938 11.414062 -28.851562 11.53125 -28.75 C 11.65625 -28.644531 11.769531 -28.59375 11.875 -28.59375 C 12.144531 -28.59375 12.40625 -28.816406 12.65625 -29.265625 C 13.269531 -28.203125 13.578125 -27.363281 13.578125 -26.75 C 13.578125 -26.3125 13.457031 -26 13.21875 -25.8125 C 12.976562 -25.632812 12.710938 -25.503906 12.421875 -25.421875 C 12.140625 -25.335938 11.875 -25.265625 11.625 -25.203125 C 11.382812 -25.140625 11.265625 -25.007812 11.265625 -24.8125 L 10.09375 -25.171875 C 9.84375 -25.171875 9.71875 -25.039062 9.71875 -24.78125 C 9.71875 -24.363281 10.054688 -23.59375 10.734375 -22.46875 L 10.46875 -20.75 C 10.46875 -20.414062 10.519531 -20.113281 10.625 -19.84375 C 10.738281 -19.582031 10.859375 -19.347656 10.984375 -19.140625 C 11.109375 -18.929688 11.222656 -18.738281 11.328125 -18.5625 C 11.429688 -18.394531 11.484375 -18.238281 11.484375 -18.09375 C 11.484375 -17.988281 11.457031 -17.894531 11.40625 -17.8125 C 11.351562 -17.738281 11.300781 -17.65625 11.25 -17.5625 C 11.195312 -17.46875 11.144531 -17.351562 11.09375 -17.21875 C 11.039062 -17.082031 11.015625 -16.90625 11.015625 -16.6875 L 11.328125 -14.53125 L 12.09375 -15.078125 L 11.609375 -13.171875 L 11.90625 -11.8125 L 11.75 -10.5625 C 11.75 -10.1875 11.8125 -9.84375 11.9375 -9.53125 C 12.0625 -9.226562 12.195312 -8.921875 12.34375 -8.609375 C 12.488281 -8.304688 12.625 -7.988281 12.75 -7.65625 C 12.882812 -7.332031 12.953125 -6.945312 12.953125 -6.5 L 12.921875 -5.875 C 12.921875 -5.550781 12.984375 -5.390625 13.109375 -5.390625 C 13.253906 -5.390625 13.539062 -5.726562 13.96875 -6.40625 L 14.3125 -4.25 C 15.289062 -5.988281 15.78125 -7.691406 15.78125 -9.359375 L 15.78125 -9.75 L 16.15625 -9.609375 C 16.300781 -9.609375 16.375 -9.738281 16.375 -10 L 16.21875 -11.296875 C 16.21875 -12.054688 16.484375 -12.925781 17.015625 -13.90625 L 16.28125 -13.9375 L 17.484375 -15.515625 L 17.96875 -17.140625 C 18.320312 -17.140625 18.5 -17.285156 18.5 -17.578125 C 18.5 -17.898438 18.332031 -18.328125 18 -18.859375 L 18.3125 -20.21875 L 19.109375 -20.28125 L 18.625 -21.578125 C 18.988281 -21.773438 19.171875 -22.019531 19.171875 -22.3125 C 19.171875 -22.539062 19.097656 -22.765625 18.953125 -22.984375 L 19.703125 -23.453125 L 19.234375 -24.34375 C 19.722656 -24.570312 19.96875 -24.796875 19.96875 -25.015625 C 19.96875 -25.179688 19.785156 -25.347656 19.421875 -25.515625 L 18 -25.421875 C 16.832031 -25.421875 16.25 -25.65625 16.25 -26.125 C 16.25 -26.3125 16.34375 -26.53125 16.53125 -26.78125 L 15.515625 -27.578125 L 16.28125 -29.390625 L 19.265625 -28.75 C 19.710938 -29.28125 20.195312 -29.546875 20.71875 -29.546875 C 21.351562 -29.546875 22.039062 -29.164062 22.78125 -28.40625 C 23.375 -28.875 23.84375 -29.109375 24.1875 -29.109375 C 24.414062 -29.109375 24.53125 -28.9375 24.53125 -28.59375 L 24.5 -28.25 L 25.359375 -28.59375 L 25.328125 -28.71875 C 25.328125 -28.9375 25.5625 -29.046875 26.03125 -29.046875 L 26.59375 -29.015625 L 27.703125 -27.640625 C 27.515625 -25.867188 26.96875 -24.984375 26.0625 -24.984375 L 25.390625 -25.109375 C 24.523438 -24.910156 24.09375 -24.070312 24.09375 -22.59375 L 24.03125 -20.984375 L 23.390625 -20.953125 C 23.617188 -20.585938 23.734375 -20.269531 23.734375 -20 C 23.734375 -19.800781 23.679688 -19.601562 23.578125 -19.40625 C 23.472656 -19.207031 23.351562 -19 23.21875 -18.78125 C 23.082031 -18.570312 22.957031 -18.34375 22.84375 -18.09375 C 22.738281 -17.851562 22.6875 -17.585938 22.6875 -17.296875 L 22.71875 -16.890625 L 21.703125 -16.5 L 22.4375 -15.75 C 21.59375 -14.914062 21.171875 -13.851562 21.171875 -12.5625 L 21.234375 -11.6875 L 20.859375 -11.875 C 20.722656 -11.875 20.628906 -11.734375 20.578125 -11.453125 C 20.523438 -11.179688 20.488281 -10.832031 20.46875 -10.40625 C 20.445312 -9.988281 20.429688 -9.535156 20.421875 -9.046875 C 20.410156 -8.554688 20.394531 -8.09375 20.375 -7.65625 L 19.140625 -7.546875 L 19.90625 -6.953125 L 19.703125 -6 C 18.878906 -5.632812 18.46875 -5.265625 18.46875 -4.890625 C 18.46875 -4.648438 18.648438 -4.382812 19.015625 -4.09375 L 17.640625 -2.578125 L 18.09375 -1.75 L 17.421875 -1.078125 L 17.453125 -0.890625 C 17.453125 -0.273438 16.28125 0.203125 13.9375 0.546875 L 12.40625 0.515625 C 12.132812 -0.273438 11.238281 -0.703125 9.71875 -0.765625 L 10.1875 -1.8125 C 9.46875 -2.1875 9.109375 -2.609375 9.109375 -3.078125 C 9.109375 -3.328125 9.234375 -3.601562 9.484375 -3.90625 L 9.015625 -4.3125 L 9.171875 -5.65625 C 9.171875 -6.09375 9.097656 -6.4375 8.953125 -6.6875 C 8.804688 -6.945312 8.644531 -7.175781 8.46875 -7.375 C 8.300781 -7.582031 8.144531 -7.800781 8 -8.03125 C 7.851562 -8.257812 7.78125 -8.585938 7.78125 -9.015625 L 7.96875 -10.3125 C 7.1875 -10.90625 6.796875 -11.46875 6.796875 -12 C 6.796875 -12.351562 6.929688 -12.671875 7.203125 -12.953125 L 6.890625 -13.640625 L 7.015625 -14.34375 C 7.015625 -15.082031 6.582031 -15.890625 5.71875 -16.765625 L 6.28125 -18.4375 L 5.484375 -19.109375 L 5.65625 -20.890625 C 5.65625 -22.085938 5.347656 -23.023438 4.734375 -23.703125 L 5.078125 -24.375 C 4.503906 -24.96875 3.953125 -25.265625 3.421875 -25.265625 C 3.023438 -25.265625 2.632812 -25.101562 2.25 -24.78125 L 1.203125 -25.859375 L 1.625 -26.40625 C 1.300781 -26.59375 1.140625 -26.910156 1.140625 -27.359375 C 1.140625 -27.929688 1.34375 -28.609375 1.75 -29.390625 C 2.40625 -28.859375 2.960938 -28.59375 3.421875 -28.59375 C 3.597656 -28.59375 3.742188 -28.628906 3.859375 -28.703125 C 3.972656 -28.773438 4.085938 -28.859375 4.203125 -28.953125 C 4.316406 -29.054688 4.429688 -29.144531 4.546875 -29.21875 C 4.671875 -29.289062 4.816406 -29.328125 4.984375 -29.328125 Z M 4.984375 -29.328125 "/></g></g></g><g fill="#000000" fill-opacity="1"><g transform="translate(123.013457, 56.624994)"><g><path d="M 11.296875 -29.078125 L 12.5625 -29.171875 C 13.351562 -29.171875 13.9375 -29.097656 14.3125 -28.953125 L 15.140625 -29.234375 C 15.410156 -28.953125 15.738281 -28.8125 16.125 -28.8125 C 16.476562 -28.8125 16.898438 -28.972656 17.390625 -29.296875 L 17.390625 -29.109375 C 17.390625 -28.410156 17.695312 -28.0625 18.3125 -28.0625 L 18.625 -28.09375 C 18.988281 -28.09375 19.28125 -28.019531 19.5 -27.875 C 19.726562 -27.738281 19.925781 -27.578125 20.09375 -27.390625 C 20.257812 -27.203125 20.421875 -27.003906 20.578125 -26.796875 C 20.742188 -26.597656 20.929688 -26.4375 21.140625 -26.3125 C 21.554688 -26.125 21.914062 -25.53125 22.21875 -24.53125 L 23.609375 -23.90625 L 23.609375 -23.734375 C 23.609375 -23.421875 23.644531 -23.175781 23.71875 -23 C 23.789062 -22.832031 23.875 -22.691406 23.96875 -22.578125 C 24.070312 -22.460938 24.160156 -22.351562 24.234375 -22.25 C 24.304688 -22.144531 24.34375 -21.984375 24.34375 -21.765625 L 24.3125 -21.453125 C 24.3125 -20.984375 24.609375 -20.390625 25.203125 -19.671875 L 24.984375 -18.953125 L 25.015625 -17.671875 L 25.765625 -16.40625 L 25.859375 -15.515625 C 25.859375 -14.796875 25.703125 -14.078125 25.390625 -13.359375 L 25.390625 -11.71875 C 25.660156 -11.1875 25.796875 -10.59375 25.796875 -9.9375 L 25.765625 -9.421875 C 24.585938 -8.660156 23.929688 -7.601562 23.796875 -6.25 C 23.671875 -4.894531 22.210938 -3.203125 19.421875 -1.171875 L 17.265625 -1.171875 C 16.585938 -0.429688 15.859375 -0.0625 15.078125 -0.0625 C 14.847656 -0.0625 14.613281 -0.0976562 14.375 -0.171875 C 14.144531 -0.242188 13.890625 -0.320312 13.609375 -0.40625 C 13.335938 -0.5 13.039062 -0.582031 12.71875 -0.65625 C 12.40625 -0.726562 12.046875 -0.765625 11.640625 -0.765625 L 9.328125 -0.546875 L 6.46875 -2.40625 L 6.734375 -3.328125 L 5.234375 -3.625 L 5.359375 -4.0625 C 5.359375 -4.207031 5.285156 -4.28125 5.140625 -4.28125 L 4.828125 -4.21875 C 4.703125 -4.769531 4.382812 -5.289062 3.875 -5.78125 L 4.40625 -6.703125 L 3.6875 -6.765625 L 3.6875 -6.953125 C 3.6875 -7.523438 3.617188 -8.015625 3.484375 -8.421875 C 3.359375 -8.835938 3.226562 -9.1875 3.09375 -9.46875 C 2.957031 -9.757812 2.820312 -10.015625 2.6875 -10.234375 C 2.5625 -10.453125 2.5 -10.660156 2.5 -10.859375 L 2.546875 -11.109375 C 2.546875 -11.554688 2.3125 -12.234375 1.84375 -13.140625 L 2.40625 -13.640625 L 1.78125 -13.75 C 2.070312 -14.289062 2.21875 -14.773438 2.21875 -15.203125 L 1.9375 -16.4375 C 1.9375 -16.5 1.957031 -16.554688 2 -16.609375 C 2.039062 -16.660156 2.082031 -16.757812 2.125 -16.90625 C 2.164062 -17.0625 2.210938 -17.28125 2.265625 -17.5625 C 2.316406 -17.851562 2.351562 -18.273438 2.375 -18.828125 C 2.414062 -19.878906 2.492188 -20.40625 2.609375 -20.40625 L 2.859375 -20.15625 C 2.898438 -20.15625 2.960938 -20.257812 3.046875 -20.46875 C 3.128906 -20.675781 3.171875 -20.929688 3.171875 -21.234375 L 2.921875 -22.375 C 2.984375 -22.644531 3.070312 -22.9375 3.1875 -23.25 C 3.300781 -23.570312 3.425781 -23.867188 3.5625 -24.140625 C 3.707031 -24.421875 3.863281 -24.648438 4.03125 -24.828125 C 4.195312 -25.015625 4.378906 -25.109375 4.578125 -25.109375 C 4.742188 -25.109375 4.910156 -25.019531 5.078125 -24.84375 L 5.078125 -25.546875 L 7.6875 -26.6875 L 7.6875 -27.453125 L 8.375 -27.078125 C 9.226562 -28.234375 10.203125 -28.898438 11.296875 -29.078125 Z M 15.109375 -24.28125 L 14.59375 -23.90625 C 14.09375 -24.050781 13.492188 -24.125 12.796875 -24.125 C 11.628906 -24.125 10.984375 -23.742188 10.859375 -22.984375 C 10.734375 -22.367188 10.507812 -21.945312 10.1875 -21.71875 C 9.875 -21.5 9.550781 -21.332031 9.21875 -21.21875 C 8.894531 -21.101562 8.601562 -20.957031 8.34375 -20.78125 C 8.09375 -20.613281 7.96875 -20.289062 7.96875 -19.8125 L 8 -19.765625 C 8 -19.390625 7.96875 -19.050781 7.90625 -18.75 C 7.84375 -18.457031 7.765625 -18.1875 7.671875 -17.9375 C 7.585938 -17.695312 7.515625 -17.472656 7.453125 -17.265625 C 7.390625 -17.054688 7.359375 -16.84375 7.359375 -16.625 L 7.625 -15.078125 L 7.421875 -14 L 7.625 -12.65625 L 7.359375 -9.84375 C 7.359375 -8.613281 7.921875 -7.679688 9.046875 -7.046875 C 9.554688 -6.941406 9.929688 -6.757812 10.171875 -6.5 C 10.410156 -6.25 10.597656 -5.988281 10.734375 -5.71875 C 10.878906 -5.457031 11.007812 -5.226562 11.125 -5.03125 C 11.238281 -4.832031 11.445312 -4.734375 11.75 -4.734375 L 14.09375 -5.265625 C 14.320312 -5.265625 14.53125 -5.226562 14.71875 -5.15625 C 14.914062 -5.082031 15.097656 -5 15.265625 -4.90625 C 15.429688 -4.8125 15.59375 -4.722656 15.75 -4.640625 C 15.914062 -4.566406 16.082031 -4.53125 16.25 -4.53125 C 16.457031 -4.53125 16.6875 -4.585938 16.9375 -4.703125 C 17.195312 -4.828125 17.429688 -4.972656 17.640625 -5.140625 C 17.859375 -5.304688 18.035156 -5.472656 18.171875 -5.640625 C 18.304688 -5.816406 18.375 -5.957031 18.375 -6.0625 C 18.375 -6.1875 18.300781 -6.289062 18.15625 -6.375 C 19.863281 -7.175781 20.796875 -8.660156 20.953125 -10.828125 L 21.421875 -10.5 L 20.828125 -12.53125 L 20.890625 -13.421875 L 21.9375 -12.984375 C 21.738281 -13.441406 21.410156 -13.738281 20.953125 -13.875 C 21.347656 -14.332031 21.546875 -14.816406 21.546875 -15.328125 C 21.546875 -15.835938 21.347656 -16.328125 20.953125 -16.796875 L 21.015625 -17.359375 C 21.015625 -17.722656 20.929688 -18.007812 20.765625 -18.21875 C 20.609375 -18.425781 20.53125 -18.742188 20.53125 -19.171875 L 20.5625 -19.8125 C 20.5625 -20.125 20.453125 -20.367188 20.234375 -20.546875 C 20.015625 -20.734375 19.757812 -20.898438 19.46875 -21.046875 C 19.1875 -21.191406 18.921875 -21.351562 18.671875 -21.53125 C 18.429688 -21.707031 18.289062 -21.96875 18.25 -22.3125 C 18.164062 -22.945312 17.5 -23.347656 16.25 -23.515625 L 16.28125 -23.234375 C 16.28125 -22.410156 15.582031 -22 14.1875 -22 L 14.09375 -22 C 14.601562 -22.25 14.859375 -22.488281 14.859375 -22.71875 C 14.859375 -22.875 14.757812 -23.015625 14.5625 -23.140625 C 15.351562 -23.160156 15.75 -23.242188 15.75 -23.390625 C 15.75 -23.515625 15.535156 -23.660156 15.109375 -23.828125 Z M 15.109375 -24.28125 "/></g></g></g><g fill="#000000" fill-opacity="1"><g transform="translate(151.891819, 56.624994)"><g><path d="M 15.8125 -28.5 C 15.875 -27.820312 16.878906 -27.359375 18.828125 -27.109375 C 18.078125 -26.492188 17.703125 -25.929688 17.703125 -25.421875 C 17.703125 -25.273438 17.738281 -25.113281 17.8125 -24.9375 C 17.894531 -24.769531 17.984375 -24.609375 18.078125 -24.453125 C 18.171875 -24.296875 18.253906 -24.140625 18.328125 -23.984375 C 18.398438 -23.835938 18.4375 -23.710938 18.4375 -23.609375 C 18.4375 -23.503906 18.414062 -23.421875 18.375 -23.359375 C 18.332031 -23.296875 18.28125 -23.21875 18.21875 -23.125 C 18.15625 -23.03125 18.101562 -22.898438 18.0625 -22.734375 C 18.019531 -22.578125 18 -22.363281 18 -22.09375 L 18.21875 -19.96875 L 17.671875 -20.3125 L 17.671875 -17.640625 C 18.054688 -17.328125 18.25 -17.019531 18.25 -16.71875 C 18.25 -16.425781 18.054688 -16.144531 17.671875 -15.875 L 17.671875 -13.046875 L 18.21875 -12.796875 L 18.21875 -10.671875 L 17.671875 -10.796875 L 18.34375 -6.765625 L 17.734375 -6.609375 L 18.21875 -5.203125 L 18.34375 -5.203125 C 19.34375 -5.203125 19.84375 -5.003906 19.84375 -4.609375 L 19.703125 -4.15625 L 23.234375 -3.875 L 24.15625 -4.03125 C 25.40625 -4.03125 26.492188 -3.109375 27.421875 -1.265625 L 26.6875 0.4375 L 25.453125 -0.765625 L 25.140625 0.09375 C 24.710938 0.238281 24.171875 0.3125 23.515625 0.3125 C 22.367188 0.3125 21.257812 -0.0664062 20.1875 -0.828125 L 20.34375 0.578125 L 18.859375 -0.1875 L 17.109375 0.4375 L 17.296875 -0.828125 C 16.304688 -0.0664062 15.257812 0.3125 14.15625 0.3125 C 13.476562 0.3125 12.65625 0.101562 11.6875 -0.3125 L 9.65625 0.25 L 6.125 0.09375 C 5.894531 -0.257812 5.628906 -0.4375 5.328125 -0.4375 C 4.972656 -0.4375 4.570312 -0.195312 4.125 0.28125 L 3.140625 -0.796875 L 3.5625 -2.703125 C 5.039062 -2.890625 5.78125 -3.21875 5.78125 -3.6875 L 9.140625 -4.40625 L 9.90625 -4.09375 C 10.5625 -4.75 11.1875 -5.078125 11.78125 -5.078125 L 12.4375 -4.921875 L 13.578125 -6.703125 L 13.578125 -7.75 C 13.265625 -8.84375 13.109375 -9.847656 13.109375 -10.765625 C 13.109375 -11.671875 13.265625 -12.492188 13.578125 -13.234375 L 13.078125 -13.90625 L 13.75 -16.5 C 13.59375 -17.09375 13.484375 -17.640625 13.421875 -18.140625 C 13.359375 -18.640625 13.328125 -19.085938 13.328125 -19.484375 C 13.328125 -20.117188 13.421875 -20.597656 13.609375 -20.921875 L 12.984375 -21.359375 C 13.335938 -21.910156 13.515625 -22.3125 13.515625 -22.5625 C 13.515625 -22.707031 13.472656 -22.816406 13.390625 -22.890625 C 13.304688 -22.972656 13.210938 -23.050781 13.109375 -23.125 C 13.003906 -23.195312 12.910156 -23.269531 12.828125 -23.34375 C 12.742188 -23.414062 12.703125 -23.523438 12.703125 -23.671875 L 12.828125 -24.09375 L 10.765625 -24.09375 C 10.335938 -24.34375 9.878906 -24.46875 9.390625 -24.46875 C 8.648438 -24.46875 7.890625 -24.203125 7.109375 -23.671875 C 6.179688 -24.160156 5.71875 -24.660156 5.71875 -25.171875 L 5.75 -25.421875 L 6.21875 -25.609375 L 5.75 -26.3125 L 7.453125 -28.15625 L 8.125 -27.609375 L 9.453125 -27.578125 C 9.773438 -27.960938 10.242188 -28.15625 10.859375 -28.15625 C 11.234375 -28.15625 11.890625 -28.003906 12.828125 -27.703125 C 12.929688 -27.347656 13.023438 -27.171875 13.109375 -27.171875 C 13.253906 -27.171875 13.367188 -27.625 13.453125 -28.53125 Z M 15.515625 -38.015625 L 15.9375 -37.984375 C 16.59375 -37.671875 17.132812 -37.363281 17.5625 -37.0625 C 18 -36.769531 18.34375 -36.472656 18.59375 -36.171875 C 18.851562 -35.878906 19.035156 -35.5625 19.140625 -35.21875 C 19.242188 -34.882812 19.296875 -34.53125 19.296875 -34.15625 C 19.296875 -33.664062 19.238281 -33.1875 19.125 -32.71875 C 19.007812 -32.257812 18.828125 -31.847656 18.578125 -31.484375 C 18.335938 -31.117188 18.023438 -30.828125 17.640625 -30.609375 C 17.265625 -30.390625 16.8125 -30.269531 16.28125 -30.25 L 14.15625 -28.90625 L 14.625 -30.21875 C 12.363281 -30.914062 11.234375 -31.953125 11.234375 -33.328125 L 11.359375 -34.1875 C 11.171875 -34.3125 11.078125 -34.488281 11.078125 -34.71875 C 11.078125 -35.0625 11.171875 -35.375 11.359375 -35.65625 C 11.546875 -35.945312 11.753906 -36.195312 11.984375 -36.40625 C 12.222656 -36.613281 12.441406 -36.769531 12.640625 -36.875 C 12.847656 -36.976562 12.972656 -37.03125 13.015625 -37.03125 L 13.171875 -37 C 13.296875 -37 13.359375 -37.109375 13.359375 -37.328125 L 13.328125 -37.578125 C 13.328125 -37.785156 13.457031 -37.890625 13.71875 -37.890625 C 13.945312 -37.890625 14.148438 -37.816406 14.328125 -37.671875 C 14.503906 -37.523438 14.613281 -37.453125 14.65625 -37.453125 C 14.707031 -37.453125 14.75 -37.484375 14.78125 -37.546875 C 14.8125 -37.609375 14.851562 -37.671875 14.90625 -37.734375 C 14.957031 -37.796875 15.03125 -37.859375 15.125 -37.921875 C 15.21875 -37.984375 15.347656 -38.015625 15.515625 -38.015625 Z M 15.515625 -38.015625 "/></g></g></g><g fill="#000000" fill-opacity="1"><g transform="translate(180.770181, 56.624994)"><g><path d="M 1.234375 -0.796875 L 1.65625 -2.703125 C 2.519531 -2.890625 2.953125 -3.195312 2.953125 -3.625 L 2.921875 -3.78125 L 5.015625 -4.40625 L 5.78125 -4.09375 C 6.113281 -4.75 6.492188 -5.078125 6.921875 -5.078125 L 7.359375 -4.921875 L 8.5 -6.703125 L 8.5 -7.75 C 8.1875 -8.84375 8.03125 -9.847656 8.03125 -10.765625 C 8.03125 -11.671875 8.1875 -12.492188 8.5 -13.234375 L 8 -13.90625 L 8.671875 -16.5 C 8.515625 -17.09375 8.40625 -17.640625 8.34375 -18.140625 C 8.28125 -18.640625 8.25 -19.085938 8.25 -19.484375 C 8.25 -20.117188 8.34375 -20.597656 8.53125 -20.921875 L 7.90625 -21.359375 C 8.257812 -21.910156 8.4375 -22.3125 8.4375 -22.5625 C 8.4375 -22.707031 8.394531 -22.816406 8.3125 -22.890625 C 8.226562 -22.972656 8.132812 -23.050781 8.03125 -23.125 C 7.925781 -23.195312 7.832031 -23.269531 7.75 -23.34375 C 7.664062 -23.414062 7.625 -23.523438 7.625 -23.671875 L 7.75 -24.09375 L 6 -24.09375 C 5.695312 -24.382812 5.367188 -24.53125 5.015625 -24.53125 C 4.628906 -24.53125 4.164062 -24.351562 3.625 -24 C 2.6875 -24.476562 2.21875 -24.972656 2.21875 -25.484375 L 2.25 -25.734375 L 2.734375 -25.9375 L 2.25 -26.625 L 3.96875 -28.46875 L 5.328125 -27.578125 C 5.648438 -27.960938 6.019531 -28.15625 6.4375 -28.15625 C 6.820312 -28.15625 7.257812 -28.003906 7.75 -27.703125 C 7.851562 -27.347656 7.945312 -27.171875 8.03125 -27.171875 C 8.175781 -27.171875 8.289062 -27.625 8.375 -28.53125 L 10.734375 -28.5 C 10.796875 -27.820312 11.800781 -27.359375 13.75 -27.109375 C 13 -26.492188 12.625 -25.929688 12.625 -25.421875 C 12.625 -25.273438 12.660156 -25.113281 12.734375 -24.9375 C 12.816406 -24.769531 12.90625 -24.609375 13 -24.453125 C 13.09375 -24.296875 13.175781 -24.140625 13.25 -23.984375 C 13.320312 -23.835938 13.359375 -23.710938 13.359375 -23.609375 C 13.359375 -23.441406 13.300781 -23.316406 13.1875 -23.234375 C 13.070312 -23.148438 13.015625 -23.054688 13.015625 -22.953125 C 13.015625 -22.734375 13.363281 -22.53125 14.0625 -22.34375 L 14.46875 -22.890625 L 15.671875 -23.171875 L 14.953125 -23.703125 L 16.984375 -24.84375 L 16.765625 -25.703125 L 17.453125 -25.515625 C 17.898438 -25.515625 18.21875 -25.851562 18.40625 -26.53125 L 19.296875 -27.203125 L 20.0625 -27.140625 C 21.007812 -27.140625 21.757812 -27.445312 22.3125 -28.0625 L 23.078125 -27.9375 L 23.515625 -27.546875 C 23.722656 -27.734375 23.9375 -27.828125 24.15625 -27.828125 C 24.257812 -27.828125 24.363281 -27.785156 24.46875 -27.703125 C 24.570312 -27.617188 24.6875 -27.523438 24.8125 -27.421875 C 24.945312 -27.316406 25.097656 -27.210938 25.265625 -27.109375 C 25.429688 -27.003906 25.617188 -26.925781 25.828125 -26.875 L 26.5625 -25.765625 L 27.140625 -26.46875 L 26.921875 -25.234375 L 27.296875 -24.6875 L 26.984375 -24.09375 C 27.234375 -23.644531 27.359375 -23.1875 27.359375 -22.71875 C 27.359375 -21.832031 26.9375 -20.9375 26.09375 -20.03125 L 25.859375 -20.5 L 25.328125 -20.21875 L 25.734375 -19.578125 L 24.6875 -19.765625 C 24.289062 -19.765625 23.984375 -19.660156 23.765625 -19.453125 L 22.890625 -19.484375 L 22.859375 -20.09375 L 22.53125 -20.0625 C 21.832031 -20.0625 21.316406 -20.472656 20.984375 -21.296875 C 21.316406 -21.765625 21.484375 -22.125 21.484375 -22.375 C 21.484375 -22.644531 21.273438 -22.78125 20.859375 -22.78125 L 20.28125 -22.71875 L 20.21875 -23.703125 C 19.519531 -23.453125 19.171875 -23.179688 19.171875 -22.890625 L 19.265625 -22.5625 L 18.75 -22.28125 L 19.046875 -20.78125 L 18.25 -22 C 17.78125 -20.644531 17.207031 -19.96875 16.53125 -19.96875 C 16.300781 -19.96875 16.082031 -20.039062 15.875 -20.1875 L 14.765625 -19.640625 L 14.6875 -18.953125 L 13.328125 -18.984375 L 12.59375 -17.640625 C 12.976562 -17.328125 13.171875 -17.019531 13.171875 -16.71875 C 13.171875 -16.425781 12.976562 -16.144531 12.59375 -15.875 L 12.59375 -13.046875 L 13.140625 -12.796875 L 13.140625 -10.671875 L 12.59375 -10.796875 L 13.265625 -6.765625 L 12.65625 -6.609375 L 13.140625 -5.203125 L 13.265625 -5.203125 C 14.472656 -5.203125 15.078125 -4.976562 15.078125 -4.53125 L 14.953125 -4.15625 C 15.347656 -4.363281 15.8125 -4.46875 16.34375 -4.46875 C 16.789062 -4.46875 17.222656 -4.351562 17.640625 -4.125 L 18.6875 -4.734375 L 20 -4.703125 L 20.375 -3.875 L 21.203125 -4.03125 C 22.304688 -4.03125 23.320312 -3.109375 24.25 -1.265625 L 23.515625 -0.125 L 22.28125 -0.765625 L 21.96875 0.09375 L 20.75 0.03125 C 19.925781 0.03125 19.164062 0.125 18.46875 0.3125 L 16.625 -0.28125 L 15.75 -0.40625 L 15.578125 0.578125 L 13.78125 -0.1875 L 12.03125 0.4375 L 10.21875 -0.578125 C 9.988281 0.0546875 9.535156 0.375 8.859375 0.375 C 8.265625 0.375 7.515625 0.144531 6.609375 -0.3125 L 5.515625 0.25 L 3.265625 0.09375 C 3.035156 -0.257812 2.835938 -0.4375 2.671875 -0.4375 C 2.472656 -0.4375 2.320312 -0.195312 2.21875 0.28125 Z M 1.234375 -0.796875 "/></g></g></g><g fill="#000000" fill-opacity="1"><g transform="translate(209.648543, 56.624994)"><g/></g></g><g fill="#000000" fill-opacity="1"><g transform="translate(238.526906, 56.624994)"><g><path d="M 5.84375 -1.96875 C 5.863281 -2.050781 5.875 -2.125 5.875 -2.1875 C 5.875 -2.269531 5.863281 -2.351562 5.84375 -2.4375 L 5.84375 -2.546875 C 5.84375 -2.648438 5.863281 -2.742188 5.90625 -2.828125 C 5.90625 -4.117188 5.671875 -5.363281 5.203125 -6.5625 L 5.65625 -6.765625 C 5.226562 -7.179688 5.015625 -7.625 5.015625 -8.09375 C 5.015625 -8.476562 5.117188 -8.835938 5.328125 -9.171875 C 4.929688 -9.828125 4.734375 -10.503906 4.734375 -11.203125 L 4.984375 -13.140625 L 4.21875 -13.140625 L 4.0625 -13.640625 C 4.0625 -13.960938 4.273438 -14.21875 4.703125 -14.40625 C 4.234375 -15.320312 4 -16.222656 4 -17.109375 C 4 -17.503906 4.101562 -17.78125 4.3125 -17.9375 L 4 -18.375 L 3.90625 -18.25 L 3.90625 -21.203125 L 3.515625 -21.203125 L 3.296875 -24.5 L 4 -24.59375 L 4 -25.140625 L 3.328125 -25.734375 L 2.921875 -28.5 L 3.6875 -29.890625 L 2.953125 -30.03125 L 3.078125 -34.03125 C 3.078125 -34.8125 2.664062 -35.203125 1.84375 -35.203125 L 0.640625 -35 L 0.828125 -35.484375 C 0.828125 -35.628906 0.695312 -35.703125 0.4375 -35.703125 L 0.25 -35.703125 L 0.34375 -36.28125 C 0.34375 -36.613281 0.226562 -36.929688 0 -37.234375 C 0.40625 -37.253906 0.660156 -37.539062 0.765625 -38.09375 L 2.0625 -37.890625 C 2.59375 -37.890625 2.878906 -38.050781 2.921875 -38.375 L 3.421875 -38.375 C 4.210938 -38.113281 4.957031 -37.984375 5.65625 -37.984375 C 6.414062 -37.984375 7.113281 -38.144531 7.75 -38.46875 L 8.640625 -38.375 L 9.90625 -37.640625 L 9.90625 -35.984375 L 9.328125 -36.0625 C 8.398438 -36.0625 7.84375 -35.507812 7.65625 -34.40625 C 6.90625 -34.101562 6.53125 -33.601562 6.53125 -32.90625 C 6.53125 -32.445312 6.640625 -32.015625 6.859375 -31.609375 L 6.859375 -30.984375 C 6.859375 -29.140625 7.023438 -28.1875 7.359375 -28.125 L 7.359375 -27.265625 C 7.085938 -26.921875 6.953125 -26.53125 6.953125 -26.09375 C 6.953125 -25.644531 7.109375 -25.1875 7.421875 -24.71875 C 7.210938 -24.320312 7.109375 -23.898438 7.109375 -23.453125 C 7.109375 -22.734375 7.425781 -22.078125 8.0625 -21.484375 C 7.71875 -21.015625 7.546875 -20.488281 7.546875 -19.90625 C 7.546875 -19.394531 7.65625 -19.078125 7.875 -18.953125 C 7.726562 -18.910156 7.65625 -18.78125 7.65625 -18.5625 C 7.65625 -18.457031 7.679688 -18.191406 7.734375 -17.765625 C 7.785156 -17.347656 7.851562 -16.898438 7.9375 -16.421875 C 8.019531 -15.941406 8.113281 -15.507812 8.21875 -15.125 C 8.320312 -14.75 8.425781 -14.5625 8.53125 -14.5625 C 8.8125 -14.5625 9.054688 -15.585938 9.265625 -17.640625 C 9.117188 -17.773438 9.046875 -17.96875 9.046875 -18.21875 C 9.046875 -18.488281 9.128906 -18.835938 9.296875 -19.265625 C 9.460938 -19.691406 9.546875 -20.039062 9.546875 -20.3125 L 9.328125 -21.328125 L 9.453125 -21.328125 C 9.859375 -21.328125 10.0625 -21.910156 10.0625 -23.078125 L 9.96875 -24.59375 C 10.664062 -24.675781 11.015625 -24.953125 11.015625 -25.421875 L 10.53125 -27.671875 C 10.957031 -28.160156 11.171875 -28.550781 11.171875 -28.84375 C 11.171875 -29.082031 11.054688 -29.285156 10.828125 -29.453125 L 11.234375 -30.53125 L 11.90625 -30.25 C 11.90625 -30.394531 11.679688 -30.773438 11.234375 -31.390625 L 11.8125 -31.578125 C 11.726562 -31.722656 11.6875 -32.101562 11.6875 -32.71875 C 11.6875 -33.0625 11.710938 -33.441406 11.765625 -33.859375 C 11.816406 -34.285156 11.894531 -34.742188 12 -35.234375 L 12.3125 -35.546875 L 12.703125 -35.421875 C 12.992188 -35.421875 13.203125 -35.738281 13.328125 -36.375 L 13.875 -36.1875 C 14.1875 -36.1875 14.472656 -36.394531 14.734375 -36.8125 C 14.859375 -36.175781 15.195312 -35.796875 15.75 -35.671875 L 15.671875 -35.046875 C 15.671875 -34.171875 16.035156 -33.4375 16.765625 -32.84375 L 16.953125 -32.15625 C 16.953125 -31.789062 16.757812 -31.503906 16.375 -31.296875 L 16.375 -30.3125 C 17.03125 -30.164062 17.359375 -29.972656 17.359375 -29.734375 C 17.359375 -29.628906 17.304688 -29.53125 17.203125 -29.4375 C 17.097656 -29.34375 17.046875 -29.210938 17.046875 -29.046875 C 17.046875 -28.890625 17.097656 -28.707031 17.203125 -28.5 C 17.304688 -28.289062 17.414062 -28.0625 17.53125 -27.8125 C 17.644531 -27.570312 17.753906 -27.320312 17.859375 -27.0625 C 17.972656 -26.8125 18.03125 -26.582031 18.03125 -26.375 C 18.03125 -26.1875 17.992188 -25.992188 17.921875 -25.796875 C 17.847656 -25.609375 17.757812 -25.425781 17.65625 -25.25 C 17.5625 -25.070312 17.476562 -24.90625 17.40625 -24.75 C 17.332031 -24.601562 17.296875 -24.476562 17.296875 -24.375 C 17.296875 -24.25 17.335938 -24.160156 17.421875 -24.109375 C 17.503906 -24.054688 17.59375 -24.015625 17.6875 -23.984375 C 17.789062 -23.953125 17.882812 -23.90625 17.96875 -23.84375 C 18.050781 -23.789062 18.09375 -23.703125 18.09375 -23.578125 C 18.09375 -23.328125 17.921875 -23 17.578125 -22.59375 C 17.753906 -21.664062 18.113281 -21.203125 18.65625 -21.203125 L 18.859375 -21.203125 L 18.859375 -19.9375 C 19.128906 -19.59375 19.265625 -19.1875 19.265625 -18.71875 C 19.265625 -18.320312 19.140625 -17.898438 18.890625 -17.453125 L 19.359375 -15.421875 C 19.046875 -14.617188 18.890625 -14.015625 18.890625 -13.609375 C 18.890625 -13.066406 19.078125 -12.707031 19.453125 -12.53125 C 19.617188 -12.707031 19.742188 -12.800781 19.828125 -12.8125 C 19.921875 -12.820312 20.019531 -12.835938 20.125 -12.859375 L 20.125 -18.09375 L 20.53125 -17.734375 L 20.53125 -18.125 C 20.53125 -19.394531 20.210938 -20.050781 19.578125 -20.09375 L 20.125 -20.625 L 20.125 -21.484375 C 20.613281 -22.160156 20.859375 -23 20.859375 -24 L 20.75 -25.140625 L 20.53125 -25.015625 C 20.382812 -25.015625 20.3125 -25.265625 20.3125 -25.765625 C 20.3125 -26.003906 20.359375 -26.195312 20.453125 -26.34375 C 20.546875 -26.488281 20.59375 -26.742188 20.59375 -27.109375 C 20.59375 -27.929688 20.425781 -28.722656 20.09375 -29.484375 L 20.4375 -29.390625 C 20.78125 -29.390625 21.015625 -29.71875 21.140625 -30.375 C 20.859375 -30.707031 20.71875 -31.191406 20.71875 -31.828125 C 20.71875 -32.253906 20.898438 -33.164062 21.265625 -34.5625 C 19.023438 -34.8125 17.90625 -35.425781 17.90625 -36.40625 L 18 -36.875 L 19.140625 -38.3125 L 20.5 -38.046875 C 21.238281 -38.046875 22.007812 -38.269531 22.8125 -38.71875 C 23.726562 -38.25 24.84375 -38.015625 26.15625 -38.015625 L 26.4375 -38.015625 L 26.8125 -38.53125 C 27.03125 -37.8125 27.378906 -37.453125 27.859375 -37.453125 L 28.0625 -36.9375 C 28.0625 -36.519531 27.867188 -36.023438 27.484375 -35.453125 L 27.765625 -35.171875 L 27.234375 -34.625 C 26.910156 -34.875 26.644531 -35 26.4375 -35 C 26.007812 -35 25.765625 -34.492188 25.703125 -33.484375 L 25.046875 -34.375 C 24.765625 -33.84375 24.625 -33.09375 24.625 -32.125 C 24.625 -31.101562 24.859375 -30.140625 25.328125 -29.234375 L 25.328125 -29.046875 C 25.328125 -28.617188 25.113281 -28.351562 24.6875 -28.25 L 24.84375 -26.921875 C 24.84375 -25.410156 24.675781 -24.007812 24.34375 -22.71875 L 23.796875 -22.3125 C 24.097656 -21.820312 24.289062 -21.300781 24.375 -20.75 L 24.03125 -20.4375 L 24.1875 -17.234375 C 23.90625 -16.890625 23.765625 -16.539062 23.765625 -16.1875 L 23.875 -15.671875 C 23.613281 -15.253906 23.484375 -14.738281 23.484375 -14.125 C 23.484375 -13.488281 23.613281 -12.78125 23.875 -12 L 23.140625 -11.84375 L 23.140625 -9.6875 L 23.546875 -9.75 C 23.171875 -8.9375 22.984375 -8.085938 22.984375 -7.203125 L 22.34375 -3.078125 L 21.96875 -4.609375 L 21.328125 -3.328125 C 21.554688 -3.035156 21.671875 -2.71875 21.671875 -2.375 C 21.671875 -1.675781 21.175781 -0.738281 20.1875 0.4375 L 20.1875 0.34375 C 20.1875 0.0703125 19.785156 -0.0625 18.984375 -0.0625 L 18.828125 -0.0625 C 17.929688 -0.3125 17.484375 -0.765625 17.484375 -1.421875 C 17.484375 -1.742188 17.582031 -2.09375 17.78125 -2.46875 C 17.1875 -3.257812 16.890625 -3.972656 16.890625 -4.609375 L 16.984375 -5.421875 C 16.984375 -5.679688 16.914062 -5.890625 16.78125 -6.046875 C 16.65625 -6.203125 16.519531 -6.332031 16.375 -6.4375 C 16.226562 -6.550781 16.09375 -6.664062 15.96875 -6.78125 C 15.84375 -6.894531 15.78125 -7.046875 15.78125 -7.234375 C 15.78125 -7.660156 15.976562 -8.171875 16.375 -8.765625 C 15.613281 -9.078125 15.234375 -9.40625 15.234375 -9.75 C 15.234375 -9.914062 15.332031 -10.125 15.53125 -10.375 C 15.738281 -10.632812 15.84375 -10.890625 15.84375 -11.140625 C 15.84375 -11.347656 15.785156 -11.5625 15.671875 -11.78125 C 15.566406 -12.007812 15.515625 -12.335938 15.515625 -12.765625 L 15.75 -14.6875 C 15.65625 -14.96875 15.585938 -15.328125 15.546875 -15.765625 C 15.503906 -16.210938 15.460938 -16.640625 15.421875 -17.046875 C 15.378906 -17.460938 15.335938 -17.820312 15.296875 -18.125 C 15.253906 -18.269531 15.210938 -18.34375 15.171875 -18.34375 C 15.109375 -18.34375 15.046875 -18.28125 14.984375 -18.15625 C 15.003906 -18.238281 15.015625 -18.300781 15.015625 -18.34375 C 15.015625 -18.445312 14.984375 -18.5 14.921875 -18.5 L 14.859375 -18.5 L 14.859375 -18.59375 C 14.859375 -19.945312 14.429688 -20.734375 13.578125 -20.953125 C 13.578125 -20.441406 13.546875 -20.019531 13.484375 -19.6875 C 13.421875 -19.363281 13.351562 -19.078125 13.28125 -18.828125 C 13.207031 -18.585938 13.140625 -18.375 13.078125 -18.1875 C 13.015625 -18 12.984375 -17.796875 12.984375 -17.578125 L 13.328125 -16.09375 L 13.203125 -15.671875 L 13.015625 -15.75 C 12.671875 -15.75 12.363281 -15.195312 12.09375 -14.09375 L 12.5625 -12.984375 C 12.101562 -12.578125 11.875 -12.078125 11.875 -11.484375 L 12.125 -10.3125 C 11.9375 -9.957031 11.84375 -9.578125 11.84375 -9.171875 C 11.84375 -8.878906 12.019531 -8.222656 12.375 -7.203125 L 11.484375 -6.34375 L 11.546875 -5.421875 C 11.546875 -3.984375 10.945312 -2.71875 9.75 -1.625 C 9.382812 -0.3125 8.832031 0.34375 8.09375 0.34375 C 7.6875 0.34375 7.210938 0.132812 6.671875 -0.28125 Z M 15.015625 -21.515625 C 15.015625 -23.648438 14.84375 -24.71875 14.5 -24.71875 C 14.375 -24.71875 14.273438 -24.640625 14.203125 -24.484375 C 14.128906 -24.328125 14.066406 -24.140625 14.015625 -23.921875 C 13.960938 -23.710938 13.925781 -23.503906 13.90625 -23.296875 C 13.882812 -23.085938 13.875 -22.925781 13.875 -22.8125 C 13.875 -21.84375 14.253906 -21.316406 15.015625 -21.234375 Z M 15.015625 -21.515625 "/></g></g></g><g fill="#000000" fill-opacity="1"><g transform="translate(267.405268, 56.624994)"><g><path d="M 1.234375 -0.796875 L 1.65625 -2.703125 C 2.519531 -2.890625 2.953125 -3.195312 2.953125 -3.625 L 2.921875 -3.78125 L 5.015625 -4.40625 L 5.78125 -4.09375 C 6.113281 -4.75 6.492188 -5.078125 6.921875 -5.078125 L 7.359375 -4.921875 L 8.5 -6.703125 L 8.5 -7.75 C 8.1875 -8.84375 8.03125 -9.847656 8.03125 -10.765625 C 8.03125 -11.671875 8.1875 -12.492188 8.5 -13.234375 L 8 -13.90625 L 8.671875 -16.5 C 8.515625 -17.09375 8.40625 -17.640625 8.34375 -18.140625 C 8.28125 -18.640625 8.25 -19.085938 8.25 -19.484375 C 8.25 -20.117188 8.34375 -20.597656 8.53125 -20.921875 L 7.90625 -21.359375 C 8.257812 -21.910156 8.4375 -22.3125 8.4375 -22.5625 C 8.4375 -22.707031 8.394531 -22.816406 8.3125 -22.890625 C 8.226562 -22.972656 8.132812 -23.050781 8.03125 -23.125 C 7.925781 -23.195312 7.832031 -23.269531 7.75 -23.34375 C 7.664062 -23.414062 7.625 -23.523438 7.625 -23.671875 L 7.75 -24.09375 L 6 -24.09375 C 5.695312 -24.382812 5.367188 -24.53125 5.015625 -24.53125 C 4.628906 -24.53125 4.164062 -24.351562 3.625 -24 C 2.6875 -24.476562 2.21875 -24.972656 2.21875 -25.484375 L 2.25 -25.734375 L 2.734375 -25.9375 L 2.25 -26.625 L 3.96875 -28.46875 L 5.328125 -27.578125 C 5.648438 -27.960938 6.019531 -28.15625 6.4375 -28.15625 C 6.820312 -28.15625 7.257812 -28.003906 7.75 -27.703125 C 7.851562 -27.347656 7.945312 -27.171875 8.03125 -27.171875 C 8.175781 -27.171875 8.289062 -27.625 8.375 -28.53125 L 10.734375 -28.5 C 10.796875 -27.820312 11.800781 -27.359375 13.75 -27.109375 C 13 -26.492188 12.625 -25.929688 12.625 -25.421875 C 12.625 -25.273438 12.660156 -25.113281 12.734375 -24.9375 C 12.816406 -24.769531 12.90625 -24.609375 13 -24.453125 C 13.09375 -24.296875 13.175781 -24.140625 13.25 -23.984375 C 13.320312 -23.835938 13.359375 -23.710938 13.359375 -23.609375 C 13.359375 -23.441406 13.300781 -23.316406 13.1875 -23.234375 C 13.070312 -23.148438 13.015625 -23.054688 13.015625 -22.953125 C 13.015625 -22.734375 13.363281 -22.53125 14.0625 -22.34375 L 14.46875 -22.890625 L 15.671875 -23.171875 L 14.953125 -23.703125 L 16.984375 -24.84375 L 16.765625 -25.703125 L 17.453125 -25.515625 C 17.898438 -25.515625 18.21875 -25.851562 18.40625 -26.53125 L 19.296875 -27.203125 L 20.0625 -27.140625 C 21.007812 -27.140625 21.757812 -27.445312 22.3125 -28.0625 L 23.078125 -27.9375 L 23.515625 -27.546875 C 23.722656 -27.734375 23.9375 -27.828125 24.15625 -27.828125 C 24.257812 -27.828125 24.363281 -27.785156 24.46875 -27.703125 C 24.570312 -27.617188 24.6875 -27.523438 24.8125 -27.421875 C 24.945312 -27.316406 25.097656 -27.210938 25.265625 -27.109375 C 25.429688 -27.003906 25.617188 -26.925781 25.828125 -26.875 L 26.5625 -25.765625 L 27.140625 -26.46875 L 26.921875 -25.234375 L 27.296875 -24.6875 L 26.984375 -24.09375 C 27.234375 -23.644531 27.359375 -23.1875 27.359375 -22.71875 C 27.359375 -21.832031 26.9375 -20.9375 26.09375 -20.03125 L 25.859375 -20.5 L 25.328125 -20.21875 L 25.734375 -19.578125 L 24.6875 -19.765625 C 24.289062 -19.765625 23.984375 -19.660156 23.765625 -19.453125 L 22.890625 -19.484375 L 22.859375 -20.09375 L 22.53125 -20.0625 C 21.832031 -20.0625 21.316406 -20.472656 20.984375 -21.296875 C 21.316406 -21.765625 21.484375 -22.125 21.484375 -22.375 C 21.484375 -22.644531 21.273438 -22.78125 20.859375 -22.78125 L 20.28125 -22.71875 L 20.21875 -23.703125 C 19.519531 -23.453125 19.171875 -23.179688 19.171875 -22.890625 L 19.265625 -22.5625 L 18.75 -22.28125 L 19.046875 -20.78125 L 18.25 -22 C 17.78125 -20.644531 17.207031 -19.96875 16.53125 -19.96875 C 16.300781 -19.96875 16.082031 -20.039062 15.875 -20.1875 L 14.765625 -19.640625 L 14.6875 -18.953125 L 13.328125 -18.984375 L 12.59375 -17.640625 C 12.976562 -17.328125 13.171875 -17.019531 13.171875 -16.71875 C 13.171875 -16.425781 12.976562 -16.144531 12.59375 -15.875 L 12.59375 -13.046875 L 13.140625 -12.796875 L 13.140625 -10.671875 L 12.59375 -10.796875 L 13.265625 -6.765625 L 12.65625 -6.609375 L 13.140625 -5.203125 L 13.265625 -5.203125 C 14.472656 -5.203125 15.078125 -4.976562 15.078125 -4.53125 L 14.953125 -4.15625 C 15.347656 -4.363281 15.8125 -4.46875 16.34375 -4.46875 C 16.789062 -4.46875 17.222656 -4.351562 17.640625 -4.125 L 18.6875 -4.734375 L 20 -4.703125 L 20.375 -3.875 L 21.203125 -4.03125 C 22.304688 -4.03125 23.320312 -3.109375 24.25 -1.265625 L 23.515625 -0.125 L 22.28125 -0.765625 L 21.96875 0.09375 L 20.75 0.03125 C 19.925781 0.03125 19.164062 0.125 18.46875 0.3125 L 16.625 -0.28125 L 15.75 -0.40625 L 15.578125 0.578125 L 13.78125 -0.1875 L 12.03125 0.4375 L 10.21875 -0.578125 C 9.988281 0.0546875 9.535156 0.375 8.859375 0.375 C 8.265625 0.375 7.515625 0.144531 6.609375 -0.3125 L 5.515625 0.25 L 3.265625 0.09375 C 3.035156 -0.257812 2.835938 -0.4375 2.671875 -0.4375 C 2.472656 -0.4375 2.320312 -0.195312 2.21875 0.28125 Z M 1.234375 -0.796875 "/></g></g></g><g fill="#000000" fill-opacity="1"><g transform="translate(296.28363, 56.624994)"><g><path d="M 15.8125 -28.5 C 15.875 -27.820312 16.878906 -27.359375 18.828125 -27.109375 C 18.078125 -26.492188 17.703125 -25.929688 17.703125 -25.421875 C 17.703125 -25.273438 17.738281 -25.113281 17.8125 -24.9375 C 17.894531 -24.769531 17.984375 -24.609375 18.078125 -24.453125 C 18.171875 -24.296875 18.253906 -24.140625 18.328125 -23.984375 C 18.398438 -23.835938 18.4375 -23.710938 18.4375 -23.609375 C 18.4375 -23.503906 18.414062 -23.421875 18.375 -23.359375 C 18.332031 -23.296875 18.28125 -23.21875 18.21875 -23.125 C 18.15625 -23.03125 18.101562 -22.898438 18.0625 -22.734375 C 18.019531 -22.578125 18 -22.363281 18 -22.09375 L 18.21875 -19.96875 L 17.671875 -20.3125 L 17.671875 -17.640625 C 18.054688 -17.328125 18.25 -17.019531 18.25 -16.71875 C 18.25 -16.425781 18.054688 -16.144531 17.671875 -15.875 L 17.671875 -13.046875 L 18.21875 -12.796875 L 18.21875 -10.671875 L 17.671875 -10.796875 L 18.34375 -6.765625 L 17.734375 -6.609375 L 18.21875 -5.203125 L 18.34375 -5.203125 C 19.34375 -5.203125 19.84375 -5.003906 19.84375 -4.609375 L 19.703125 -4.15625 L 23.234375 -3.875 L 24.15625 -4.03125 C 25.40625 -4.03125 26.492188 -3.109375 27.421875 -1.265625 L 26.6875 0.4375 L 25.453125 -0.765625 L 25.140625 0.09375 C 24.710938 0.238281 24.171875 0.3125 23.515625 0.3125 C 22.367188 0.3125 21.257812 -0.0664062 20.1875 -0.828125 L 20.34375 0.578125 L 18.859375 -0.1875 L 17.109375 0.4375 L 17.296875 -0.828125 C 16.304688 -0.0664062 15.257812 0.3125 14.15625 0.3125 C 13.476562 0.3125 12.65625 0.101562 11.6875 -0.3125 L 9.65625 0.25 L 6.125 0.09375 C 5.894531 -0.257812 5.628906 -0.4375 5.328125 -0.4375 C 4.972656 -0.4375 4.570312 -0.195312 4.125 0.28125 L 3.140625 -0.796875 L 3.5625 -2.703125 C 5.039062 -2.890625 5.78125 -3.21875 5.78125 -3.6875 L 9.140625 -4.40625 L 9.90625 -4.09375 C 10.5625 -4.75 11.1875 -5.078125 11.78125 -5.078125 L 12.4375 -4.921875 L 13.578125 -6.703125 L 13.578125 -7.75 C 13.265625 -8.84375 13.109375 -9.847656 13.109375 -10.765625 C 13.109375 -11.671875 13.265625 -12.492188 13.578125 -13.234375 L 13.078125 -13.90625 L 13.75 -16.5 C 13.59375 -17.09375 13.484375 -17.640625 13.421875 -18.140625 C 13.359375 -18.640625 13.328125 -19.085938 13.328125 -19.484375 C 13.328125 -20.117188 13.421875 -20.597656 13.609375 -20.921875 L 12.984375 -21.359375 C 13.335938 -21.910156 13.515625 -22.3125 13.515625 -22.5625 C 13.515625 -22.707031 13.472656 -22.816406 13.390625 -22.890625 C 13.304688 -22.972656 13.210938 -23.050781 13.109375 -23.125 C 13.003906 -23.195312 12.910156 -23.269531 12.828125 -23.34375 C 12.742188 -23.414062 12.703125 -23.523438 12.703125 -23.671875 L 12.828125 -24.09375 L 10.765625 -24.09375 C 10.335938 -24.34375 9.878906 -24.46875 9.390625 -24.46875 C 8.648438 -24.46875 7.890625 -24.203125 7.109375 -23.671875 C 6.179688 -24.160156 5.71875 -24.660156 5.71875 -25.171875 L 5.75 -25.421875 L 6.21875 -25.609375 L 5.75 -26.3125 L 7.453125 -28.15625 L 8.125 -27.609375 L 9.453125 -27.578125 C 9.773438 -27.960938 10.242188 -28.15625 10.859375 -28.15625 C 11.234375 -28.15625 11.890625 -28.003906 12.828125 -27.703125 C 12.929688 -27.347656 13.023438 -27.171875 13.109375 -27.171875 C 13.253906 -27.171875 13.367188 -27.625 13.453125 -28.53125 Z M 15.515625 -38.015625 L 15.9375 -37.984375 C 16.59375 -37.671875 17.132812 -37.363281 17.5625 -37.0625 C 18 -36.769531 18.34375 -36.472656 18.59375 -36.171875 C 18.851562 -35.878906 19.035156 -35.5625 19.140625 -35.21875 C 19.242188 -34.882812 19.296875 -34.53125 19.296875 -34.15625 C 19.296875 -33.664062 19.238281 -33.1875 19.125 -32.71875 C 19.007812 -32.257812 18.828125 -31.847656 18.578125 -31.484375 C 18.335938 -31.117188 18.023438 -30.828125 17.640625 -30.609375 C 17.265625 -30.390625 16.8125 -30.269531 16.28125 -30.25 L 14.15625 -28.90625 L 14.625 -30.21875 C 12.363281 -30.914062 11.234375 -31.953125 11.234375 -33.328125 L 11.359375 -34.1875 C 11.171875 -34.3125 11.078125 -34.488281 11.078125 -34.71875 C 11.078125 -35.0625 11.171875 -35.375 11.359375 -35.65625 C 11.546875 -35.945312 11.753906 -36.195312 11.984375 -36.40625 C 12.222656 -36.613281 12.441406 -36.769531 12.640625 -36.875 C 12.847656 -36.976562 12.972656 -37.03125 13.015625 -37.03125 L 13.171875 -37 C 13.296875 -37 13.359375 -37.109375 13.359375 -37.328125 L 13.328125 -37.578125 C 13.328125 -37.785156 13.457031 -37.890625 13.71875 -37.890625 C 13.945312 -37.890625 14.148438 -37.816406 14.328125 -37.671875 C 14.503906 -37.523438 14.613281 -37.453125 14.65625 -37.453125 C 14.707031 -37.453125 14.75 -37.484375 14.78125 -37.546875 C 14.8125 -37.609375 14.851562 -37.671875 14.90625 -37.734375 C 14.957031 -37.796875 15.03125 -37.859375 15.125 -37.921875 C 15.21875 -37.984375 15.347656 -38.015625 15.515625 -38.015625 Z M 15.515625 -38.015625 "/></g></g></g><g fill="#000000" fill-opacity="1"><g transform="translate(325.161992, 56.624994)"><g><path d="M 10.765625 -5.546875 L 9.609375 -6.671875 L 10.796875 -7.421875 L 9.8125 -8.53125 L 9.71875 -10.09375 C 9.71875 -11.363281 9.9375 -12.410156 10.375 -13.234375 L 9.875 -13.90625 L 10.53125 -16.5 C 9.96875 -17.03125 9.6875 -17.539062 9.6875 -18.03125 C 9.6875 -18.539062 10.066406 -18.972656 10.828125 -19.328125 L 9.78125 -21.671875 C 10.132812 -22.222656 10.3125 -22.628906 10.3125 -22.890625 C 10.3125 -23.035156 10.269531 -23.144531 10.1875 -23.21875 C 10.101562 -23.289062 10.007812 -23.363281 9.90625 -23.4375 C 9.800781 -23.507812 9.703125 -23.582031 9.609375 -23.65625 C 9.523438 -23.726562 9.484375 -23.84375 9.484375 -24 L 9.609375 -24.40625 L 7.546875 -24.40625 C 7.046875 -24.65625 6.550781 -24.78125 6.0625 -24.78125 C 5.34375 -24.78125 4.625 -24.519531 3.90625 -24 C 2.96875 -24.476562 2.5 -24.972656 2.5 -25.484375 L 2.546875 -25.734375 L 3.015625 -25.9375 L 2.734375 -27.359375 L 4.25 -28.46875 L 5.546875 -27.9375 L 6.890625 -28 C 6.972656 -28.394531 7.3125 -28.59375 7.90625 -28.59375 L 9.90625 -28.125 C 10.15625 -28.125 10.28125 -28.269531 10.28125 -28.5625 L 10.25 -28.84375 L 10.953125 -29.140625 L 10 -31.609375 L 11.359375 -31.484375 L 10.0625 -33.140625 C 10.351562 -33.679688 10.5 -34.421875 10.5 -35.359375 L 10.15625 -38.5 L 11.90625 -38.15625 C 11.988281 -39.101562 12.472656 -39.578125 13.359375 -39.578125 C 13.828125 -39.578125 14.398438 -39.453125 15.078125 -39.203125 L 15.078125 -38.71875 C 15.078125 -38.226562 15.125 -37.820312 15.21875 -37.5 C 15.3125 -37.1875 15.359375 -36.882812 15.359375 -36.59375 C 15.359375 -36.34375 15.179688 -35.757812 14.828125 -34.84375 L 15.84375 -34.34375 L 14.1875 -32.84375 L 15.484375 -31.609375 L 14.46875 -31.546875 L 15.578125 -30.46875 C 14.941406 -29.789062 14.625 -29.347656 14.625 -29.140625 C 14.625 -29.015625 14.722656 -28.953125 14.921875 -28.953125 C 15.210938 -28.953125 15.5 -29.023438 15.78125 -29.171875 L 15.609375 -27.421875 L 16.59375 -27.296875 L 16.828125 -28.15625 L 18.125 -27.671875 C 18.59375 -27.929688 19.117188 -28.0625 19.703125 -28.0625 C 20.066406 -28.0625 20.691406 -27.941406 21.578125 -27.703125 C 21.796875 -28.046875 22.082031 -28.21875 22.4375 -28.21875 C 22.882812 -28.21875 23.4375 -27.953125 24.09375 -27.421875 L 24.4375 -28.25 L 26 -26.40625 L 26.28125 -25.515625 C 25.851562 -25.472656 25.640625 -25.316406 25.640625 -25.046875 C 25.640625 -24.722656 25.84375 -24.296875 26.25 -23.765625 L 24.78125 -24.28125 C 24.175781 -23.789062 23.679688 -23.546875 23.296875 -23.546875 C 22.972656 -23.546875 22.75 -23.738281 22.625 -24.125 L 21.875 -23.578125 C 21.425781 -23.835938 20.96875 -23.96875 20.5 -23.96875 L 19.203125 -23.609375 C 18.710938 -23.972656 18.269531 -24.15625 17.875 -24.15625 C 17.46875 -24.15625 17.019531 -23.972656 16.53125 -23.609375 L 15.515625 -23.96875 C 15.078125 -23.539062 14.859375 -23.132812 14.859375 -22.75 L 15.015625 -22.1875 L 14.3125 -21.484375 L 15.140625 -20.78125 L 14.375 -19.546875 L 15.015625 -18.75 L 14.46875 -17.640625 C 14.851562 -17.328125 15.046875 -17.019531 15.046875 -16.71875 C 15.046875 -16.425781 14.851562 -16.144531 14.46875 -15.875 L 14.46875 -13.046875 L 15.015625 -12.796875 L 15.015625 -10.671875 L 14.46875 -10.796875 L 15.140625 -6.765625 L 14.53125 -6.609375 L 15.015625 -5.203125 L 15.140625 -5.203125 C 16.128906 -5.203125 16.625 -5.003906 16.625 -4.609375 L 16.5 -4.15625 L 17.734375 -3.8125 L 17.734375 -4.5 L 20.1875 -4.5 L 20.65625 -3.875 L 21.796875 -4.40625 C 22.179688 -5.71875 22.945312 -6.597656 24.09375 -7.046875 L 24.0625 -8.09375 C 24.269531 -8.539062 24.488281 -8.765625 24.71875 -8.765625 C 24.9375 -8.765625 25.191406 -8.507812 25.484375 -8 L 26.25 -7.71875 L 25.609375 -6.15625 L 26.84375 -5.75 L 25.9375 -4 L 24.4375 -3.9375 L 23.828125 -3.171875 L 25.703125 -3.59375 C 24.179688 -1.257812 21.972656 -0.09375 19.078125 -0.09375 L 18.6875 -0.09375 C 18.226562 0.175781 17.742188 0.3125 17.234375 0.3125 C 16.703125 0.3125 16.171875 0.144531 15.640625 -0.1875 L 15.015625 -0.0625 C 14.035156 -0.0625 13.09375 -0.820312 12.1875 -2.34375 L 11.609375 -2.25 C 10.804688 -2.25 10.332031 -2.914062 10.1875 -4.25 Z M 10.765625 -5.546875 "/></g></g></g><g fill="#000000" fill-opacity="1"><g transform="translate(354.040354, 56.624994)"><g><path d="M 15.8125 -28.5 C 15.875 -27.820312 16.878906 -27.359375 18.828125 -27.109375 C 18.078125 -26.492188 17.703125 -25.929688 17.703125 -25.421875 C 17.703125 -25.273438 17.738281 -25.113281 17.8125 -24.9375 C 17.894531 -24.769531 17.984375 -24.609375 18.078125 -24.453125 C 18.171875 -24.296875 18.253906 -24.140625 18.328125 -23.984375 C 18.398438 -23.835938 18.4375 -23.710938 18.4375 -23.609375 C 18.4375 -23.503906 18.414062 -23.421875 18.375 -23.359375 C 18.332031 -23.296875 18.28125 -23.21875 18.21875 -23.125 C 18.15625 -23.03125 18.101562 -22.898438 18.0625 -22.734375 C 18.019531 -22.578125 18 -22.363281 18 -22.09375 L 18.21875 -19.96875 L 17.671875 -20.3125 L 17.671875 -17.640625 C 18.054688 -17.328125 18.25 -17.019531 18.25 -16.71875 C 18.25 -16.425781 18.054688 -16.144531 17.671875 -15.875 L 17.671875 -13.046875 L 18.21875 -12.796875 L 18.21875 -10.671875 L 17.671875 -10.796875 L 18.34375 -6.765625 L 17.734375 -6.609375 L 18.21875 -5.203125 L 18.34375 -5.203125 C 19.34375 -5.203125 19.84375 -5.003906 19.84375 -4.609375 L 19.703125 -4.15625 L 23.234375 -3.875 L 24.15625 -4.03125 C 25.40625 -4.03125 26.492188 -3.109375 27.421875 -1.265625 L 26.6875 0.4375 L 25.453125 -0.765625 L 25.140625 0.09375 C 24.710938 0.238281 24.171875 0.3125 23.515625 0.3125 C 22.367188 0.3125 21.257812 -0.0664062 20.1875 -0.828125 L 20.34375 0.578125 L 18.859375 -0.1875 L 17.109375 0.4375 L 17.296875 -0.828125 C 16.304688 -0.0664062 15.257812 0.3125 14.15625 0.3125 C 13.476562 0.3125 12.65625 0.101562 11.6875 -0.3125 L 9.65625 0.25 L 6.125 0.09375 C 5.894531 -0.257812 5.628906 -0.4375 5.328125 -0.4375 C 4.972656 -0.4375 4.570312 -0.195312 4.125 0.28125 L 3.140625 -0.796875 L 3.5625 -2.703125 C 5.039062 -2.890625 5.78125 -3.21875 5.78125 -3.6875 L 9.140625 -4.40625 L 9.90625 -4.09375 C 10.5625 -4.75 11.1875 -5.078125 11.78125 -5.078125 L 12.4375 -4.921875 L 13.578125 -6.703125 L 13.578125 -7.75 C 13.265625 -8.84375 13.109375 -9.847656 13.109375 -10.765625 C 13.109375 -11.671875 13.265625 -12.492188 13.578125 -13.234375 L 13.078125 -13.90625 L 13.75 -16.5 C 13.59375 -17.09375 13.484375 -17.640625 13.421875 -18.140625 C 13.359375 -18.640625 13.328125 -19.085938 13.328125 -19.484375 C 13.328125 -20.117188 13.421875 -20.597656 13.609375 -20.921875 L 12.984375 -21.359375 C 13.335938 -21.910156 13.515625 -22.3125 13.515625 -22.5625 C 13.515625 -22.707031 13.472656 -22.816406 13.390625 -22.890625 C 13.304688 -22.972656 13.210938 -23.050781 13.109375 -23.125 C 13.003906 -23.195312 12.910156 -23.269531 12.828125 -23.34375 C 12.742188 -23.414062 12.703125 -23.523438 12.703125 -23.671875 L 12.828125 -24.09375 L 10.765625 -24.09375 C 10.335938 -24.34375 9.878906 -24.46875 9.390625 -24.46875 C 8.648438 -24.46875 7.890625 -24.203125 7.109375 -23.671875 C 6.179688 -24.160156 5.71875 -24.660156 5.71875 -25.171875 L 5.75 -25.421875 L 6.21875 -25.609375 L 5.75 -26.3125 L 7.453125 -28.15625 L 8.125 -27.609375 L 9.453125 -27.578125 C 9.773438 -27.960938 10.242188 -28.15625 10.859375 -28.15625 C 11.234375 -28.15625 11.890625 -28.003906 12.828125 -27.703125 C 12.929688 -27.347656 13.023438 -27.171875 13.109375 -27.171875 C 13.253906 -27.171875 13.367188 -27.625 13.453125 -28.53125 Z M 15.515625 -38.015625 L 15.9375 -37.984375 C 16.59375 -37.671875 17.132812 -37.363281 17.5625 -37.0625 C 18 -36.769531 18.34375 -36.472656 18.59375 -36.171875 C 18.851562 -35.878906 19.035156 -35.5625 19.140625 -35.21875 C 19.242188 -34.882812 19.296875 -34.53125 19.296875 -34.15625 C 19.296875 -33.664062 19.238281 -33.1875 19.125 -32.71875 C 19.007812 -32.257812 18.828125 -31.847656 18.578125 -31.484375 C 18.335938 -31.117188 18.023438 -30.828125 17.640625 -30.609375 C 17.265625 -30.390625 16.8125 -30.269531 16.28125 -30.25 L 14.15625 -28.90625 L 14.625 -30.21875 C 12.363281 -30.914062 11.234375 -31.953125 11.234375 -33.328125 L 11.359375 -34.1875 C 11.171875 -34.3125 11.078125 -34.488281 11.078125 -34.71875 C 11.078125 -35.0625 11.171875 -35.375 11.359375 -35.65625 C 11.546875 -35.945312 11.753906 -36.195312 11.984375 -36.40625 C 12.222656 -36.613281 12.441406 -36.769531 12.640625 -36.875 C 12.847656 -36.976562 12.972656 -37.03125 13.015625 -37.03125 L 13.171875 -37 C 13.296875 -37 13.359375 -37.109375 13.359375 -37.328125 L 13.328125 -37.578125 C 13.328125 -37.785156 13.457031 -37.890625 13.71875 -37.890625 C 13.945312 -37.890625 14.148438 -37.816406 14.328125 -37.671875 C 14.503906 -37.523438 14.613281 -37.453125 14.65625 -37.453125 C 14.707031 -37.453125 14.75 -37.484375 14.78125 -37.546875 C 14.8125 -37.609375 14.851562 -37.671875 14.90625 -37.734375 C 14.957031 -37.796875 15.03125 -37.859375 15.125 -37.921875 C 15.21875 -37.984375 15.347656 -38.015625 15.515625 -38.015625 Z M 15.515625 -38.015625 "/></g></g></g><g fill="#000000" fill-opacity="1"><g transform="translate(382.918716, 56.624994)"><g><path d="M 3.84375 0.40625 C 2.863281 0.40625 2.15625 -0.0546875 1.71875 -0.984375 C 1.78125 -2.992188 2.347656 -4 3.421875 -4 L 3.65625 -3.875 L 3.84375 -4.125 L 3.5625 -4.21875 C 3.5625 -4.582031 4.015625 -4.929688 4.921875 -5.265625 L 5.171875 -7.203125 C 5.171875 -7.503906 5.140625 -7.773438 5.078125 -8.015625 C 5.015625 -8.253906 4.953125 -8.484375 4.890625 -8.703125 C 4.828125 -8.929688 4.765625 -9.160156 4.703125 -9.390625 C 4.640625 -9.628906 4.609375 -9.894531 4.609375 -10.1875 C 4.609375 -10.65625 4.695312 -11.175781 4.875 -11.75 C 5.050781 -12.332031 5.140625 -12.867188 5.140625 -13.359375 C 5.140625 -14.054688 4.960938 -14.710938 4.609375 -15.328125 L 4.609375 -16.828125 C 4.984375 -17.734375 5.171875 -18.691406 5.171875 -19.703125 C 5.171875 -20.421875 5.023438 -21.320312 4.734375 -22.40625 L 5.203125 -23.078125 C 4.992188 -23.472656 4.796875 -23.671875 4.609375 -23.671875 C 4.410156 -23.671875 4.226562 -23.460938 4.0625 -23.046875 L 1.78125 -23.640625 L 1.78125 -25.703125 L 2.375 -25.640625 L 1.65625 -26.984375 C 1.90625 -27.929688 2.460938 -28.40625 3.328125 -28.40625 L 4.09375 -28.3125 L 5.265625 -28.59375 L 6.34375 -28 C 6.5625 -28.25 6.890625 -28.375 7.328125 -28.375 C 7.734375 -28.375 8.242188 -28.25 8.859375 -28 C 9.234375 -26.664062 9.5625 -26 9.84375 -26 C 10.007812 -26 10.175781 -26.410156 10.34375 -27.234375 L 11.296875 -27.234375 L 12.34375 -26.5 L 12.53125 -27.015625 L 14.125 -28.34375 L 14.796875 -27.296875 L 15.234375 -28.4375 L 16.953125 -28 C 17.097656 -28.3125 17.296875 -28.46875 17.546875 -28.46875 C 17.703125 -28.46875 17.875 -28.394531 18.0625 -28.25 C 18.25 -28.101562 18.441406 -27.929688 18.640625 -27.734375 C 18.847656 -27.546875 19.039062 -27.378906 19.21875 -27.234375 C 19.394531 -27.085938 19.554688 -27.015625 19.703125 -27.015625 L 20.625 -27.328125 C 21.007812 -27.328125 21.398438 -27.125 21.796875 -26.71875 C 22.691406 -26.675781 23.4375 -26.265625 24.03125 -25.484375 L 24.3125 -23.671875 L 23.765625 -22.375 C 24.554688 -22.226562 24.953125 -20.988281 24.953125 -18.65625 L 24.21875 -17.875 C 24.570312 -17.507812 24.75 -17.234375 24.75 -17.046875 C 24.75 -16.804688 24.550781 -16.675781 24.15625 -16.65625 L 24.1875 -15.140625 L 24.40625 -15.203125 C 24.59375 -15.203125 24.6875 -15.019531 24.6875 -14.65625 C 24.6875 -14.320312 24.507812 -13.488281 24.15625 -12.15625 L 24.15625 -10.953125 C 24.425781 -10.929688 24.5625 -10.757812 24.5625 -10.4375 C 24.5625 -10.164062 24.46875 -9.773438 24.28125 -9.265625 L 24.28125 -8.375 L 25.046875 -8.4375 L 24.3125 -6.25 C 24.5 -4.664062 25.28125 -3.660156 26.65625 -3.234375 L 26.953125 -1.75 L 26.25 -0.375 C 25.96875 -0.226562 25.628906 -0.15625 25.234375 -0.15625 C 24.828125 -0.15625 24.488281 -0.226562 24.21875 -0.375 C 23.601562 -0.125 22.96875 0 22.3125 0 C 21.632812 0 20.9375 -0.125 20.21875 -0.375 L 18.859375 0.34375 C 18.859375 0.195312 18.738281 0.0820312 18.5 0 C 18.269531 -0.0820312 18.015625 -0.191406 17.734375 -0.328125 C 17.460938 -0.472656 17.207031 -0.6875 16.96875 -0.96875 C 16.738281 -1.25 16.625 -1.675781 16.625 -2.25 C 16.625 -2.882812 16.734375 -3.414062 16.953125 -3.84375 C 18.640625 -3.882812 19.484375 -4.367188 19.484375 -5.296875 L 19.359375 -6.03125 C 19.785156 -6.582031 20 -7.046875 20 -7.421875 C 20 -7.804688 19.773438 -8.144531 19.328125 -8.4375 L 19.046875 -9.90625 C 19.484375 -10.789062 19.703125 -11.519531 19.703125 -12.09375 C 19.703125 -12.8125 19.3125 -13.234375 18.53125 -13.359375 L 20 -15.9375 L 19.140625 -15.9375 L 19.109375 -19.078125 C 19.378906 -18.859375 19.613281 -18.75 19.8125 -18.75 C 20.019531 -18.75 20.125 -18.859375 20.125 -19.078125 L 20.125 -19.171875 C 20.226562 -19.253906 20.28125 -19.347656 20.28125 -19.453125 C 20.28125 -19.535156 20.238281 -19.617188 20.15625 -19.703125 L 19.640625 -19.609375 C 19.179688 -19.609375 18.953125 -19.894531 18.953125 -20.46875 L 19.046875 -21.203125 C 18.679688 -22.554688 18.046875 -23.234375 17.140625 -23.234375 L 16.921875 -23.234375 L 16.65625 -23.421875 L 16.5625 -22.8125 C 16.207031 -22.96875 15.722656 -23.046875 15.109375 -23.046875 C 13.921875 -23.046875 12.90625 -22.566406 12.0625 -21.609375 L 10.859375 -22.0625 L 10.59375 -20.984375 C 9.9375 -20.578125 9.609375 -20.066406 9.609375 -19.453125 L 9.6875 -18.953125 C 9.21875 -18.097656 8.984375 -17.484375 8.984375 -17.109375 L 9.359375 -17.109375 C 9.296875 -16.984375 9.265625 -16.890625 9.265625 -16.828125 C 9.265625 -16.785156 9.285156 -16.75 9.328125 -16.71875 C 9.390625 -16.675781 9.457031 -16.625 9.53125 -16.5625 C 9.613281 -16.5 9.65625 -16.394531 9.65625 -16.25 C 9.71875 -16.144531 9.75 -16.050781 9.75 -15.96875 C 9.75 -15.90625 9.726562 -15.851562 9.6875 -15.8125 C 9.570312 -15.71875 9.515625 -15.597656 9.515625 -15.453125 C 9.515625 -14.898438 9.707031 -14.203125 10.09375 -13.359375 C 9.601562 -12.265625 9.359375 -11.535156 9.359375 -11.171875 C 9.359375 -10.722656 9.507812 -10.5 9.8125 -10.5 C 9.875 -10.5 9.957031 -10.507812 10.0625 -10.53125 L 10.375 -10.3125 L 9.6875 -9.421875 C 9.914062 -9.128906 10.03125 -8.75 10.03125 -8.28125 C 10.03125 -7.75 9.785156 -6.816406 9.296875 -5.484375 L 10.3125 -5.015625 L 9.515625 -3.96875 L 9.84375 -4.0625 C 9.882812 -3.976562 9.925781 -3.9375 9.96875 -3.9375 C 10.007812 -3.9375 10.0625 -3.96875 10.125 -4.03125 C 11.394531 -4.03125 12.296875 -3.066406 12.828125 -1.140625 C 12.273438 -0.765625 11.765625 -0.257812 11.296875 0.375 C 10.742188 0.207031 10.257812 0.125 9.84375 0.125 C 9.476562 0.125 9.082031 0.148438 8.65625 0.203125 C 8.238281 0.253906 7.796875 0.332031 7.328125 0.4375 L 6.46875 -0.375 L 4.921875 0.40625 Z M 3.84375 0.40625 "/></g></g></g><g fill="#000000" fill-opacity="1"><g transform="translate(411.797078, 56.624994)"><g><path d="M 4 11.171875 L 3.390625 10.984375 C 3.054688 9.878906 2.378906 9.117188 1.359375 8.703125 L 1.296875 8.03125 C 1.296875 7.457031 1.476562 7.085938 1.84375 6.921875 C 1.65625 5.628906 1.335938 4.984375 0.890625 4.984375 L 0.765625 5.015625 L 1.234375 2.859375 L 1.171875 1.84375 C 1.171875 0.363281 1.703125 -0.648438 2.765625 -1.203125 L 2.765625 -1.421875 C 2.765625 -2.097656 3.15625 -2.4375 3.9375 -2.4375 L 4 -2.984375 C 2.132812 -4.523438 1.203125 -5.929688 1.203125 -7.203125 C 1.203125 -7.816406 1.425781 -8.398438 1.875 -8.953125 L 1.296875 -9.9375 C 2.359375 -10.738281 3.269531 -11.140625 4.03125 -11.140625 C 4.394531 -11.140625 4.722656 -11.054688 5.015625 -10.890625 L 6.46875 -11.96875 C 6.363281 -12.257812 6.1875 -12.40625 5.9375 -12.40625 L 5.546875 -12.3125 L 5.71875 -13.171875 C 4.570312 -14.835938 4 -16.507812 4 -18.1875 C 4 -18.988281 4.101562 -19.695312 4.3125 -20.3125 L 4.1875 -20.859375 C 4.1875 -21.441406 4.535156 -22.265625 5.234375 -23.328125 L 5.546875 -23.171875 L 6.640625 -24.46875 L 6.890625 -24.4375 C 7.242188 -24.4375 7.421875 -24.671875 7.421875 -25.140625 L 7.390625 -25.546875 L 8.3125 -25.90625 L 8.15625 -26.5 C 8.15625 -26.882812 8.367188 -27.265625 8.796875 -27.640625 C 9.210938 -27.347656 9.613281 -27.203125 10 -27.203125 C 10.71875 -27.203125 11.488281 -27.644531 12.3125 -28.53125 L 14.953125 -28.53125 C 15.285156 -28 15.84375 -27.734375 16.625 -27.734375 L 16.890625 -27.734375 L 16.65625 -26.40625 C 17.101562 -27 17.539062 -27.296875 17.96875 -27.296875 C 18.488281 -27.296875 19.023438 -26.832031 19.578125 -25.90625 C 20.335938 -28.476562 21.21875 -29.765625 22.21875 -29.765625 L 22.78125 -29.640625 L 22.75 -30.1875 L 23.421875 -29.890625 L 24.28125 -30.34375 L 24.03125 -29.796875 L 24.59375 -29.890625 C 25.507812 -29.890625 26.359375 -29.148438 27.140625 -27.671875 L 27.546875 -28.03125 C 27.890625 -26.800781 28.0625 -25.71875 28.0625 -24.78125 C 28.0625 -23.5 27.664062 -22.78125 26.875 -22.625 L 26.984375 -22.21875 C 25.367188 -22.238281 24.5625 -22.640625 24.5625 -23.421875 L 24.125 -23.640625 L 24.21875 -25.359375 C 24.21875 -26.367188 24.066406 -26.875 23.765625 -26.875 C 23.515625 -26.875 23.132812 -26.453125 22.625 -25.609375 C 22.78125 -25.398438 22.859375 -25.144531 22.859375 -24.84375 C 22.859375 -24.34375 22.601562 -23.828125 22.09375 -23.296875 C 22.21875 -22.554688 22.4375 -22.1875 22.75 -22.1875 L 23.015625 -22.25 L 24.0625 -18.984375 L 23.359375 -18.75 L 24.03125 -17.671875 L 24.03125 -17.203125 C 24.03125 -14.878906 23.457031 -13.226562 22.3125 -12.25 C 22.039062 -10.40625 20.789062 -9.460938 18.5625 -9.421875 C 17.53125 -8.453125 16.304688 -7.96875 14.890625 -7.96875 C 13.378906 -7.96875 11.65625 -8.59375 9.71875 -9.84375 C 9.476562 -9.289062 8.925781 -9.015625 8.0625 -9.015625 L 7.328125 -9.078125 C 7.773438 -8.648438 8 -8.3125 8 -8.0625 C 8 -7.894531 7.9375 -7.757812 7.8125 -7.65625 C 7.6875 -7.5625 7.546875 -7.472656 7.390625 -7.390625 C 7.242188 -7.304688 7.109375 -7.226562 6.984375 -7.15625 C 6.859375 -7.082031 6.796875 -6.992188 6.796875 -6.890625 C 6.796875 -6.765625 6.890625 -6.625 7.078125 -6.46875 L 6.34375 -6.40625 L 6.25 -6.953125 C 6.25 -7.398438 6.503906 -7.769531 7.015625 -8.0625 C 6.742188 -8.332031 6.476562 -8.46875 6.21875 -8.46875 C 5.6875 -8.46875 5.304688 -7.6875 5.078125 -6.125 C 6.285156 -5.914062 7.003906 -5.15625 7.234375 -3.84375 L 9.265625 -4.21875 L 9.546875 -3.84375 C 10.316406 -5.21875 11.351562 -5.90625 12.65625 -5.90625 C 13.269531 -5.90625 13.832031 -5.800781 14.34375 -5.59375 C 15.039062 -5.820312 15.625 -5.9375 16.09375 -5.9375 C 17.28125 -5.9375 18.390625 -5.414062 19.421875 -4.375 C 20.203125 -4.738281 20.859375 -4.921875 21.390625 -4.921875 C 22.617188 -4.921875 23.65625 -4.210938 24.5 -2.796875 L 25.515625 -2.796875 L 25.484375 -2.15625 C 25.484375 -1.164062 25.78125 -0.375 26.375 0.21875 L 26.25 1.046875 C 26.25 1.453125 26.34375 1.820312 26.53125 2.15625 C 26.789062 1.863281 27.003906 1.71875 27.171875 1.71875 C 27.484375 1.71875 27.640625 2.203125 27.640625 3.171875 L 27.640625 3.328125 C 27.128906 3.960938 26.875 4.648438 26.875 5.390625 C 26.875 6.046875 27.066406 6.734375 27.453125 7.453125 C 27.097656 7.691406 26.921875 8.03125 26.921875 8.46875 L 26.984375 9.046875 L 26.59375 8.859375 C 26.46875 8.859375 26.34375 8.953125 26.21875 9.140625 C 26.09375 9.328125 25.9375 9.539062 25.75 9.78125 C 25.570312 10.03125 25.34375 10.28125 25.0625 10.53125 C 24.789062 10.789062 24.457031 10.984375 24.0625 11.109375 C 23.101562 11.421875 22.582031 11.894531 22.5 12.53125 C 22.25 12.34375 21.984375 12.25 21.703125 12.25 C 21.085938 12.25 20.429688 12.703125 19.734375 13.609375 C 19.234375 13.441406 18.820312 13.359375 18.5 13.359375 C 17.820312 13.359375 17.15625 13.5625 16.5 13.96875 C 16.0625 13.769531 15.609375 13.671875 15.140625 13.671875 C 14.546875 13.671875 13.921875 13.832031 13.265625 14.15625 L 10.3125 13.96875 C 9.445312 13.226562 8.273438 12.757812 6.796875 12.5625 C 6.535156 12 6.109375 11.71875 5.515625 11.71875 C 5.097656 11.71875 4.6875 11.820312 4.28125 12.03125 Z M 9.546875 -13.90625 L 9.90625 -13.875 C 10.539062 -13.875 10.984375 -14.171875 11.234375 -14.765625 L 11.71875 -14.765625 C 11.71875 -14.273438 12.078125 -13.925781 12.796875 -13.71875 C 12.367188 -13.539062 12.15625 -13.304688 12.15625 -13.015625 L 12.1875 -12.765625 L 13.109375 -13.109375 C 13.398438 -12.046875 13.738281 -11.515625 14.125 -11.515625 C 14.289062 -11.515625 14.457031 -11.601562 14.625 -11.78125 L 16.71875 -11.875 C 17.550781 -12.0625 18.019531 -12.585938 18.125 -13.453125 C 18.863281 -13.648438 19.445312 -14.007812 19.875 -14.53125 C 20.3125 -15.0625 20.53125 -15.6875 20.53125 -16.40625 C 20.53125 -16.726562 20.457031 -17.039062 20.3125 -17.34375 C 20.164062 -17.65625 20 -17.976562 19.8125 -18.3125 C 19.632812 -18.65625 19.472656 -19.015625 19.328125 -19.390625 C 19.179688 -19.773438 19.109375 -20.207031 19.109375 -20.6875 L 19.140625 -21.390625 C 18.648438 -20.816406 18.117188 -20.53125 17.546875 -20.53125 L 17.140625 -20.59375 C 17.140625 -21.65625 17.335938 -22.597656 17.734375 -23.421875 C 17.210938 -23.765625 16.503906 -23.9375 15.609375 -23.9375 L 14.03125 -23.765625 L 14.125 -24.15625 C 14.125 -24.425781 13.929688 -24.59375 13.546875 -24.65625 L 13.390625 -23.765625 C 12.859375 -24.046875 12.289062 -24.1875 11.6875 -24.1875 C 10.351562 -24.1875 9.070312 -23.425781 7.84375 -21.90625 L 8.375 -22.125 C 8.675781 -22.125 8.847656 -21.804688 8.890625 -21.171875 L 7.90625 -20.4375 L 8.5 -20.09375 C 8.164062 -19.5 8 -18.957031 8 -18.46875 C 8 -18.257812 8.046875 -18.066406 8.140625 -17.890625 C 8.234375 -17.722656 8.34375 -17.5625 8.46875 -17.40625 C 8.601562 -17.25 8.71875 -17.101562 8.8125 -16.96875 C 8.90625 -16.832031 8.953125 -16.695312 8.953125 -16.5625 C 8.953125 -16.3125 8.726562 -16.144531 8.28125 -16.0625 C 8.601562 -15.675781 8.898438 -15.484375 9.171875 -15.484375 L 9.453125 -15.546875 Z M 7.75 -5.015625 L 8.796875 -5.203125 C 9.335938 -5.203125 9.609375 -4.957031 9.609375 -4.46875 L 9.609375 -4.3125 C 9.441406 -4.488281 9.222656 -4.578125 8.953125 -4.578125 C 8.566406 -4.578125 8.097656 -4.425781 7.546875 -4.125 Z M 5.59375 4.40625 C 5.96875 4.519531 6.15625 4.945312 6.15625 5.6875 L 6.15625 6.03125 C 6.5625 6.113281 6.925781 6.273438 7.25 6.515625 C 7.582031 6.765625 7.894531 7.019531 8.1875 7.28125 C 8.488281 7.550781 8.785156 7.785156 9.078125 7.984375 C 9.367188 8.179688 9.695312 8.28125 10.0625 8.28125 L 10.953125 8.15625 L 10.859375 8.828125 L 11.6875 8.953125 C 12.488281 8.953125 12.910156 8.453125 12.953125 7.453125 C 13.410156 8.367188 13.882812 8.828125 14.375 8.828125 C 14.71875 8.828125 15.066406 8.601562 15.421875 8.15625 L 16 8.28125 C 16.375 8.28125 16.691406 8.0625 16.953125 7.625 L 18.28125 7.75 C 20.351562 7.75 22.066406 6.59375 23.421875 4.28125 L 23.421875 4.15625 C 23.421875 3.125 22.96875 2.609375 22.0625 2.609375 L 21.421875 2.703125 C 20.765625 1.210938 19.863281 0.46875 18.71875 0.46875 L 18.1875 0.546875 C 17.9375 0.0976562 17.660156 -0.125 17.359375 -0.125 C 17.066406 -0.125 16.78125 0.0390625 16.5 0.375 L 15.109375 -1.015625 C 14.242188 -0.828125 13.566406 -0.285156 13.078125 0.609375 C 12.421875 0.585938 12.09375 0.394531 12.09375 0.03125 L 12.5 -0.859375 C 11.957031 -0.859375 11.6875 -0.46875 11.6875 0.3125 L 11.71875 0.828125 C 11.226562 0.335938 10.757812 0.09375 10.3125 0.09375 C 9.894531 0.09375 9.472656 0.273438 9.046875 0.640625 C 8.660156 0.378906 8.300781 0.25 7.96875 0.25 C 7.007812 0.25 6.203125 1.117188 5.546875 2.859375 Z M 22.65625 3.078125 C 23 3.484375 23.171875 3.8125 23.171875 4.0625 C 23.171875 4.269531 23.007812 4.375 22.6875 4.375 L 22 4.28125 Z M 22.65625 3.078125 "/></g></g></g></svg>